# MagicaVoxel @ Ephtracy

# group
o 

# material
mtllib BlockL121.mtl
usemtl palette

# normals
vn -1 0 0
vn 1 0 0
vn 0 0 1
vn 0 0 -1
vn 0 -1 0
vn 0 1 0

# texcoords
vt 0.814453 0.5
vt 0.818359 0.5
vt 0.822266 0.5
vt 0.826172 0.5

# verts
v 0 2 0
v 0 2 -0.8
v 0 2.3 0
v 0 2.3 -0.8
v 11.2 2 0
v 11.2 2 -0.8
v 11.2 2.2 0
v 11.2 2.2 -0.1
v 11.2 2.2 -0.8
v 11.2 2.3 0
v 11.2 2.3 -0.1
v 11.2 2.3 -0.8
v 0 2 0
v 0 2.3 0
v 0.8 2.2 0
v 0.8 2.3 0
v 1.6 2.2 0
v 1.6 2.3 0
v 2.4 2.2 0
v 2.4 2.3 0
v 3.2 2.2 0
v 3.2 2.3 0
v 4 2.2 0
v 4 2.3 0
v 4.8 2.2 0
v 4.8 2.3 0
v 5.6 2.2 0
v 5.6 2.3 0
v 6.4 2.2 0
v 6.4 2.3 0
v 7.2 2.2 0
v 7.2 2.3 0
v 8 2.2 0
v 8 2.3 0
v 8.8 2.2 0
v 8.8 2.3 0
v 9.6 2.2 0
v 9.6 2.3 0
v 10.4 2.2 0
v 10.4 2.3 0
v 11.2 2 0
v 11.2 2.2 0
v 11.2 2.3 0
v 0 2 -0.8
v 0 2.3 -0.8
v 0.8 2.2 -0.8
v 0.8 2.3 -0.8
v 0.9 2.2 -0.8
v 0.9 2.3 -0.8
v 1.6 2.2 -0.8
v 1.6 2.3 -0.8
v 2.4 2.2 -0.8
v 2.4 2.3 -0.8
v 2.5 2.2 -0.8
v 2.5 2.3 -0.8
v 3.2 2.2 -0.8
v 3.2 2.3 -0.8
v 4 2.2 -0.8
v 4 2.3 -0.8
v 4.1 2.2 -0.8
v 4.1 2.3 -0.8
v 4.8 2.2 -0.8
v 4.8 2.3 -0.8
v 5.6 2.2 -0.8
v 5.6 2.3 -0.8
v 5.7 2.2 -0.8
v 5.7 2.3 -0.8
v 6.4 2.2 -0.8
v 6.4 2.3 -0.8
v 7.2 2.2 -0.8
v 7.2 2.3 -0.8
v 7.3 2.2 -0.8
v 7.3 2.3 -0.8
v 8 2.2 -0.8
v 8 2.3 -0.8
v 8.8 2.2 -0.8
v 8.8 2.3 -0.8
v 8.9 2.2 -0.8
v 8.9 2.3 -0.8
v 9.6 2.2 -0.8
v 9.6 2.3 -0.8
v 10.4 2.2 -0.8
v 10.4 2.3 -0.8
v 10.5 2.2 -0.8
v 10.5 2.3 -0.8
v 11.2 2 -0.8
v 11.2 2.2 -0.8
v 11.2 2.3 -0.8
v 0 2 0
v 11.2 2 0
v 0 2 -0.8
v 11.2 2 -0.8
v 0 2.3 0
v 0.8 2.3 0
v 1.6 2.3 0
v 2.4 2.3 0
v 3.2 2.3 0
v 4 2.3 0
v 4.8 2.3 0
v 5.6 2.3 0
v 6.4 2.3 0
v 7.2 2.3 0
v 8 2.3 0
v 8.8 2.3 0
v 9.6 2.3 0
v 10.4 2.3 0
v 11.2 2.3 0
v 0.9 2.3 -0.1
v 1.5 2.3 -0.1
v 1.6 2.3 -0.1
v 2.5 2.3 -0.1
v 3.1 2.3 -0.1
v 3.2 2.3 -0.1
v 4.1 2.3 -0.1
v 4.7 2.3 -0.1
v 4.8 2.3 -0.1
v 5.7 2.3 -0.1
v 6.3 2.3 -0.1
v 6.4 2.3 -0.1
v 7.3 2.3 -0.1
v 7.9 2.3 -0.1
v 8 2.3 -0.1
v 8.9 2.3 -0.1
v 9.5 2.3 -0.1
v 9.6 2.3 -0.1
v 10.5 2.3 -0.1
v 11.1 2.3 -0.1
v 11.2 2.3 -0.1
v 0.9 2.3 -0.7
v 1.5 2.3 -0.7
v 2.5 2.3 -0.7
v 3.1 2.3 -0.7
v 4.1 2.3 -0.7
v 4.7 2.3 -0.7
v 5.7 2.3 -0.7
v 6.3 2.3 -0.7
v 7.3 2.3 -0.7
v 7.9 2.3 -0.7
v 8.9 2.3 -0.7
v 9.5 2.3 -0.7
v 10.5 2.3 -0.7
v 11.1 2.3 -0.7
v 0 2.3 -0.8
v 0.8 2.3 -0.8
v 0.9 2.3 -0.8
v 1.6 2.3 -0.8
v 2.4 2.3 -0.8
v 2.5 2.3 -0.8
v 3.2 2.3 -0.8
v 4 2.3 -0.8
v 4.1 2.3 -0.8
v 4.8 2.3 -0.8
v 5.6 2.3 -0.8
v 5.7 2.3 -0.8
v 6.4 2.3 -0.8
v 7.2 2.3 -0.8
v 7.3 2.3 -0.8
v 8 2.3 -0.8
v 8.8 2.3 -0.8
v 8.9 2.3 -0.8
v 9.6 2.3 -0.8
v 10.4 2.3 -0.8
v 10.5 2.3 -0.8
v 11.2 2.3 -0.8

# faces
f 3/1/1 2/1/1 1/1/1
f 4/1/1 2/1/1 3/1/1
f 5/1/2 6/1/2 7/1/2
f 7/1/2 6/1/2 8/1/2
f 8/1/2 6/1/2 9/1/2
f 7/4/2 8/4/2 10/4/2
f 8/3/2 9/3/2 11/3/2
f 10/4/2 8/4/2 11/4/2
f 11/3/2 9/3/2 12/3/2
f 15/1/3 14/1/3 13/1/3
f 16/1/3 14/1/3 15/1/3
f 17/1/3 15/1/3 13/1/3
f 17/4/3 16/4/3 15/4/3
f 18/4/3 16/4/3 17/4/3
f 19/1/3 17/1/3 13/1/3
f 19/1/3 18/1/3 17/1/3
f 20/1/3 18/1/3 19/1/3
f 21/1/3 19/1/3 13/1/3
f 21/4/3 20/4/3 19/4/3
f 22/4/3 20/4/3 21/4/3
f 23/1/3 21/1/3 13/1/3
f 23/1/3 22/1/3 21/1/3
f 24/1/3 22/1/3 23/1/3
f 25/1/3 23/1/3 13/1/3
f 25/4/3 24/4/3 23/4/3
f 26/4/3 24/4/3 25/4/3
f 27/1/3 25/1/3 13/1/3
f 27/1/3 26/1/3 25/1/3
f 28/1/3 26/1/3 27/1/3
f 29/1/3 27/1/3 13/1/3
f 29/4/3 28/4/3 27/4/3
f 30/4/3 28/4/3 29/4/3
f 31/1/3 29/1/3 13/1/3
f 31/1/3 30/1/3 29/1/3
f 32/1/3 30/1/3 31/1/3
f 33/1/3 31/1/3 13/1/3
f 33/4/3 32/4/3 31/4/3
f 34/4/3 32/4/3 33/4/3
f 35/1/3 33/1/3 13/1/3
f 35/1/3 34/1/3 33/1/3
f 36/1/3 34/1/3 35/1/3
f 37/1/3 35/1/3 13/1/3
f 37/4/3 36/4/3 35/4/3
f 38/4/3 36/4/3 37/4/3
f 39/1/3 37/1/3 13/1/3
f 39/1/3 38/1/3 37/1/3
f 40/1/3 38/1/3 39/1/3
f 41/1/3 39/1/3 13/1/3
f 42/4/3 40/4/3 39/4/3
f 42/1/3 39/1/3 41/1/3
f 43/4/3 40/4/3 42/4/3
f 44/1/4 45/1/4 46/1/4
f 46/1/4 45/1/4 47/1/4
f 44/1/4 46/1/4 48/1/4
f 46/4/4 47/4/4 48/4/4
f 48/4/4 47/4/4 49/4/4
f 44/1/4 48/1/4 50/1/4
f 48/3/4 49/3/4 50/3/4
f 50/3/4 49/3/4 51/3/4
f 44/1/4 50/1/4 52/1/4
f 50/1/4 51/1/4 52/1/4
f 52/1/4 51/1/4 53/1/4
f 44/1/4 52/1/4 54/1/4
f 52/4/4 53/4/4 54/4/4
f 54/4/4 53/4/4 55/4/4
f 44/1/4 54/1/4 56/1/4
f 54/3/4 55/3/4 56/3/4
f 56/3/4 55/3/4 57/3/4
f 44/1/4 56/1/4 58/1/4
f 56/1/4 57/1/4 58/1/4
f 58/1/4 57/1/4 59/1/4
f 44/1/4 58/1/4 60/1/4
f 58/4/4 59/4/4 60/4/4
f 60/4/4 59/4/4 61/4/4
f 44/1/4 60/1/4 62/1/4
f 60/3/4 61/3/4 62/3/4
f 62/3/4 61/3/4 63/3/4
f 44/1/4 62/1/4 64/1/4
f 62/1/4 63/1/4 64/1/4
f 64/1/4 63/1/4 65/1/4
f 44/1/4 64/1/4 66/1/4
f 64/4/4 65/4/4 66/4/4
f 66/4/4 65/4/4 67/4/4
f 44/1/4 66/1/4 68/1/4
f 66/3/4 67/3/4 68/3/4
f 68/3/4 67/3/4 69/3/4
f 44/1/4 68/1/4 70/1/4
f 68/1/4 69/1/4 70/1/4
f 70/1/4 69/1/4 71/1/4
f 44/1/4 70/1/4 72/1/4
f 70/4/4 71/4/4 72/4/4
f 72/4/4 71/4/4 73/4/4
f 44/1/4 72/1/4 74/1/4
f 72/3/4 73/3/4 74/3/4
f 74/3/4 73/3/4 75/3/4
f 44/1/4 74/1/4 76/1/4
f 74/1/4 75/1/4 76/1/4
f 76/1/4 75/1/4 77/1/4
f 44/1/4 76/1/4 78/1/4
f 76/4/4 77/4/4 78/4/4
f 78/4/4 77/4/4 79/4/4
f 44/1/4 78/1/4 80/1/4
f 78/3/4 79/3/4 80/3/4
f 80/3/4 79/3/4 81/3/4
f 44/1/4 80/1/4 82/1/4
f 80/1/4 81/1/4 82/1/4
f 82/1/4 81/1/4 83/1/4
f 44/1/4 82/1/4 84/1/4
f 82/4/4 83/4/4 84/4/4
f 84/4/4 83/4/4 85/4/4
f 44/1/4 84/1/4 86/1/4
f 84/3/4 85/3/4 87/3/4
f 86/1/4 84/1/4 87/1/4
f 87/3/4 85/3/4 88/3/4
f 91/1/5 90/1/5 89/1/5
f 92/1/5 90/1/5 91/1/5
f 94/4/6 95/4/6 108/4/6
f 108/4/6 95/4/6 109/4/6
f 95/1/6 96/1/6 110/1/6
f 109/4/6 95/4/6 110/4/6
f 96/4/6 97/4/6 111/4/6
f 111/4/6 97/4/6 112/4/6
f 97/1/6 98/1/6 113/1/6
f 112/4/6 97/4/6 113/4/6
f 98/4/6 99/4/6 114/4/6
f 114/4/6 99/4/6 115/4/6
f 99/1/6 100/1/6 116/1/6
f 115/4/6 99/4/6 116/4/6
f 100/4/6 101/4/6 117/4/6
f 117/4/6 101/4/6 118/4/6
f 101/1/6 102/1/6 119/1/6
f 118/4/6 101/4/6 119/4/6
f 102/4/6 103/4/6 120/4/6
f 120/4/6 103/4/6 121/4/6
f 103/1/6 104/1/6 122/1/6
f 121/4/6 103/4/6 122/4/6
f 104/4/6 105/4/6 123/4/6
f 123/4/6 105/4/6 124/4/6
f 105/1/6 106/1/6 125/1/6
f 124/4/6 105/4/6 125/4/6
f 106/4/6 107/4/6 126/4/6
f 126/4/6 107/4/6 127/4/6
f 127/4/6 107/4/6 128/4/6
f 108/2/6 109/2/6 129/2/6
f 94/4/6 108/4/6 129/4/6
f 109/3/6 110/3/6 130/3/6
f 129/2/6 109/2/6 130/2/6
f 111/2/6 112/2/6 131/2/6
f 96/4/6 111/4/6 131/4/6
f 112/3/6 113/3/6 132/3/6
f 131/2/6 112/2/6 132/2/6
f 114/2/6 115/2/6 133/2/6
f 98/4/6 114/4/6 133/4/6
f 115/3/6 116/3/6 134/3/6
f 133/2/6 115/2/6 134/2/6
f 117/2/6 118/2/6 135/2/6
f 100/4/6 117/4/6 135/4/6
f 118/3/6 119/3/6 136/3/6
f 135/2/6 118/2/6 136/2/6
f 120/2/6 121/2/6 137/2/6
f 102/4/6 120/4/6 137/4/6
f 121/3/6 122/3/6 138/3/6
f 137/2/6 121/2/6 138/2/6
f 123/2/6 124/2/6 139/2/6
f 104/4/6 123/4/6 139/4/6
f 124/3/6 125/3/6 140/3/6
f 139/2/6 124/2/6 140/2/6
f 106/4/6 126/4/6 141/4/6
f 126/2/6 127/2/6 141/2/6
f 127/3/6 128/3/6 142/3/6
f 141/2/6 127/2/6 142/2/6
f 93/1/6 94/1/6 143/1/6
f 94/4/6 129/4/6 144/4/6
f 143/1/6 94/1/6 144/1/6
f 129/3/6 130/3/6 145/3/6
f 144/4/6 129/4/6 145/4/6
f 110/1/6 96/1/6 146/1/6
f 145/3/6 130/3/6 146/3/6
f 130/3/6 110/3/6 146/3/6
f 96/4/6 131/4/6 147/4/6
f 146/1/6 96/1/6 147/1/6
f 131/3/6 132/3/6 148/3/6
f 147/4/6 131/4/6 148/4/6
f 113/1/6 98/1/6 149/1/6
f 148/3/6 132/3/6 149/3/6
f 132/3/6 113/3/6 149/3/6
f 98/4/6 133/4/6 150/4/6
f 149/1/6 98/1/6 150/1/6
f 133/3/6 134/3/6 151/3/6
f 150/4/6 133/4/6 151/4/6
f 116/1/6 100/1/6 152/1/6
f 151/3/6 134/3/6 152/3/6
f 134/3/6 116/3/6 152/3/6
f 100/4/6 135/4/6 153/4/6
f 152/1/6 100/1/6 153/1/6
f 135/3/6 136/3/6 154/3/6
f 153/4/6 135/4/6 154/4/6
f 119/1/6 102/1/6 155/1/6
f 154/3/6 136/3/6 155/3/6
f 136/3/6 119/3/6 155/3/6
f 102/4/6 137/4/6 156/4/6
f 155/1/6 102/1/6 156/1/6
f 137/3/6 138/3/6 157/3/6
f 156/4/6 137/4/6 157/4/6
f 122/1/6 104/1/6 158/1/6
f 157/3/6 138/3/6 158/3/6
f 138/3/6 122/3/6 158/3/6
f 104/4/6 139/4/6 159/4/6
f 158/1/6 104/1/6 159/1/6
f 139/3/6 140/3/6 160/3/6
f 159/4/6 139/4/6 160/4/6
f 125/1/6 106/1/6 161/1/6
f 160/3/6 140/3/6 161/3/6
f 140/3/6 125/3/6 161/3/6
f 106/4/6 141/4/6 162/4/6
f 161/1/6 106/1/6 162/1/6
f 141/3/6 142/3/6 163/3/6
f 162/4/6 141/4/6 163/4/6
f 142/3/6 128/3/6 164/3/6
f 163/3/6 142/3/6 164/3/6
