# MagicaVoxel @ Ephtracy

# group
o 

# material
mtllib Wall2.mtl
usemtl palette

# normals
vn -1 0 0
vn 1 0 0
vn 0 0 1
vn 0 0 -1
vn 0 -1 0
vn 0 1 0

# texcoords
vt 0.814453 0.5
vt 0.818359 0.5

# verts
v 0 2 0
v 0 2 -0.1
v 0 2 -0.2
v 0 2 -0.4
v 0 3.5 0
v 0 3.5 -0.1
v 0 3.7 0
v 0 3.7 -0.1
v 0 5.2 0
v 0 5.2 -0.1
v 0 5.4 0
v 0 5.4 -0.1
v 0 6.7 0
v 0 6.7 -0.1
v 0 6.9 -0.1
v 0 6.9 -0.2
v 0 6.9 -0.4
v 1 3.7 0
v 1 3.7 -0.1
v 1 5.2 0
v 1 5.2 -0.1
v 2 2 0
v 2 2 -0.1
v 2 3.5 0
v 2 3.5 -0.1
v 2 5.4 0
v 2 5.4 -0.1
v 2 6.7 0
v 2 6.7 -0.1
v 3 3.7 0
v 3 3.7 -0.1
v 3 5.2 0
v 3 5.2 -0.1
v 4 2 0
v 4 2 -0.1
v 4 3.5 0
v 4 3.5 -0.1
v 4 5.4 0
v 4 5.4 -0.1
v 4 6.7 0
v 4 6.7 -0.1
v 5 3.7 0
v 5 3.7 -0.1
v 5 5.2 0
v 5 5.2 -0.1
v 6 2 0
v 6 2 -0.1
v 6 3.5 0
v 6 3.5 -0.1
v 6 5.4 0
v 6 5.4 -0.1
v 6 6.7 0
v 6 6.7 -0.1
v 7 3.7 0
v 7 3.7 -0.1
v 7 5.2 0
v 7 5.2 -0.1
v 8 2 0
v 8 2 -0.1
v 8 3.5 0
v 8 3.5 -0.1
v 8 5.4 0
v 8 5.4 -0.1
v 8 6.7 0
v 8 6.7 -0.1
v 9 3.7 0
v 9 3.7 -0.1
v 9 5.2 0
v 9 5.2 -0.1
v 10 2 0
v 10 2 -0.1
v 10 3.5 0
v 10 3.5 -0.1
v 10 5.4 0
v 10 5.4 -0.1
v 10 6.7 0
v 10 6.7 -0.1
v 11 3.7 0
v 11 3.7 -0.1
v 11 5.2 0
v 11 5.2 -0.1
v 0.8 3.7 0
v 0.8 3.7 -0.1
v 0.8 5.2 0
v 0.8 5.2 -0.1
v 1.8 2 0
v 1.8 2 -0.1
v 1.8 3.5 0
v 1.8 3.5 -0.1
v 1.8 5.4 0
v 1.8 5.4 -0.1
v 1.8 6.7 0
v 1.8 6.7 -0.1
v 2.8 3.7 0
v 2.8 3.7 -0.1
v 2.8 5.2 0
v 2.8 5.2 -0.1
v 3.8 2 0
v 3.8 2 -0.1
v 3.8 3.5 0
v 3.8 3.5 -0.1
v 3.8 5.4 0
v 3.8 5.4 -0.1
v 3.8 6.7 0
v 3.8 6.7 -0.1
v 4.8 3.7 0
v 4.8 3.7 -0.1
v 4.8 5.2 0
v 4.8 5.2 -0.1
v 5.8 2 0
v 5.8 2 -0.1
v 5.8 3.5 0
v 5.8 3.5 -0.1
v 5.8 5.4 0
v 5.8 5.4 -0.1
v 5.8 6.7 0
v 5.8 6.7 -0.1
v 6.8 3.7 0
v 6.8 3.7 -0.1
v 6.8 5.2 0
v 6.8 5.2 -0.1
v 7.8 2 0
v 7.8 2 -0.1
v 7.8 3.5 0
v 7.8 3.5 -0.1
v 7.8 5.4 0
v 7.8 5.4 -0.1
v 7.8 6.7 0
v 7.8 6.7 -0.1
v 8.8 3.7 0
v 8.8 3.7 -0.1
v 8.8 5.2 0
v 8.8 5.2 -0.1
v 9.8 2 0
v 9.8 2 -0.1
v 9.8 3.5 0
v 9.8 3.5 -0.1
v 9.8 5.4 0
v 9.8 5.4 -0.1
v 9.8 6.7 0
v 9.8 6.7 -0.1
v 10.8 3.7 0
v 10.8 3.7 -0.1
v 10.8 5.2 0
v 10.8 5.2 -0.1
v 11.8 2 0
v 11.8 2 -0.4
v 11.8 3.5 0
v 11.8 3.5 -0.1
v 11.8 3.5 -0.2
v 11.8 3.7 0
v 11.8 3.7 -0.1
v 11.8 5.2 0
v 11.8 5.2 -0.1
v 11.8 5.4 0
v 11.8 5.4 -0.1
v 11.8 6.7 0
v 11.8 6.7 -0.1
v 11.8 6.9 -0.1
v 11.8 6.9 -0.2
v 11.8 6.9 -0.4
v 0 2 0
v 0 3.5 0
v 0 3.7 0
v 0 5.2 0
v 0 5.4 0
v 0 6.7 0
v 0.8 3.7 0
v 0.8 5.2 0
v 1 3.7 0
v 1 5.2 0
v 1.8 2 0
v 1.8 3.5 0
v 1.8 5.4 0
v 1.8 6.7 0
v 2 2 0
v 2 3.5 0
v 2 5.4 0
v 2 6.7 0
v 2.8 3.7 0
v 2.8 5.2 0
v 3 3.7 0
v 3 5.2 0
v 3.8 2 0
v 3.8 3.5 0
v 3.8 5.4 0
v 3.8 6.7 0
v 4 2 0
v 4 3.5 0
v 4 5.4 0
v 4 6.7 0
v 4.8 3.7 0
v 4.8 5.2 0
v 5 3.7 0
v 5 5.2 0
v 5.8 2 0
v 5.8 3.5 0
v 5.8 5.4 0
v 5.8 6.7 0
v 6 2 0
v 6 3.5 0
v 6 5.4 0
v 6 6.7 0
v 6.8 3.7 0
v 6.8 5.2 0
v 7 3.7 0
v 7 5.2 0
v 7.8 2 0
v 7.8 3.5 0
v 7.8 5.4 0
v 7.8 6.7 0
v 8 2 0
v 8 3.5 0
v 8 5.4 0
v 8 6.7 0
v 8.8 3.7 0
v 8.8 5.2 0
v 9 3.7 0
v 9 5.2 0
v 9.8 2 0
v 9.8 3.5 0
v 9.8 5.4 0
v 9.8 6.7 0
v 10 2 0
v 10 3.5 0
v 10 5.4 0
v 10 6.7 0
v 10.8 3.7 0
v 10.8 5.2 0
v 11 3.7 0
v 11 5.2 0
v 11.8 2 0
v 11.8 3.5 0
v 11.8 3.7 0
v 11.8 5.2 0
v 11.8 5.4 0
v 11.8 6.7 0
v 0 3.5 -0.1
v 0 3.7 -0.1
v 0 5.2 -0.1
v 0 5.4 -0.1
v 0 6.7 -0.1
v 0 6.9 -0.1
v 0.8 3.7 -0.1
v 0.8 5.2 -0.1
v 1 3.7 -0.1
v 1 5.2 -0.1
v 1.8 2 -0.1
v 1.8 3.5 -0.1
v 1.8 5.4 -0.1
v 1.8 6.7 -0.1
v 2 2 -0.1
v 2 3.5 -0.1
v 2 5.4 -0.1
v 2 6.7 -0.1
v 2.8 3.7 -0.1
v 2.8 5.2 -0.1
v 3 3.7 -0.1
v 3 5.2 -0.1
v 3.8 2 -0.1
v 3.8 3.5 -0.1
v 3.8 5.4 -0.1
v 3.8 6.7 -0.1
v 4 2 -0.1
v 4 3.5 -0.1
v 4 5.4 -0.1
v 4 6.7 -0.1
v 4.8 3.7 -0.1
v 4.8 5.2 -0.1
v 5 3.7 -0.1
v 5 5.2 -0.1
v 5.8 2 -0.1
v 5.8 3.5 -0.1
v 5.8 5.4 -0.1
v 5.8 6.7 -0.1
v 6 2 -0.1
v 6 3.5 -0.1
v 6 5.4 -0.1
v 6 6.7 -0.1
v 6.8 3.7 -0.1
v 6.8 5.2 -0.1
v 7 3.7 -0.1
v 7 5.2 -0.1
v 7.8 2 -0.1
v 7.8 3.5 -0.1
v 7.8 5.4 -0.1
v 7.8 6.7 -0.1
v 8 2 -0.1
v 8 3.5 -0.1
v 8 5.4 -0.1
v 8 6.7 -0.1
v 8.8 3.7 -0.1
v 8.8 5.2 -0.1
v 9 3.7 -0.1
v 9 5.2 -0.1
v 9.8 2 -0.1
v 9.8 3.5 -0.1
v 9.8 5.4 -0.1
v 9.8 6.7 -0.1
v 10 2 -0.1
v 10 3.5 -0.1
v 10 5.4 -0.1
v 10 6.7 -0.1
v 10.8 3.7 -0.1
v 10.8 5.2 -0.1
v 11 3.7 -0.1
v 11 5.2 -0.1
v 11.8 3.5 -0.1
v 11.8 3.7 -0.1
v 11.8 5.2 -0.1
v 11.8 5.4 -0.1
v 11.8 6.7 -0.1
v 11.8 6.9 -0.1
v 0 2 -0.4
v 0 6.9 -0.4
v 11.8 2 -0.4
v 11.8 6.9 -0.4
v 0 2 0
v 1.8 2 0
v 2 2 0
v 3.8 2 0
v 4 2 0
v 5.8 2 0
v 6 2 0
v 7.8 2 0
v 8 2 0
v 9.8 2 0
v 10 2 0
v 11.8 2 0
v 0 2 -0.1
v 1.8 2 -0.1
v 2 2 -0.1
v 3.8 2 -0.1
v 4 2 -0.1
v 5.8 2 -0.1
v 6 2 -0.1
v 7.8 2 -0.1
v 8 2 -0.1
v 9.8 2 -0.1
v 10 2 -0.1
v 0 2 -0.2
v 10 2 -0.2
v 0 2 -0.4
v 11.8 2 -0.4
v 0 3.7 0
v 0.8 3.7 0
v 1 3.7 0
v 2.8 3.7 0
v 3 3.7 0
v 4.8 3.7 0
v 5 3.7 0
v 6.8 3.7 0
v 7 3.7 0
v 8.8 3.7 0
v 9 3.7 0
v 10.8 3.7 0
v 11 3.7 0
v 11.8 3.7 0
v 0 3.7 -0.1
v 0.8 3.7 -0.1
v 1 3.7 -0.1
v 2.8 3.7 -0.1
v 3 3.7 -0.1
v 4.8 3.7 -0.1
v 5 3.7 -0.1
v 6.8 3.7 -0.1
v 7 3.7 -0.1
v 8.8 3.7 -0.1
v 9 3.7 -0.1
v 10.8 3.7 -0.1
v 11 3.7 -0.1
v 11.8 3.7 -0.1
v 0 5.4 0
v 1.8 5.4 0
v 2 5.4 0
v 3.8 5.4 0
v 4 5.4 0
v 5.8 5.4 0
v 6 5.4 0
v 7.8 5.4 0
v 8 5.4 0
v 9.8 5.4 0
v 10 5.4 0
v 11.8 5.4 0
v 0 5.4 -0.1
v 1.8 5.4 -0.1
v 2 5.4 -0.1
v 3.8 5.4 -0.1
v 4 5.4 -0.1
v 5.8 5.4 -0.1
v 6 5.4 -0.1
v 7.8 5.4 -0.1
v 8 5.4 -0.1
v 9.8 5.4 -0.1
v 10 5.4 -0.1
v 11.8 5.4 -0.1
v 0 3.5 0
v 1.8 3.5 0
v 2 3.5 0
v 3.8 3.5 0
v 4 3.5 0
v 5.8 3.5 0
v 6 3.5 0
v 7.8 3.5 0
v 8 3.5 0
v 9.8 3.5 0
v 10 3.5 0
v 11.8 3.5 0
v 0 3.5 -0.1
v 1.8 3.5 -0.1
v 2 3.5 -0.1
v 3.8 3.5 -0.1
v 4 3.5 -0.1
v 5.8 3.5 -0.1
v 6 3.5 -0.1
v 7.8 3.5 -0.1
v 8 3.5 -0.1
v 9.8 3.5 -0.1
v 10 3.5 -0.1
v 11.8 3.5 -0.1
v 0 5.2 0
v 0.8 5.2 0
v 1 5.2 0
v 2.8 5.2 0
v 3 5.2 0
v 4.8 5.2 0
v 5 5.2 0
v 6.8 5.2 0
v 7 5.2 0
v 8.8 5.2 0
v 9 5.2 0
v 10.8 5.2 0
v 11 5.2 0
v 11.8 5.2 0
v 0 5.2 -0.1
v 0.8 5.2 -0.1
v 1 5.2 -0.1
v 2.8 5.2 -0.1
v 3 5.2 -0.1
v 4.8 5.2 -0.1
v 5 5.2 -0.1
v 6.8 5.2 -0.1
v 7 5.2 -0.1
v 8.8 5.2 -0.1
v 9 5.2 -0.1
v 10.8 5.2 -0.1
v 11 5.2 -0.1
v 11.8 5.2 -0.1
v 0 6.7 0
v 1.8 6.7 0
v 2 6.7 0
v 3.8 6.7 0
v 4 6.7 0
v 5.8 6.7 0
v 6 6.7 0
v 7.8 6.7 0
v 8 6.7 0
v 9.8 6.7 0
v 10 6.7 0
v 11.8 6.7 0
v 0 6.7 -0.1
v 1.8 6.7 -0.1
v 2 6.7 -0.1
v 3.8 6.7 -0.1
v 4 6.7 -0.1
v 5.8 6.7 -0.1
v 6 6.7 -0.1
v 7.8 6.7 -0.1
v 8 6.7 -0.1
v 9.8 6.7 -0.1
v 10 6.7 -0.1
v 11.8 6.7 -0.1
v 0 6.9 -0.1
v 11.8 6.9 -0.1
v 0 6.9 -0.2
v 11.8 6.9 -0.2
v 0 6.9 -0.4
v 11.8 6.9 -0.4

# faces
f 5/1/1 2/1/1 1/1/1
f 6/2/1 3/2/1 2/2/1
f 6/1/1 2/1/1 5/1/1
f 8/2/1 3/2/1 6/2/1
f 9/1/1 8/1/1 7/1/1
f 10/2/1 3/2/1 8/2/1
f 10/1/1 8/1/1 9/1/1
f 12/2/1 3/2/1 10/2/1
f 13/1/1 12/1/1 11/1/1
f 14/2/1 3/2/1 12/2/1
f 14/1/1 12/1/1 13/1/1
f 15/2/1 3/2/1 14/2/1
f 16/1/1 4/1/1 3/1/1
f 16/2/1 3/2/1 15/2/1
f 17/1/1 4/1/1 16/1/1
f 20/1/1 19/1/1 18/1/1
f 21/1/1 19/1/1 20/1/1
f 24/1/1 23/1/1 22/1/1
f 25/1/1 23/1/1 24/1/1
f 28/1/1 27/1/1 26/1/1
f 29/1/1 27/1/1 28/1/1
f 32/1/1 31/1/1 30/1/1
f 33/1/1 31/1/1 32/1/1
f 36/1/1 35/1/1 34/1/1
f 37/1/1 35/1/1 36/1/1
f 40/1/1 39/1/1 38/1/1
f 41/1/1 39/1/1 40/1/1
f 44/1/1 43/1/1 42/1/1
f 45/1/1 43/1/1 44/1/1
f 48/1/1 47/1/1 46/1/1
f 49/1/1 47/1/1 48/1/1
f 52/1/1 51/1/1 50/1/1
f 53/1/1 51/1/1 52/1/1
f 56/1/1 55/1/1 54/1/1
f 57/1/1 55/1/1 56/1/1
f 60/1/1 59/1/1 58/1/1
f 61/1/1 59/1/1 60/1/1
f 64/1/1 63/1/1 62/1/1
f 65/1/1 63/1/1 64/1/1
f 68/1/1 67/1/1 66/1/1
f 69/1/1 67/1/1 68/1/1
f 72/1/1 71/1/1 70/1/1
f 73/1/1 71/1/1 72/1/1
f 76/1/1 75/1/1 74/1/1
f 77/1/1 75/1/1 76/1/1
f 80/1/1 79/1/1 78/1/1
f 81/1/1 79/1/1 80/1/1
f 82/1/2 83/1/2 84/1/2
f 84/1/2 83/1/2 85/1/2
f 86/1/2 87/1/2 88/1/2
f 88/1/2 87/1/2 89/1/2
f 90/1/2 91/1/2 92/1/2
f 92/1/2 91/1/2 93/1/2
f 94/1/2 95/1/2 96/1/2
f 96/1/2 95/1/2 97/1/2
f 98/1/2 99/1/2 100/1/2
f 100/1/2 99/1/2 101/1/2
f 102/1/2 103/1/2 104/1/2
f 104/1/2 103/1/2 105/1/2
f 106/1/2 107/1/2 108/1/2
f 108/1/2 107/1/2 109/1/2
f 110/1/2 111/1/2 112/1/2
f 112/1/2 111/1/2 113/1/2
f 114/1/2 115/1/2 116/1/2
f 116/1/2 115/1/2 117/1/2
f 118/1/2 119/1/2 120/1/2
f 120/1/2 119/1/2 121/1/2
f 122/1/2 123/1/2 124/1/2
f 124/1/2 123/1/2 125/1/2
f 126/1/2 127/1/2 128/1/2
f 128/1/2 127/1/2 129/1/2
f 130/1/2 131/1/2 132/1/2
f 132/1/2 131/1/2 133/1/2
f 134/1/2 135/1/2 136/1/2
f 136/1/2 135/1/2 137/1/2
f 138/1/2 139/1/2 140/1/2
f 140/1/2 139/1/2 141/1/2
f 142/1/2 143/1/2 144/1/2
f 144/1/2 143/1/2 145/1/2
f 146/1/2 147/1/2 148/1/2
f 148/1/2 147/1/2 149/1/2
f 149/1/2 147/1/2 150/1/2
f 149/2/2 150/2/2 152/2/2
f 151/1/2 152/1/2 153/1/2
f 152/2/2 150/2/2 154/2/2
f 153/1/2 152/1/2 154/1/2
f 154/2/2 150/2/2 156/2/2
f 155/1/2 156/1/2 157/1/2
f 156/2/2 150/2/2 158/2/2
f 157/1/2 156/1/2 158/1/2
f 158/2/2 150/2/2 159/2/2
f 150/1/2 147/1/2 160/1/2
f 159/2/2 150/2/2 160/2/2
f 160/1/2 147/1/2 161/1/2
f 168/1/3 165/1/3 164/1/3
f 169/1/3 165/1/3 168/1/3
f 172/1/3 163/1/3 162/1/3
f 173/1/3 163/1/3 172/1/3
f 174/1/3 167/1/3 166/1/3
f 175/1/3 167/1/3 174/1/3
f 180/1/3 171/1/3 170/1/3
f 181/1/3 171/1/3 180/1/3
f 184/1/3 177/1/3 176/1/3
f 185/1/3 177/1/3 184/1/3
f 186/1/3 179/1/3 178/1/3
f 187/1/3 179/1/3 186/1/3
f 192/1/3 183/1/3 182/1/3
f 193/1/3 183/1/3 192/1/3
f 196/1/3 189/1/3 188/1/3
f 197/1/3 189/1/3 196/1/3
f 198/1/3 191/1/3 190/1/3
f 199/1/3 191/1/3 198/1/3
f 204/1/3 195/1/3 194/1/3
f 205/1/3 195/1/3 204/1/3
f 208/1/3 201/1/3 200/1/3
f 209/1/3 201/1/3 208/1/3
f 210/1/3 203/1/3 202/1/3
f 211/1/3 203/1/3 210/1/3
f 216/1/3 207/1/3 206/1/3
f 217/1/3 207/1/3 216/1/3
f 220/1/3 213/1/3 212/1/3
f 221/1/3 213/1/3 220/1/3
f 222/1/3 215/1/3 214/1/3
f 223/1/3 215/1/3 222/1/3
f 228/1/3 219/1/3 218/1/3
f 229/1/3 219/1/3 228/1/3
f 232/1/3 225/1/3 224/1/3
f 233/1/3 225/1/3 232/1/3
f 234/1/3 231/1/3 230/1/3
f 235/1/3 231/1/3 234/1/3
f 236/1/3 227/1/3 226/1/3
f 237/1/3 227/1/3 236/1/3
f 244/2/3 239/2/3 238/2/3
f 245/2/3 241/2/3 240/2/3
f 246/2/3 244/2/3 238/2/3
f 246/2/3 245/2/3 244/2/3
f 247/2/3 241/2/3 245/2/3
f 247/2/3 245/2/3 246/2/3
f 249/2/3 246/2/3 238/2/3
f 250/2/3 241/2/3 247/2/3
f 251/2/3 243/2/3 242/2/3
f 252/2/3 249/2/3 248/2/3
f 253/2/3 246/2/3 249/2/3
f 253/2/3 249/2/3 252/2/3
f 254/2/3 250/2/3 247/2/3
f 254/2/3 251/2/3 250/2/3
f 255/2/3 243/2/3 251/2/3
f 255/2/3 251/2/3 254/2/3
f 256/2/3 246/2/3 253/2/3
f 257/2/3 254/2/3 247/2/3
f 258/2/3 256/2/3 253/2/3
f 258/2/3 257/2/3 256/2/3
f 259/2/3 254/2/3 257/2/3
f 259/2/3 257/2/3 258/2/3
f 261/2/3 258/2/3 253/2/3
f 262/2/3 254/2/3 259/2/3
f 263/2/3 243/2/3 255/2/3
f 264/2/3 261/2/3 260/2/3
f 265/2/3 258/2/3 261/2/3
f 265/2/3 261/2/3 264/2/3
f 266/2/3 262/2/3 259/2/3
f 266/2/3 263/2/3 262/2/3
f 267/2/3 243/2/3 263/2/3
f 267/2/3 263/2/3 266/2/3
f 268/2/3 258/2/3 265/2/3
f 269/2/3 266/2/3 259/2/3
f 270/2/3 268/2/3 265/2/3
f 270/2/3 269/2/3 268/2/3
f 271/2/3 266/2/3 269/2/3
f 271/2/3 269/2/3 270/2/3
f 273/2/3 270/2/3 265/2/3
f 274/2/3 266/2/3 271/2/3
f 275/2/3 243/2/3 267/2/3
f 276/2/3 273/2/3 272/2/3
f 277/2/3 270/2/3 273/2/3
f 277/2/3 273/2/3 276/2/3
f 278/2/3 274/2/3 271/2/3
f 278/2/3 275/2/3 274/2/3
f 279/2/3 243/2/3 275/2/3
f 279/2/3 275/2/3 278/2/3
f 280/2/3 270/2/3 277/2/3
f 281/2/3 278/2/3 271/2/3
f 282/2/3 280/2/3 277/2/3
f 282/2/3 281/2/3 280/2/3
f 283/2/3 278/2/3 281/2/3
f 283/2/3 281/2/3 282/2/3
f 285/2/3 282/2/3 277/2/3
f 286/2/3 278/2/3 283/2/3
f 287/2/3 243/2/3 279/2/3
f 288/2/3 285/2/3 284/2/3
f 289/2/3 282/2/3 285/2/3
f 289/2/3 285/2/3 288/2/3
f 290/2/3 286/2/3 283/2/3
f 290/2/3 287/2/3 286/2/3
f 291/2/3 243/2/3 287/2/3
f 291/2/3 287/2/3 290/2/3
f 292/2/3 282/2/3 289/2/3
f 293/2/3 290/2/3 283/2/3
f 294/2/3 292/2/3 289/2/3
f 294/2/3 293/2/3 292/2/3
f 295/2/3 290/2/3 293/2/3
f 295/2/3 293/2/3 294/2/3
f 297/2/3 294/2/3 289/2/3
f 298/2/3 290/2/3 295/2/3
f 299/2/3 243/2/3 291/2/3
f 300/2/3 297/2/3 296/2/3
f 301/2/3 294/2/3 297/2/3
f 301/2/3 297/2/3 300/2/3
f 302/2/3 298/2/3 295/2/3
f 302/2/3 299/2/3 298/2/3
f 303/2/3 243/2/3 299/2/3
f 303/2/3 299/2/3 302/2/3
f 304/2/3 294/2/3 301/2/3
f 305/2/3 302/2/3 295/2/3
f 306/2/3 304/2/3 301/2/3
f 306/2/3 305/2/3 304/2/3
f 307/2/3 302/2/3 305/2/3
f 307/2/3 305/2/3 306/2/3
f 308/2/3 306/2/3 301/2/3
f 309/2/3 306/2/3 308/2/3
f 310/2/3 302/2/3 307/2/3
f 311/2/3 302/2/3 310/2/3
f 312/2/3 243/2/3 303/2/3
f 313/2/3 243/2/3 312/2/3
f 314/1/4 315/1/4 316/1/4
f 316/1/4 315/1/4 317/1/4
f 330/1/5 319/1/5 318/1/5
f 331/1/5 319/1/5 330/1/5
f 332/1/5 321/1/5 320/1/5
f 333/1/5 321/1/5 332/1/5
f 334/1/5 323/1/5 322/1/5
f 335/1/5 323/1/5 334/1/5
f 336/1/5 325/1/5 324/1/5
f 337/1/5 325/1/5 336/1/5
f 338/1/5 327/1/5 326/1/5
f 339/1/5 327/1/5 338/1/5
f 340/1/5 329/1/5 328/1/5
f 341/2/5 339/2/5 338/2/5
f 341/2/5 340/2/5 339/2/5
f 341/2/5 331/2/5 330/2/5
f 341/2/5 333/2/5 332/2/5
f 341/2/5 338/2/5 337/2/5
f 341/2/5 335/2/5 334/2/5
f 341/2/5 336/2/5 335/2/5
f 341/2/5 337/2/5 336/2/5
f 341/2/5 334/2/5 333/2/5
f 341/2/5 332/2/5 331/2/5
f 342/1/5 329/1/5 340/1/5
f 342/2/5 340/2/5 341/2/5
f 343/1/5 342/1/5 341/1/5
f 344/1/5 329/1/5 342/1/5
f 344/1/5 342/1/5 343/1/5
f 359/1/5 346/1/5 345/1/5
f 360/1/5 346/1/5 359/1/5
f 361/1/5 348/1/5 347/1/5
f 362/1/5 348/1/5 361/1/5
f 363/1/5 350/1/5 349/1/5
f 364/1/5 350/1/5 363/1/5
f 365/1/5 352/1/5 351/1/5
f 366/1/5 352/1/5 365/1/5
f 367/1/5 354/1/5 353/1/5
f 368/1/5 354/1/5 367/1/5
f 369/1/5 356/1/5 355/1/5
f 370/1/5 356/1/5 369/1/5
f 371/1/5 358/1/5 357/1/5
f 372/1/5 358/1/5 371/1/5
f 385/1/5 374/1/5 373/1/5
f 386/1/5 374/1/5 385/1/5
f 387/1/5 376/1/5 375/1/5
f 388/1/5 376/1/5 387/1/5
f 389/1/5 378/1/5 377/1/5
f 390/1/5 378/1/5 389/1/5
f 391/1/5 380/1/5 379/1/5
f 392/1/5 380/1/5 391/1/5
f 393/1/5 382/1/5 381/1/5
f 394/1/5 382/1/5 393/1/5
f 395/1/5 384/1/5 383/1/5
f 396/1/5 384/1/5 395/1/5
f 397/1/6 398/1/6 409/1/6
f 409/1/6 398/1/6 410/1/6
f 399/1/6 400/1/6 411/1/6
f 411/1/6 400/1/6 412/1/6
f 401/1/6 402/1/6 413/1/6
f 413/1/6 402/1/6 414/1/6
f 403/1/6 404/1/6 415/1/6
f 415/1/6 404/1/6 416/1/6
f 405/1/6 406/1/6 417/1/6
f 417/1/6 406/1/6 418/1/6
f 407/1/6 408/1/6 419/1/6
f 419/1/6 408/1/6 420/1/6
f 421/1/6 422/1/6 435/1/6
f 435/1/6 422/1/6 436/1/6
f 423/1/6 424/1/6 437/1/6
f 437/1/6 424/1/6 438/1/6
f 425/1/6 426/1/6 439/1/6
f 439/1/6 426/1/6 440/1/6
f 427/1/6 428/1/6 441/1/6
f 441/1/6 428/1/6 442/1/6
f 429/1/6 430/1/6 443/1/6
f 443/1/6 430/1/6 444/1/6
f 431/1/6 432/1/6 445/1/6
f 445/1/6 432/1/6 446/1/6
f 433/1/6 434/1/6 447/1/6
f 447/1/6 434/1/6 448/1/6
f 449/1/6 450/1/6 461/1/6
f 461/1/6 450/1/6 462/1/6
f 451/1/6 452/1/6 463/1/6
f 463/1/6 452/1/6 464/1/6
f 453/1/6 454/1/6 465/1/6
f 465/1/6 454/1/6 466/1/6
f 455/1/6 456/1/6 467/1/6
f 467/1/6 456/1/6 468/1/6
f 457/1/6 458/1/6 469/1/6
f 469/1/6 458/1/6 470/1/6
f 459/1/6 460/1/6 471/1/6
f 471/1/6 460/1/6 472/1/6
f 473/2/6 474/2/6 475/2/6
f 475/2/6 474/2/6 476/2/6
f 475/1/6 476/1/6 477/1/6
f 477/1/6 476/1/6 478/1/6
