# MagicaVoxel @ Ephtracy

# group
o 

# material
mtllib Armor01F1.mtl
usemtl palette

# normals
vn -1 0 0
vn 1 0 0
vn 0 0 1
vn 0 0 -1
vn 0 -1 0
vn 0 1 0

# texcoords
vt 0.888672 0.5
vt 0.931641 0.5
vt 0.935547 0.5
vt 0.939453 0.5
vt 0.962891 0.5
vt 0.966797 0.5

# verts
v 1.9 1.6 -0.6
v 1.9 1.6 -7.8
v 1.9 1.7 -0.7
v 1.9 1.7 -7.7
v 1.9 3.9 -0.7
v 1.9 3.9 -4.3
v 1.9 4 -0.6
v 1.9 4 -4.2
v 1.9 9 -4.3
v 1.9 9 -7.7
v 1.9 9.1 -4.2
v 1.9 9.1 -7.8
v 2.2 1.3 -0.3
v 2.2 1.3 -8.1
v 2.2 1.4 -0.4
v 2.2 1.4 -8
v 2.2 1.6 -0.6
v 2.2 1.6 -7.7
v 2.2 1.6 -7.8
v 2.2 1.7 -7.8
v 2.2 4 -0.6
v 2.2 4 -4.2
v 2.2 4.2 -0.4
v 2.2 4.2 -4
v 2.2 4.3 -0.3
v 2.2 4.3 -3.9
v 2.2 9 -4
v 2.2 9 -4.2
v 2.2 9 -7.8
v 2.2 9 -8
v 2.2 9.1 -3.9
v 2.2 9.1 -4.2
v 2.2 9.1 -7.8
v 2.2 9.1 -8.1
v 2.2 9.3 -4.2
v 2.2 9.3 -7.8
v 2.2 9.4 -4.2
v 2.2 9.4 -7.8
v 2.5 1 -0.3
v 2.5 1 -7.8
v 2.5 1.1 -0.3
v 2.5 1.1 -7.8
v 2.5 1.3 0
v 2.5 1.3 -0.1
v 2.5 1.3 -0.3
v 2.5 1.3 -7.8
v 2.5 1.6 -8.1
v 2.5 1.6 -8.4
v 2.5 1.7 -8.1
v 2.5 1.7 -8.3
v 2.5 4 0
v 2.5 4 -0.1
v 2.5 4 -0.3
v 2.5 4.3 -0.6
v 2.5 4.3 -3.9
v 2.5 4.5 -0.6
v 2.5 4.5 -3.7
v 2.5 4.6 -0.6
v 2.5 4.6 -3.6
v 2.5 9.1 -3.6
v 2.5 9.1 -3.7
v 2.5 9.1 -3.9
v 2.5 9.1 -4.2
v 2.5 9.1 -7.8
v 2.5 9.1 -8.1
v 2.5 9.1 -8.3
v 2.5 9.1 -8.4
v 2.5 9.3 -3.9
v 2.5 9.3 -4.2
v 2.5 9.3 -7.8
v 2.5 9.3 -8.1
v 2.5 9.4 -3.9
v 2.5 9.4 -4.2
v 2.5 9.4 -7.8
v 2.5 9.4 -8.1
v 6.1 1 -0.3
v 6.1 1 -7.8
v 6.1 1.1 -0.3
v 6.1 1.1 -7.8
v 6.1 1.3 0
v 6.1 1.3 -0.1
v 6.1 1.3 -0.3
v 6.1 1.3 -0.4
v 6.1 1.3 -7.8
v 6.1 1.6 -8.1
v 6.1 1.6 -8.4
v 6.1 1.7 -8.1
v 6.1 1.7 -8.3
v 6.1 4 0
v 6.1 4 -0.1
v 6.1 4 -0.3
v 6.1 4.3 -0.6
v 6.1 4.3 -3.9
v 6.1 4.5 -0.6
v 6.1 4.5 -3.7
v 6.1 4.6 -0.6
v 6.1 4.6 -3.6
v 6.1 9.1 -3.6
v 6.1 9.1 -3.7
v 6.1 9.1 -3.9
v 6.1 9.1 -4.2
v 6.1 9.1 -7.8
v 6.1 9.1 -8.1
v 6.1 9.1 -8.3
v 6.1 9.1 -8.4
v 6.1 9.3 -3.9
v 6.1 9.3 -4.2
v 6.1 9.3 -7.8
v 6.1 9.3 -8.1
v 6.1 9.4 -3.9
v 6.1 9.4 -4.2
v 6.1 9.4 -7.8
v 6.1 9.4 -8.1
v 6.4 1.3 -0.3
v 6.4 1.3 -8.1
v 6.4 1.4 -0.4
v 6.4 1.4 -8
v 6.4 1.6 -0.4
v 6.4 1.6 -0.6
v 6.4 1.6 -7.7
v 6.4 1.6 -7.8
v 6.4 1.6 -8
v 6.4 1.7 -7.8
v 6.4 4 -0.6
v 6.4 4 -4.2
v 6.4 4.2 -0.4
v 6.4 4.2 -4
v 6.4 4.3 -0.3
v 6.4 4.3 -3.9
v 6.4 9 -4
v 6.4 9 -4.2
v 6.4 9 -7.8
v 6.4 9 -8
v 6.4 9.1 -3.9
v 6.4 9.1 -4.2
v 6.4 9.1 -7.8
v 6.4 9.1 -8.1
v 6.4 9.3 -4.2
v 6.4 9.3 -7.8
v 6.4 9.4 -4.2
v 6.4 9.4 -7.8
v 6.7 1.6 -0.6
v 6.7 1.6 -7.8
v 6.7 1.7 -0.7
v 6.7 1.7 -7.7
v 6.7 3.9 -0.7
v 6.7 3.9 -4.3
v 6.7 4 -0.6
v 6.7 4 -4.2
v 6.7 9 -4.3
v 6.7 9 -7.7
v 6.7 9.1 -4.2
v 6.7 9.1 -7.8
v 2.5 1.3 0
v 2.5 4 0
v 2.6 1.4 0
v 2.6 3.9 0
v 3.1 1.4 0
v 3.1 3.9 0
v 5.5 1.4 0
v 5.5 3.9 0
v 6 1.4 0
v 6 3.9 0
v 6.1 1.3 0
v 6.1 4 0
v 2.2 1.3 -0.3
v 2.2 4.3 -0.3
v 2.3 1.3 -0.3
v 2.3 4.2 -0.3
v 2.5 1 -0.3
v 2.5 1.1 -0.3
v 2.5 1.3 -0.3
v 2.5 4 -0.3
v 3.1 1.1 -0.3
v 3.1 1.3 -0.3
v 3.1 4 -0.3
v 5.5 1.1 -0.3
v 5.5 1.3 -0.3
v 5.5 4 -0.3
v 5.5 4.2 -0.3
v 6.1 1 -0.3
v 6.1 1.1 -0.3
v 6.1 1.3 -0.3
v 6.1 4 -0.3
v 6.3 1.3 -0.3
v 6.3 4.2 -0.3
v 6.4 1.3 -0.3
v 6.4 4.3 -0.3
v 1.9 1.6 -0.6
v 1.9 4 -0.6
v 2 1.6 -0.6
v 2 4 -0.6
v 2.2 1.6 -0.6
v 2.2 4 -0.6
v 2.5 4.3 -0.6
v 2.5 4.5 -0.6
v 2.5 4.6 -0.6
v 3.1 4.3 -0.6
v 3.1 4.5 -0.6
v 5.5 4.3 -0.6
v 5.5 4.5 -0.6
v 6.1 4.3 -0.6
v 6.1 4.5 -0.6
v 6.1 4.6 -0.6
v 6.4 1.6 -0.6
v 6.4 4 -0.6
v 6.6 1.6 -0.6
v 6.6 4 -0.6
v 6.7 1.6 -0.6
v 6.7 4 -0.6
v 2.5 4.6 -3.6
v 2.5 9.1 -3.6
v 2.6 4.6 -3.6
v 2.6 9 -3.6
v 3.1 4.6 -3.6
v 3.1 9 -3.6
v 4.9 4.6 -3.6
v 4.9 5.2 -3.6
v 4.9 8.8 -3.6
v 5.5 4.6 -3.6
v 5.5 5.2 -3.6
v 5.5 8.8 -3.6
v 5.5 9 -3.6
v 6 4.6 -3.6
v 6 9 -3.6
v 6.1 4.6 -3.6
v 6.1 9.1 -3.6
v 2.2 4.3 -3.9
v 2.2 9.1 -3.9
v 2.3 4.3 -3.9
v 2.3 9.1 -3.9
v 2.5 4.3 -3.9
v 2.5 9.1 -3.9
v 2.5 9.3 -3.9
v 2.5 9.4 -3.9
v 3.1 9.1 -3.9
v 3.1 9.3 -3.9
v 5.5 9.1 -3.9
v 5.5 9.3 -3.9
v 6.1 4.3 -3.9
v 6.1 9.1 -3.9
v 6.1 9.3 -3.9
v 6.1 9.4 -3.9
v 6.3 4.3 -3.9
v 6.3 9.1 -3.9
v 6.4 4.3 -3.9
v 6.4 9.1 -3.9
v 1.9 4 -4.2
v 1.9 9.1 -4.2
v 2 4 -4.2
v 2 9.1 -4.2
v 2.2 4 -4.2
v 2.2 9 -4.2
v 2.2 9.1 -4.2
v 2.2 9.3 -4.2
v 2.2 9.4 -4.2
v 2.3 9.1 -4.2
v 2.5 9.1 -4.2
v 2.5 9.3 -4.2
v 2.5 9.4 -4.2
v 6.1 9.1 -4.2
v 6.1 9.3 -4.2
v 6.1 9.4 -4.2
v 6.3 9.1 -4.2
v 6.4 4 -4.2
v 6.4 9 -4.2
v 6.4 9.1 -4.2
v 6.4 9.3 -4.2
v 6.4 9.4 -4.2
v 6.6 4 -4.2
v 6.6 9.1 -4.2
v 6.7 4 -4.2
v 6.7 9.1 -4.2
v 1.9 1.6 -7.8
v 1.9 9.1 -7.8
v 2 1.7 -7.8
v 2 9.1 -7.8
v 2.2 1.6 -7.8
v 2.2 1.7 -7.8
v 2.2 9 -7.8
v 2.2 9.1 -7.8
v 2.2 9.3 -7.8
v 2.2 9.4 -7.8
v 2.3 9.1 -7.8
v 2.5 1 -7.8
v 2.5 1.1 -7.8
v 2.5 1.3 -7.8
v 2.5 9.1 -7.8
v 2.5 9.3 -7.8
v 2.5 9.4 -7.8
v 3.1 1.1 -7.8
v 3.1 1.3 -7.8
v 5.5 1.1 -7.8
v 5.5 1.3 -7.8
v 6.1 1 -7.8
v 6.1 1.1 -7.8
v 6.1 1.3 -7.8
v 6.1 9.1 -7.8
v 6.1 9.3 -7.8
v 6.1 9.4 -7.8
v 6.3 9.1 -7.8
v 6.4 1.6 -7.8
v 6.4 1.7 -7.8
v 6.4 9 -7.8
v 6.4 9.1 -7.8
v 6.4 9.3 -7.8
v 6.4 9.4 -7.8
v 6.6 1.7 -7.8
v 6.6 9.1 -7.8
v 6.7 1.6 -7.8
v 6.7 9.1 -7.8
v 2.2 1.3 -8.1
v 2.2 9.1 -8.1
v 2.3 1.4 -8.1
v 2.3 9.1 -8.1
v 2.5 1.6 -8.1
v 2.5 1.7 -8.1
v 2.5 9.1 -8.1
v 2.5 9.3 -8.1
v 2.5 9.4 -8.1
v 2.6 1.6 -8.1
v 3.1 1.6 -8.1
v 3.1 9.1 -8.1
v 3.1 9.3 -8.1
v 5.5 1.4 -8.1
v 5.5 1.6 -8.1
v 5.5 9.1 -8.1
v 5.5 9.3 -8.1
v 6 1.6 -8.1
v 6.1 1.6 -8.1
v 6.1 1.7 -8.1
v 6.1 9.1 -8.1
v 6.1 9.3 -8.1
v 6.1 9.4 -8.1
v 6.3 1.4 -8.1
v 6.3 9.1 -8.1
v 6.4 1.3 -8.1
v 6.4 9.1 -8.1
v 2.5 1.6 -8.4
v 2.5 9.1 -8.4
v 2.6 1.7 -8.4
v 2.6 9 -8.4
v 3.1 1.7 -8.4
v 3.1 9 -8.4
v 5.5 1.7 -8.4
v 5.5 9 -8.4
v 6 1.7 -8.4
v 6 9 -8.4
v 6.1 1.6 -8.4
v 6.1 9.1 -8.4
v 2.5 1 -0.3
v 6.1 1 -0.3
v 2.6 1 -0.4
v 3.1 1 -0.4
v 5.5 1 -0.4
v 6 1 -0.4
v 2.6 1 -7.7
v 3.1 1 -7.7
v 5.5 1 -7.7
v 6 1 -7.7
v 2.5 1 -7.8
v 6.1 1 -7.8
v 2.5 1.3 0
v 6.1 1.3 0
v 2.5 1.3 -0.1
v 3.1 1.3 -0.1
v 5.5 1.3 -0.1
v 6.1 1.3 -0.1
v 2.2 1.3 -0.3
v 2.3 1.3 -0.3
v 2.5 1.3 -0.3
v 3.1 1.3 -0.3
v 5.5 1.3 -0.3
v 6.1 1.3 -0.3
v 6.3 1.3 -0.3
v 6.4 1.3 -0.3
v 6.1 1.3 -0.4
v 6.3 1.3 -0.4
v 2.5 1.3 -7.8
v 3.1 1.3 -7.8
v 5.5 1.3 -7.8
v 6.1 1.3 -7.8
v 2.3 1.3 -8
v 6.3 1.3 -8
v 2.2 1.3 -8.1
v 6.4 1.3 -8.1
v 1.9 1.6 -0.6
v 2 1.6 -0.6
v 2.2 1.6 -0.6
v 6.4 1.6 -0.6
v 6.6 1.6 -0.6
v 6.7 1.6 -0.6
v 2 1.6 -7.7
v 2.2 1.6 -7.7
v 6.4 1.6 -7.7
v 6.6 1.6 -7.7
v 1.9 1.6 -7.8
v 2.2 1.6 -7.8
v 6.4 1.6 -7.8
v 6.7 1.6 -7.8
v 2.5 1.6 -8.1
v 2.6 1.6 -8.1
v 3.1 1.6 -8.1
v 5.5 1.6 -8.1
v 6 1.6 -8.1
v 6.1 1.6 -8.1
v 2.6 1.6 -8.3
v 3.1 1.6 -8.3
v 5.5 1.6 -8.3
v 6 1.6 -8.3
v 2.5 1.6 -8.4
v 6.1 1.6 -8.4
v 2.5 4 0
v 6.1 4 0
v 2.5 4 -0.1
v 3.1 4 -0.1
v 5.5 4 -0.1
v 6.1 4 -0.1
v 2.5 4 -0.3
v 3.1 4 -0.3
v 5.5 4 -0.3
v 6.1 4 -0.3
v 1.9 4 -0.6
v 2 4 -0.6
v 2.2 4 -0.6
v 6.4 4 -0.6
v 6.6 4 -0.6
v 6.7 4 -0.6
v 1.9 4 -4.2
v 2 4 -4.2
v 2.2 4 -4.2
v 6.4 4 -4.2
v 6.6 4 -4.2
v 6.7 4 -4.2
v 2.2 4.3 -0.3
v 6.4 4.3 -0.3
v 2.3 4.3 -0.4
v 5.5 4.3 -0.4
v 6.3 4.3 -0.4
v 2.5 4.3 -0.6
v 3.1 4.3 -0.6
v 5.5 4.3 -0.6
v 6.1 4.3 -0.6
v 2.2 4.3 -3.9
v 2.3 4.3 -3.9
v 2.5 4.3 -3.9
v 6.1 4.3 -3.9
v 6.3 4.3 -3.9
v 6.4 4.3 -3.9
v 2.5 4.6 -0.6
v 6.1 4.6 -0.6
v 2.6 4.6 -0.7
v 3.1 4.6 -0.7
v 5.5 4.6 -0.7
v 6 4.6 -0.7
v 4.9 4.6 -1.2
v 5.5 4.6 -1.2
v 2.5 4.6 -3.6
v 2.6 4.6 -3.6
v 3.1 4.6 -3.6
v 4.9 4.6 -3.6
v 5.5 4.6 -3.6
v 6 4.6 -3.6
v 6.1 4.6 -3.6
v 2.5 9.1 -3.6
v 6.1 9.1 -3.6
v 2.5 9.1 -3.7
v 3.1 9.1 -3.7
v 5.5 9.1 -3.7
v 6.1 9.1 -3.7
v 2.2 9.1 -3.9
v 2.3 9.1 -3.9
v 2.5 9.1 -3.9
v 3.1 9.1 -3.9
v 5.5 9.1 -3.9
v 6.1 9.1 -3.9
v 6.3 9.1 -3.9
v 6.4 9.1 -3.9
v 1.9 9.1 -4.2
v 2 9.1 -4.2
v 2.2 9.1 -4.2
v 2.3 9.1 -4.2
v 2.5 9.1 -4.2
v 6.1 9.1 -4.2
v 6.3 9.1 -4.2
v 6.4 9.1 -4.2
v 6.6 9.1 -4.2
v 6.7 9.1 -4.2
v 1.9 9.1 -7.8
v 2 9.1 -7.8
v 2.2 9.1 -7.8
v 2.3 9.1 -7.8
v 2.5 9.1 -7.8
v 6.1 9.1 -7.8
v 6.3 9.1 -7.8
v 6.4 9.1 -7.8
v 6.6 9.1 -7.8
v 6.7 9.1 -7.8
v 2.2 9.1 -8.1
v 2.3 9.1 -8.1
v 2.5 9.1 -8.1
v 3.1 9.1 -8.1
v 5.5 9.1 -8.1
v 6.1 9.1 -8.1
v 6.3 9.1 -8.1
v 6.4 9.1 -8.1
v 2.5 9.1 -8.3
v 3.1 9.1 -8.3
v 5.5 9.1 -8.3
v 6.1 9.1 -8.3
v 2.5 9.1 -8.4
v 6.1 9.1 -8.4
v 2.5 9.4 -3.9
v 6.1 9.4 -3.9
v 2.6 9.4 -4
v 3.1 9.4 -4
v 5.5 9.4 -4
v 6 9.4 -4
v 2.2 9.4 -4.2
v 2.5 9.4 -4.2
v 3.1 9.4 -4.2
v 5.5 9.4 -4.2
v 6.1 9.4 -4.2
v 6.4 9.4 -4.2
v 2.3 9.4 -4.3
v 2.6 9.4 -4.3
v 6 9.4 -4.3
v 6.3 9.4 -4.3
v 2.3 9.4 -7.7
v 2.6 9.4 -7.7
v 6 9.4 -7.7
v 6.3 9.4 -7.7
v 2.2 9.4 -7.8
v 2.5 9.4 -7.8
v 3.1 9.4 -7.8
v 5.5 9.4 -7.8
v 6.1 9.4 -7.8
v 6.4 9.4 -7.8
v 2.6 9.4 -8
v 3.1 9.4 -8
v 5.5 9.4 -8
v 6 9.4 -8
v 2.5 9.4 -8.1
v 6.1 9.4 -8.1

# faces
f 3/4/1 2/4/1 1/4/1
f 4/4/1 2/4/1 3/4/1
f 5/4/1 3/4/1 1/4/1
f 5/2/1 4/2/1 3/2/1
f 6/2/1 4/2/1 5/2/1
f 7/4/1 5/4/1 1/4/1
f 7/4/1 6/4/1 5/4/1
f 8/4/1 6/4/1 7/4/1
f 9/2/1 4/2/1 6/2/1
f 9/4/1 6/4/1 8/4/1
f 10/4/1 2/4/1 4/4/1
f 10/2/1 4/2/1 9/2/1
f 11/4/1 9/4/1 8/4/1
f 11/4/1 10/4/1 9/4/1
f 12/4/1 2/4/1 10/4/1
f 12/4/1 10/4/1 11/4/1
f 15/4/1 14/4/1 13/4/1
f 16/4/1 14/4/1 15/4/1
f 17/2/1 16/2/1 15/2/1
f 18/2/1 16/2/1 17/2/1
f 19/2/1 16/2/1 18/2/1
f 20/2/1 16/2/1 19/2/1
f 21/2/1 17/2/1 15/2/1
f 23/4/1 15/4/1 13/4/1
f 23/2/1 22/2/1 21/2/1
f 23/2/1 21/2/1 15/2/1
f 24/2/1 22/2/1 23/2/1
f 25/4/1 23/4/1 13/4/1
f 25/4/1 24/4/1 23/4/1
f 26/4/1 24/4/1 25/4/1
f 27/2/1 22/2/1 24/2/1
f 27/4/1 24/4/1 26/4/1
f 28/2/1 22/2/1 27/2/1
f 29/2/1 16/2/1 20/2/1
f 30/4/1 14/4/1 16/4/1
f 30/2/1 16/2/1 29/2/1
f 31/4/1 28/4/1 27/4/1
f 31/4/1 27/4/1 26/4/1
f 32/4/1 28/4/1 31/4/1
f 33/4/1 30/4/1 29/4/1
f 34/4/1 14/4/1 30/4/1
f 34/4/1 30/4/1 33/4/1
f 35/2/1 33/2/1 32/2/1
f 36/2/1 33/2/1 35/2/1
f 37/4/1 36/4/1 35/4/1
f 38/4/1 36/4/1 37/4/1
f 41/4/1 40/4/1 39/4/1
f 42/4/1 40/4/1 41/4/1
f 45/2/1 42/2/1 41/2/1
f 46/2/1 42/2/1 45/2/1
f 49/4/1 48/4/1 47/4/1
f 50/4/1 48/4/1 49/4/1
f 51/4/1 44/4/1 43/4/1
f 52/2/1 45/2/1 44/2/1
f 52/4/1 44/4/1 51/4/1
f 53/2/1 45/2/1 52/2/1
f 56/2/1 55/2/1 54/2/1
f 57/2/1 55/2/1 56/2/1
f 58/4/1 57/4/1 56/4/1
f 59/4/1 57/4/1 58/4/1
f 60/4/1 57/4/1 59/4/1
f 61/2/1 55/2/1 57/2/1
f 61/4/1 57/4/1 60/4/1
f 62/2/1 55/2/1 61/2/1
f 65/2/1 50/2/1 49/2/1
f 66/4/1 48/4/1 50/4/1
f 66/2/1 50/2/1 65/2/1
f 67/4/1 48/4/1 66/4/1
f 68/2/1 63/2/1 62/2/1
f 69/2/1 63/2/1 68/2/1
f 70/2/1 65/2/1 64/2/1
f 71/2/1 65/2/1 70/2/1
f 72/4/1 69/4/1 68/4/1
f 73/4/1 69/4/1 72/4/1
f 74/4/1 71/4/1 70/4/1
f 75/4/1 71/4/1 74/4/1
f 76/4/2 77/4/2 78/4/2
f 78/4/2 77/4/2 79/4/2
f 78/6/2 79/6/2 82/6/2
f 82/6/2 79/6/2 83/6/2
f 83/6/2 79/6/2 84/6/2
f 85/4/2 86/4/2 87/4/2
f 87/4/2 86/4/2 88/4/2
f 80/4/2 81/4/2 89/4/2
f 81/6/2 82/6/2 90/6/2
f 89/4/2 81/4/2 90/4/2
f 90/6/2 82/6/2 91/6/2
f 92/6/2 93/6/2 94/6/2
f 94/6/2 93/6/2 95/6/2
f 94/4/2 95/4/2 96/4/2
f 96/4/2 95/4/2 97/4/2
f 97/4/2 95/4/2 98/4/2
f 95/6/2 93/6/2 99/6/2
f 98/4/2 95/4/2 99/4/2
f 99/6/2 93/6/2 100/6/2
f 87/6/2 88/6/2 103/6/2
f 88/4/2 86/4/2 104/4/2
f 103/6/2 88/6/2 104/6/2
f 104/4/2 86/4/2 105/4/2
f 100/6/2 101/6/2 106/6/2
f 106/6/2 101/6/2 107/6/2
f 102/6/2 103/6/2 108/6/2
f 108/6/2 103/6/2 109/6/2
f 106/4/2 107/4/2 110/4/2
f 110/4/2 107/4/2 111/4/2
f 108/4/2 109/4/2 112/4/2
f 112/4/2 109/4/2 113/4/2
f 114/4/2 115/4/2 116/4/2
f 116/4/2 115/4/2 117/4/2
f 114/4/2 116/4/2 118/4/2
f 116/6/2 117/6/2 118/6/2
f 118/6/2 117/6/2 119/6/2
f 119/6/2 117/6/2 120/6/2
f 120/6/2 117/6/2 121/6/2
f 117/4/2 115/4/2 122/4/2
f 121/6/2 117/6/2 122/6/2
f 121/2/2 122/2/2 123/2/2
f 118/2/2 119/2/2 124/2/2
f 114/4/2 118/4/2 126/4/2
f 124/2/2 125/2/2 126/2/2
f 118/2/2 124/2/2 126/2/2
f 126/2/2 125/2/2 127/2/2
f 114/4/2 126/4/2 128/4/2
f 126/4/2 127/4/2 128/4/2
f 128/4/2 127/4/2 129/4/2
f 127/2/2 125/2/2 130/2/2
f 129/4/2 127/4/2 130/4/2
f 130/2/2 125/2/2 131/2/2
f 123/2/2 122/2/2 132/2/2
f 122/4/2 115/4/2 133/4/2
f 132/2/2 122/2/2 133/2/2
f 130/4/2 131/4/2 134/4/2
f 129/4/2 130/4/2 134/4/2
f 134/4/2 131/4/2 135/4/2
f 132/4/2 133/4/2 136/4/2
f 133/4/2 115/4/2 137/4/2
f 136/4/2 133/4/2 137/4/2
f 135/6/2 136/6/2 138/6/2
f 138/6/2 136/6/2 139/6/2
f 138/4/2 139/4/2 140/4/2
f 140/4/2 139/4/2 141/4/2
f 142/4/2 143/4/2 144/4/2
f 144/4/2 143/4/2 145/4/2
f 142/4/2 144/4/2 146/4/2
f 144/6/2 145/6/2 146/6/2
f 146/6/2 145/6/2 147/6/2
f 142/4/2 146/4/2 148/4/2
f 146/4/2 147/4/2 148/4/2
f 148/4/2 147/4/2 149/4/2
f 147/6/2 145/6/2 150/6/2
f 149/4/2 147/4/2 150/4/2
f 145/4/2 143/4/2 151/4/2
f 150/6/2 145/6/2 151/6/2
f 149/4/2 150/4/2 152/4/2
f 150/4/2 151/4/2 152/4/2
f 151/4/2 143/4/2 153/4/2
f 152/4/2 151/4/2 153/4/2
f 156/4/3 155/4/3 154/4/3
f 157/4/3 155/4/3 156/4/3
f 158/4/3 156/4/3 154/4/3
f 158/2/3 157/2/3 156/2/3
f 159/4/3 155/4/3 157/4/3
f 159/2/3 157/2/3 158/2/3
f 160/4/3 158/4/3 154/4/3
f 160/3/3 159/3/3 158/3/3
f 161/4/3 155/4/3 159/4/3
f 161/3/3 159/3/3 160/3/3
f 162/4/3 160/4/3 154/4/3
f 162/6/3 161/6/3 160/6/3
f 163/4/3 155/4/3 161/4/3
f 163/6/3 161/6/3 162/6/3
f 164/4/3 162/4/3 154/4/3
f 164/4/3 163/4/3 162/4/3
f 165/4/3 155/4/3 163/4/3
f 165/4/3 163/4/3 164/4/3
f 168/4/3 167/4/3 166/4/3
f 169/4/3 167/4/3 168/4/3
f 172/2/3 169/2/3 168/2/3
f 173/2/3 169/2/3 172/2/3
f 174/4/3 171/4/3 170/4/3
f 174/2/3 172/2/3 171/2/3
f 175/2/3 172/2/3 174/2/3
f 176/2/3 169/2/3 173/2/3
f 177/3/3 175/3/3 174/3/3
f 177/4/3 174/4/3 170/4/3
f 178/3/3 175/3/3 177/3/3
f 179/2/3 169/2/3 176/2/3
f 180/4/3 167/4/3 169/4/3
f 180/2/3 169/2/3 179/2/3
f 181/4/3 177/4/3 170/4/3
f 182/6/3 178/6/3 177/6/3
f 182/4/3 177/4/3 181/4/3
f 183/6/3 178/6/3 182/6/3
f 184/6/3 180/6/3 179/6/3
f 185/6/3 184/6/3 183/6/3
f 186/4/3 167/4/3 180/4/3
f 186/6/3 184/6/3 185/6/3
f 186/6/3 180/6/3 184/6/3
f 187/4/3 186/4/3 185/4/3
f 188/4/3 167/4/3 186/4/3
f 188/4/3 186/4/3 187/4/3
f 191/4/3 190/4/3 189/4/3
f 192/4/3 190/4/3 191/4/3
f 193/2/3 192/2/3 191/2/3
f 194/2/3 192/2/3 193/2/3
f 198/2/3 196/2/3 195/2/3
f 199/4/3 197/4/3 196/4/3
f 199/2/3 196/2/3 198/2/3
f 200/3/3 199/3/3 198/3/3
f 201/4/3 197/4/3 199/4/3
f 201/3/3 199/3/3 200/3/3
f 202/6/3 201/6/3 200/6/3
f 203/4/3 197/4/3 201/4/3
f 203/6/3 201/6/3 202/6/3
f 204/4/3 197/4/3 203/4/3
f 207/6/3 206/6/3 205/6/3
f 208/6/3 206/6/3 207/6/3
f 209/4/3 208/4/3 207/4/3
f 210/4/3 208/4/3 209/4/3
f 213/4/3 212/4/3 211/4/3
f 214/4/3 212/4/3 213/4/3
f 215/2/3 214/2/3 213/2/3
f 216/4/3 212/4/3 214/4/3
f 216/2/3 214/2/3 215/2/3
f 217/3/3 216/3/3 215/3/3
f 218/3/3 216/3/3 217/3/3
f 219/3/3 216/3/3 218/3/3
f 220/3/3 218/3/3 217/3/3
f 221/5/3 219/5/3 218/5/3
f 221/3/3 218/3/3 220/3/3
f 222/3/3 216/3/3 219/3/3
f 222/5/3 219/5/3 221/5/3
f 223/4/3 212/4/3 216/4/3
f 223/3/3 216/3/3 222/3/3
f 224/6/3 222/6/3 221/6/3
f 224/6/3 221/6/3 220/6/3
f 224/6/3 223/6/3 222/6/3
f 225/4/3 212/4/3 223/4/3
f 225/6/3 223/6/3 224/6/3
f 226/4/3 225/4/3 224/4/3
f 227/4/3 212/4/3 225/4/3
f 227/4/3 225/4/3 226/4/3
f 230/4/3 229/4/3 228/4/3
f 231/4/3 229/4/3 230/4/3
f 232/2/3 231/2/3 230/2/3
f 233/2/3 231/2/3 232/2/3
f 236/2/3 234/2/3 233/2/3
f 237/4/3 235/4/3 234/4/3
f 237/2/3 234/2/3 236/2/3
f 238/3/3 237/3/3 236/3/3
f 239/4/3 235/4/3 237/4/3
f 239/3/3 237/3/3 238/3/3
f 241/6/3 239/6/3 238/6/3
f 242/4/3 235/4/3 239/4/3
f 242/6/3 239/6/3 241/6/3
f 243/4/3 235/4/3 242/4/3
f 244/6/3 241/6/3 240/6/3
f 245/6/3 241/6/3 244/6/3
f 246/4/3 245/4/3 244/4/3
f 247/4/3 245/4/3 246/4/3
f 250/4/3 249/4/3 248/4/3
f 251/4/3 249/4/3 250/4/3
f 252/2/3 251/2/3 250/2/3
f 253/2/3 251/2/3 252/2/3
f 254/2/3 251/2/3 253/2/3
f 257/2/3 255/2/3 254/2/3
f 258/2/3 255/2/3 257/2/3
f 259/4/3 256/4/3 255/4/3
f 259/2/3 255/2/3 258/2/3
f 260/4/3 256/4/3 259/4/3
f 264/6/3 262/6/3 261/6/3
f 267/6/3 262/6/3 264/6/3
f 268/4/3 263/4/3 262/4/3
f 268/6/3 262/6/3 267/6/3
f 269/4/3 263/4/3 268/4/3
f 270/6/3 267/6/3 266/6/3
f 270/6/3 266/6/3 265/6/3
f 271/6/3 267/6/3 270/6/3
f 272/4/3 271/4/3 270/4/3
f 273/4/3 271/4/3 272/4/3
f 274/4/4 275/4/4 276/4/4
f 276/4/4 275/4/4 277/4/4
f 274/4/4 276/4/4 278/4/4
f 276/2/4 277/2/4 279/2/4
f 278/4/4 276/4/4 279/4/4
f 279/2/4 277/2/4 280/2/4
f 280/2/4 277/2/4 281/2/4
f 281/2/4 282/2/4 284/2/4
f 284/2/4 282/2/4 288/2/4
f 282/4/4 283/4/4 289/4/4
f 288/2/4 282/2/4 289/2/4
f 289/4/4 283/4/4 290/4/4
f 286/2/4 287/2/4 291/2/4
f 285/4/4 286/4/4 291/4/4
f 291/2/4 287/2/4 292/2/4
f 285/4/4 291/4/4 293/4/4
f 291/3/4 292/3/4 293/3/4
f 293/3/4 292/3/4 294/3/4
f 285/4/4 293/4/4 295/4/4
f 293/6/4 294/6/4 296/6/4
f 295/4/4 293/4/4 296/4/4
f 296/6/4 294/6/4 297/6/4
f 298/6/4 299/6/4 301/6/4
f 301/6/4 299/6/4 305/6/4
f 299/4/4 300/4/4 306/4/4
f 305/6/4 299/6/4 306/6/4
f 306/4/4 300/4/4 307/4/4
f 304/6/4 305/6/4 308/6/4
f 303/6/4 304/6/4 308/6/4
f 302/4/4 303/4/4 308/4/4
f 308/6/4 305/6/4 309/6/4
f 302/4/4 308/4/4 310/4/4
f 308/4/4 309/4/4 310/4/4
f 310/4/4 309/4/4 311/4/4
f 312/4/4 313/4/4 314/4/4
f 314/4/4 313/4/4 315/4/4
f 314/2/4 315/2/4 316/2/4
f 316/2/4 315/2/4 317/2/4
f 317/2/4 315/2/4 318/2/4
f 314/2/4 316/2/4 321/2/4
f 314/2/4 321/2/4 322/2/4
f 318/2/4 319/2/4 323/2/4
f 319/4/4 320/4/4 324/4/4
f 323/2/4 319/2/4 324/2/4
f 312/4/4 314/4/4 325/4/4
f 314/2/4 322/2/4 325/2/4
f 325/2/4 322/2/4 326/2/4
f 323/3/4 324/3/4 327/3/4
f 324/4/4 320/4/4 328/4/4
f 327/3/4 324/3/4 328/3/4
f 325/6/4 326/6/4 329/6/4
f 325/6/4 329/6/4 330/6/4
f 327/6/4 328/6/4 332/6/4
f 328/4/4 320/4/4 333/4/4
f 332/6/4 328/6/4 333/6/4
f 333/4/4 320/4/4 334/4/4
f 331/6/4 332/6/4 335/6/4
f 312/4/4 325/4/4 335/4/4
f 330/6/4 331/6/4 335/6/4
f 325/6/4 330/6/4 335/6/4
f 335/6/4 332/6/4 336/6/4
f 312/4/4 335/4/4 337/4/4
f 335/4/4 336/4/4 337/4/4
f 337/4/4 336/4/4 338/4/4
f 339/4/4 340/4/4 341/4/4
f 341/4/4 340/4/4 342/4/4
f 339/4/4 341/4/4 343/4/4
f 341/2/4 342/2/4 343/2/4
f 342/4/4 340/4/4 344/4/4
f 343/2/4 342/2/4 344/2/4
f 339/4/4 343/4/4 345/4/4
f 343/3/4 344/3/4 345/3/4
f 344/4/4 340/4/4 346/4/4
f 345/3/4 344/3/4 346/3/4
f 339/4/4 345/4/4 347/4/4
f 345/6/4 346/6/4 347/6/4
f 346/4/4 340/4/4 348/4/4
f 347/6/4 346/6/4 348/6/4
f 339/4/4 347/4/4 349/4/4
f 347/4/4 348/4/4 349/4/4
f 348/4/4 340/4/4 350/4/4
f 349/4/4 348/4/4 350/4/4
f 353/4/5 352/4/5 351/4/5
f 354/4/5 352/4/5 353/4/5
f 355/4/5 352/4/5 354/4/5
f 356/4/5 352/4/5 355/4/5
f 357/4/5 353/4/5 351/4/5
f 357/2/5 354/2/5 353/2/5
f 358/3/5 355/3/5 354/3/5
f 358/2/5 354/2/5 357/2/5
f 359/6/5 356/6/5 355/6/5
f 359/3/5 355/3/5 358/3/5
f 360/4/5 352/4/5 356/4/5
f 360/6/5 356/6/5 359/6/5
f 361/4/5 359/4/5 358/4/5
f 361/4/5 358/4/5 357/4/5
f 361/4/5 360/4/5 359/4/5
f 361/4/5 357/4/5 351/4/5
f 362/4/5 352/4/5 360/4/5
f 362/4/5 360/4/5 361/4/5
f 365/4/5 364/4/5 363/4/5
f 366/4/5 364/4/5 365/4/5
f 367/4/5 364/4/5 366/4/5
f 368/4/5 364/4/5 367/4/5
f 371/2/5 366/2/5 365/2/5
f 372/3/5 367/3/5 366/3/5
f 372/2/5 366/2/5 371/2/5
f 373/6/5 368/6/5 367/6/5
f 373/3/5 367/3/5 372/3/5
f 374/6/5 368/6/5 373/6/5
f 377/6/5 375/6/5 374/6/5
f 378/4/5 376/4/5 375/4/5
f 378/6/5 375/6/5 377/6/5
f 379/2/5 371/2/5 370/2/5
f 382/2/5 378/2/5 377/2/5
f 383/4/5 370/4/5 369/4/5
f 383/2/5 382/2/5 381/2/5
f 383/2/5 381/2/5 380/2/5
f 383/2/5 379/2/5 370/2/5
f 383/2/5 380/2/5 379/2/5
f 384/2/5 378/2/5 382/2/5
f 384/2/5 382/2/5 383/2/5
f 384/4/5 376/4/5 378/4/5
f 385/4/5 383/4/5 369/4/5
f 385/4/5 384/4/5 383/4/5
f 386/4/5 376/4/5 384/4/5
f 386/4/5 384/4/5 385/4/5
f 393/4/5 388/4/5 387/4/5
f 393/2/5 389/2/5 388/2/5
f 394/2/5 389/2/5 393/2/5
f 395/6/5 391/6/5 390/6/5
f 396/4/5 392/4/5 391/4/5
f 396/6/5 391/6/5 395/6/5
f 397/4/5 394/4/5 393/4/5
f 397/4/5 393/4/5 387/4/5
f 398/4/5 394/4/5 397/4/5
f 399/4/5 396/4/5 395/4/5
f 400/4/5 392/4/5 396/4/5
f 400/4/5 396/4/5 399/4/5
f 407/4/5 402/4/5 401/4/5
f 407/2/5 403/2/5 402/2/5
f 408/3/5 404/3/5 403/3/5
f 408/2/5 403/2/5 407/2/5
f 409/6/5 405/6/5 404/6/5
f 409/3/5 404/3/5 408/3/5
f 410/4/5 406/4/5 405/4/5
f 410/6/5 405/6/5 409/6/5
f 411/4/5 409/4/5 408/4/5
f 411/4/5 408/4/5 407/4/5
f 411/4/5 410/4/5 409/4/5
f 411/4/5 407/4/5 401/4/5
f 412/4/5 406/4/5 410/4/5
f 412/4/5 410/4/5 411/4/5
f 413/4/6 414/4/6 415/4/6
f 415/4/6 414/4/6 416/4/6
f 416/4/6 414/4/6 417/4/6
f 417/4/6 414/4/6 418/4/6
f 415/2/6 416/2/6 419/2/6
f 416/3/6 417/3/6 420/3/6
f 419/2/6 416/2/6 420/2/6
f 417/6/6 418/6/6 421/6/6
f 420/3/6 417/3/6 421/3/6
f 421/6/6 418/6/6 422/6/6
f 423/4/6 424/4/6 429/4/6
f 424/2/6 425/2/6 430/2/6
f 429/4/6 424/4/6 430/4/6
f 430/2/6 425/2/6 431/2/6
f 426/6/6 427/6/6 432/6/6
f 427/4/6 428/4/6 433/4/6
f 432/6/6 427/6/6 433/6/6
f 433/4/6 428/4/6 434/4/6
f 435/4/6 436/4/6 437/4/6
f 437/4/6 436/4/6 438/4/6
f 438/4/6 436/4/6 439/4/6
f 437/2/6 438/2/6 440/2/6
f 440/2/6 438/2/6 441/2/6
f 438/6/6 439/6/6 442/6/6
f 441/2/6 438/2/6 442/2/6
f 442/6/6 439/6/6 443/6/6
f 435/4/6 437/4/6 444/4/6
f 437/2/6 440/2/6 445/2/6
f 444/4/6 437/4/6 445/4/6
f 445/2/6 440/2/6 446/2/6
f 443/6/6 439/6/6 447/6/6
f 439/4/6 436/4/6 448/4/6
f 447/6/6 439/6/6 448/6/6
f 448/4/6 436/4/6 449/4/6
f 450/4/6 451/4/6 452/4/6
f 452/4/6 451/4/6 453/4/6
f 453/4/6 451/4/6 454/4/6
f 454/4/6 451/4/6 455/4/6
f 453/3/6 454/3/6 456/3/6
f 454/6/6 455/6/6 457/6/6
f 456/3/6 454/3/6 457/3/6
f 450/4/6 452/4/6 458/4/6
f 452/2/6 453/2/6 459/2/6
f 458/4/6 452/4/6 459/4/6
f 453/3/6 456/3/6 460/3/6
f 459/2/6 453/2/6 460/2/6
f 456/5/6 457/5/6 461/5/6
f 460/3/6 456/3/6 461/3/6
f 457/6/6 455/6/6 462/6/6
f 461/5/6 457/5/6 462/5/6
f 455/4/6 451/4/6 463/4/6
f 462/6/6 455/6/6 463/6/6
f 463/4/6 451/4/6 464/4/6
f 465/4/6 466/4/6 467/4/6
f 467/4/6 466/4/6 468/4/6
f 468/4/6 466/4/6 469/4/6
f 469/4/6 466/4/6 470/4/6
f 467/2/6 468/2/6 473/2/6
f 468/3/6 469/3/6 474/3/6
f 473/2/6 468/2/6 474/2/6
f 469/6/6 470/6/6 475/6/6
f 474/3/6 469/3/6 475/3/6
f 475/6/6 470/6/6 476/6/6
f 471/4/6 472/4/6 481/4/6
f 472/2/6 473/2/6 482/2/6
f 481/4/6 472/4/6 482/4/6
f 482/2/6 473/2/6 483/2/6
f 476/6/6 477/6/6 484/6/6
f 477/4/6 478/4/6 485/4/6
f 484/6/6 477/6/6 485/6/6
f 485/4/6 478/4/6 486/4/6
f 479/4/6 480/4/6 489/4/6
f 480/2/6 481/2/6 490/2/6
f 489/4/6 480/4/6 490/4/6
f 490/2/6 481/2/6 491/2/6
f 486/6/6 487/6/6 496/6/6
f 487/4/6 488/4/6 497/4/6
f 496/6/6 487/6/6 497/6/6
f 497/4/6 488/4/6 498/4/6
f 491/4/6 492/4/6 499/4/6
f 492/2/6 493/2/6 500/2/6
f 499/4/6 492/4/6 500/4/6
f 500/2/6 493/2/6 501/2/6
f 494/6/6 495/6/6 504/6/6
f 495/4/6 496/4/6 505/4/6
f 504/6/6 495/6/6 505/6/6
f 505/4/6 496/4/6 506/4/6
f 501/2/6 502/2/6 507/2/6
f 502/3/6 503/3/6 508/3/6
f 507/2/6 502/2/6 508/2/6
f 503/6/6 504/6/6 509/6/6
f 508/3/6 503/3/6 509/3/6
f 509/6/6 504/6/6 510/6/6
f 507/4/6 508/4/6 511/4/6
f 508/4/6 509/4/6 511/4/6
f 509/4/6 510/4/6 511/4/6
f 511/4/6 510/4/6 512/4/6
f 513/4/6 514/4/6 515/4/6
f 515/4/6 514/4/6 516/4/6
f 516/4/6 514/4/6 517/4/6
f 517/4/6 514/4/6 518/4/6
f 513/4/6 515/4/6 520/4/6
f 515/2/6 516/2/6 521/2/6
f 516/3/6 517/3/6 521/3/6
f 517/6/6 518/6/6 522/6/6
f 521/3/6 517/3/6 522/3/6
f 518/4/6 514/4/6 523/4/6
f 519/4/6 520/4/6 525/4/6
f 520/4/6 515/4/6 526/4/6
f 525/4/6 520/4/6 526/4/6
f 515/2/6 521/2/6 526/2/6
f 522/6/6 518/6/6 527/6/6
f 523/4/6 524/4/6 527/4/6
f 518/4/6 523/4/6 527/4/6
f 527/4/6 524/4/6 528/4/6
f 525/2/6 526/2/6 529/2/6
f 519/4/6 525/4/6 529/4/6
f 526/2/6 521/2/6 530/2/6
f 529/2/6 526/2/6 530/2/6
f 527/6/6 528/6/6 531/6/6
f 522/6/6 527/6/6 531/6/6
f 528/4/6 524/4/6 532/4/6
f 531/6/6 528/6/6 532/6/6
f 519/4/6 529/4/6 533/4/6
f 529/4/6 530/4/6 533/4/6
f 533/4/6 530/4/6 534/4/6
f 530/2/6 521/2/6 535/2/6
f 521/1/6 522/1/6 535/1/6
f 522/6/6 531/6/6 536/6/6
f 535/1/6 522/1/6 536/1/6
f 531/4/6 532/4/6 537/4/6
f 532/4/6 524/4/6 538/4/6
f 537/4/6 532/4/6 538/4/6
f 530/2/6 535/2/6 539/2/6
f 534/4/6 530/4/6 539/4/6
f 535/3/6 536/3/6 540/3/6
f 539/2/6 535/2/6 540/2/6
f 536/6/6 531/6/6 541/6/6
f 540/3/6 536/3/6 541/3/6
f 531/4/6 537/4/6 542/4/6
f 541/6/6 531/6/6 542/6/6
f 540/4/6 541/4/6 543/4/6
f 534/4/6 539/4/6 543/4/6
f 541/4/6 542/4/6 543/4/6
f 539/4/6 540/4/6 543/4/6
f 542/4/6 537/4/6 544/4/6
f 543/4/6 542/4/6 544/4/6
