# MagicaVoxel @ Ephtracy

# group
o 

# material
mtllib Torch13.mtl
usemtl palette

# normals
vn -1 0 0
vn 1 0 0
vn 0 0 1
vn 0 0 -1
vn 0 -1 0
vn 0 1 0

# texcoords
vt 0.876953 0.5
vt 0.880859 0.5
vt 0.884766 0.5
vt 0.888672 0.5
vt 0.892578 0.5
vt 0.896484 0.5
vt 0.900391 0.5
vt 0.912109 0.5

# verts
v 0 2 0
v 0 2 -1
v 0 2.1 0
v 0 2.1 -1
v 0.1 2.1 -0.1
v 0.1 2.1 -0.9
v 0.1 2.3 -0.1
v 0.1 2.3 -0.9
v 0.1 4.6 -0.2
v 0.1 4.6 -0.8
v 0.1 4.8 -0.3
v 0.1 4.8 -0.4
v 0.1 4.8 -0.6
v 0.1 4.8 -0.7
v 0.1 5 -0.2
v 0.1 5 -0.3
v 0.1 5 -0.4
v 0.1 5 -0.6
v 0.1 5 -0.7
v 0.1 5 -0.8
v 0.2 2.3 -0.2
v 0.2 2.3 -0.8
v 0.2 2.4 -0.2
v 0.2 2.4 -0.8
v 0.2 4.5 -0.2
v 0.2 4.5 -0.8
v 0.2 4.6 -0.1
v 0.2 4.6 -0.2
v 0.2 4.6 -0.8
v 0.2 4.6 -0.9
v 0.2 5 -0.1
v 0.2 5 -0.2
v 0.2 5 -0.8
v 0.2 5 -0.9
v 0.3 2.4 -0.3
v 0.3 2.4 -0.7
v 0.3 2.7 -0.3
v 0.3 2.7 -0.4
v 0.3 3.2 -0.5
v 0.3 3.2 -0.6
v 0.3 3.6 -0.3
v 0.3 3.6 -0.4
v 0.3 4.4 -0.5
v 0.3 4.4 -0.6
v 0.3 4.5 -0.3
v 0.3 4.5 -0.7
v 0.3 4.8 -0.3
v 0.3 4.8 -0.7
v 0.3 4.9 -0.3
v 0.3 4.9 -0.7
v 0.4 4.8 -0.1
v 0.4 4.8 -0.2
v 0.4 4.8 -0.7
v 0.4 4.8 -0.8
v 0.4 4.8 -0.9
v 0.4 4.9 -0.3
v 0.4 4.9 -0.5
v 0.4 4.9 -0.7
v 0.4 4.9 -0.8
v 0.4 5 -0.1
v 0.4 5 -0.2
v 0.4 5 -0.3
v 0.4 5 -0.4
v 0.4 5 -0.8
v 0.4 5 -0.9
v 0.4 5.1 -0.4
v 0.4 5.1 -0.5
v 0.5 4.9 -0.5
v 0.5 4.9 -0.7
v 0.5 5 -0.3
v 0.5 5 -0.4
v 0.5 5 -0.6
v 0.5 5 -0.7
v 0.5 5.1 -0.3
v 0.5 5.1 -0.4
v 0.5 5.1 -0.5
v 0.5 5.1 -0.6
v 0.5 5.1 -0.7
v 0.5 5.2 -0.4
v 0.5 5.2 -0.6
v 0.5 5.3 -0.6
v 0.5 5.3 -0.7
v 0.5 5.3 -0.8
v 0.5 5.4 -0.7
v 0.5 5.4 -0.8
v 0.6 4.5 -0.4
v 0.6 4.5 -0.6
v 0.6 4.6 -0.4
v 0.6 4.6 -0.6
v 0.6 5 -0.6
v 0.6 5 -0.7
v 0.6 5.1 -0.6
v 0.6 5.1 -0.7
v 0.6 5.2 -0.5
v 0.6 5.2 -0.6
v 0.6 5.2 -0.7
v 0.6 5.2 -0.8
v 0.6 5.3 -0.5
v 0.6 5.3 -0.6
v 0.6 5.3 -0.7
v 0.6 5.3 -0.8
v 0.6 5.4 -0.7
v 0.6 5.4 -0.8
v 0.6 5.5 -0.7
v 0.6 5.5 -0.8
v 0.7 4.8 -0.1
v 0.7 4.8 -0.2
v 0.7 4.8 -0.8
v 0.7 4.8 -0.9
v 0.7 4.9 -0.8
v 0.7 5 -0.1
v 0.7 5 -0.2
v 0.7 5 -0.8
v 0.7 5 -0.9
v 0.7 5.3 -0.6
v 0.7 5.3 -0.7
v 0.7 5.4 -0.6
v 0.7 5.4 -0.7
v 0.8 4.8 -0.2
v 0.8 4.8 -0.3
v 0.8 4.8 -0.7
v 0.8 4.8 -0.8
v 0.8 4.9 -0.4
v 0.8 4.9 -0.6
v 0.8 4.9 -0.7
v 0.8 5 -0.2
v 0.8 5 -0.3
v 0.8 5 -0.4
v 0.8 5 -0.6
v 0.8 5 -0.7
v 0.8 5 -0.8
v 0.2 4.8 -0.2
v 0.2 4.8 -0.3
v 0.2 4.8 -0.4
v 0.2 4.8 -0.6
v 0.2 4.8 -0.7
v 0.2 4.8 -0.8
v 0.2 5 -0.2
v 0.2 5 -0.3
v 0.2 5 -0.4
v 0.2 5 -0.6
v 0.2 5 -0.7
v 0.2 5 -0.8
v 0.3 4.8 -0.1
v 0.3 4.8 -0.2
v 0.3 4.8 -0.8
v 0.3 4.8 -0.9
v 0.3 5 -0.1
v 0.3 5 -0.2
v 0.3 5 -0.8
v 0.3 5 -0.9
v 0.4 4.5 -0.4
v 0.4 4.5 -0.6
v 0.4 4.6 -0.4
v 0.4 4.6 -0.6
v 0.6 4.8 -0.1
v 0.6 4.8 -0.2
v 0.6 4.8 -0.8
v 0.6 4.8 -0.9
v 0.6 4.9 -0.3
v 0.6 4.9 -0.4
v 0.6 4.9 -0.6
v 0.6 4.9 -0.7
v 0.6 4.9 -0.8
v 0.6 5 -0.1
v 0.6 5 -0.2
v 0.6 5 -0.6
v 0.6 5 -0.7
v 0.6 5 -0.8
v 0.6 5 -0.9
v 0.6 5.1 -0.3
v 0.6 5.1 -0.4
v 0.6 5.1 -0.5
v 0.6 5.2 -0.4
v 0.6 5.2 -0.5
v 0.7 2.4 -0.3
v 0.7 2.4 -0.7
v 0.7 2.8 -0.4
v 0.7 2.8 -0.5
v 0.7 3.2 -0.6
v 0.7 3.2 -0.7
v 0.7 3.4 -0.4
v 0.7 3.4 -0.5
v 0.7 3.6 -0.3
v 0.7 3.6 -0.4
v 0.7 3.9 -0.6
v 0.7 3.9 -0.7
v 0.7 4.3 -0.3
v 0.7 4.3 -0.4
v 0.7 4.5 -0.3
v 0.7 4.5 -0.7
v 0.7 4.8 -0.3
v 0.7 4.8 -0.4
v 0.7 4.8 -0.7
v 0.7 4.8 -0.8
v 0.7 4.9 -0.3
v 0.7 4.9 -0.4
v 0.7 4.9 -0.6
v 0.7 4.9 -0.7
v 0.7 4.9 -0.8
v 0.7 5 -0.6
v 0.7 5 -0.7
v 0.7 5.1 -0.4
v 0.7 5.1 -0.5
v 0.7 5.2 -0.5
v 0.7 5.2 -0.6
v 0.7 5.2 -0.7
v 0.7 5.2 -0.8
v 0.7 5.3 -0.5
v 0.7 5.3 -0.6
v 0.7 5.4 -0.7
v 0.7 5.4 -0.8
v 0.7 5.5 -0.7
v 0.7 5.5 -0.8
v 0.8 2.3 -0.2
v 0.8 2.3 -0.8
v 0.8 2.4 -0.2
v 0.8 2.4 -0.8
v 0.8 4.5 -0.2
v 0.8 4.5 -0.8
v 0.8 4.6 -0.1
v 0.8 4.6 -0.2
v 0.8 4.6 -0.8
v 0.8 4.6 -0.9
v 0.8 4.8 -0.6
v 0.8 4.8 -0.7
v 0.8 4.9 -0.6
v 0.8 4.9 -0.7
v 0.8 5 -0.1
v 0.8 5 -0.2
v 0.8 5 -0.8
v 0.8 5 -0.9
v 0.8 5.2 -0.6
v 0.8 5.2 -0.7
v 0.8 5.4 -0.6
v 0.8 5.4 -0.7
v 0.9 2.1 -0.1
v 0.9 2.1 -0.9
v 0.9 2.3 -0.1
v 0.9 2.3 -0.9
v 0.9 4.6 -0.2
v 0.9 4.6 -0.8
v 0.9 4.8 -0.3
v 0.9 4.8 -0.4
v 0.9 4.8 -0.6
v 0.9 4.8 -0.7
v 0.9 5 -0.2
v 0.9 5 -0.3
v 0.9 5 -0.4
v 0.9 5 -0.6
v 0.9 5 -0.7
v 0.9 5 -0.8
v 1 2 0
v 1 2 -1
v 1 2.1 0
v 1 2.1 -1
v 0 2 0
v 0 2.1 0
v 1 2 0
v 1 2.1 0
v 0.1 2.1 -0.1
v 0.1 2.3 -0.1
v 0.2 4.6 -0.1
v 0.2 5 -0.1
v 0.3 4.8 -0.1
v 0.3 5 -0.1
v 0.4 4.8 -0.1
v 0.4 5 -0.1
v 0.6 4.8 -0.1
v 0.6 5 -0.1
v 0.7 4.8 -0.1
v 0.7 5 -0.1
v 0.8 4.6 -0.1
v 0.8 5 -0.1
v 0.9 2.1 -0.1
v 0.9 2.3 -0.1
v 0.1 4.6 -0.2
v 0.1 5 -0.2
v 0.2 2.3 -0.2
v 0.2 2.4 -0.2
v 0.2 4.5 -0.2
v 0.2 4.6 -0.2
v 0.2 5 -0.2
v 0.8 2.3 -0.2
v 0.8 2.4 -0.2
v 0.8 4.5 -0.2
v 0.8 4.6 -0.2
v 0.8 5 -0.2
v 0.9 4.6 -0.2
v 0.9 5 -0.2
v 0.3 2.4 -0.3
v 0.3 2.7 -0.3
v 0.3 3.6 -0.3
v 0.3 4.5 -0.3
v 0.3 4.8 -0.3
v 0.3 4.9 -0.3
v 0.4 2.7 -0.3
v 0.4 3.6 -0.3
v 0.4 4.9 -0.3
v 0.4 5 -0.3
v 0.5 2.4 -0.3
v 0.5 2.8 -0.3
v 0.5 5 -0.3
v 0.5 5.1 -0.3
v 0.6 2.4 -0.3
v 0.6 2.8 -0.3
v 0.6 3.6 -0.3
v 0.6 4.3 -0.3
v 0.6 4.9 -0.3
v 0.6 5.1 -0.3
v 0.7 2.4 -0.3
v 0.7 3.6 -0.3
v 0.7 4.3 -0.3
v 0.7 4.5 -0.3
v 0.7 4.8 -0.3
v 0.7 4.9 -0.3
v 0.1 4.8 -0.4
v 0.1 5 -0.4
v 0.2 4.8 -0.4
v 0.2 5 -0.4
v 0.4 5 -0.4
v 0.4 5.1 -0.4
v 0.5 5 -0.4
v 0.5 5.1 -0.4
v 0.5 5.2 -0.4
v 0.6 4.9 -0.4
v 0.6 5.1 -0.4
v 0.6 5.2 -0.4
v 0.7 4.8 -0.4
v 0.7 4.9 -0.4
v 0.7 5.1 -0.4
v 0.8 4.8 -0.4
v 0.8 4.9 -0.4
v 0.8 5 -0.4
v 0.9 4.8 -0.4
v 0.9 5 -0.4
v 0.6 5.1 -0.5
v 0.6 5.2 -0.5
v 0.6 5.3 -0.5
v 0.7 5.1 -0.5
v 0.7 5.2 -0.5
v 0.7 5.3 -0.5
v 0.4 4.5 -0.6
v 0.4 4.6 -0.6
v 0.5 5.2 -0.6
v 0.5 5.3 -0.6
v 0.6 4.5 -0.6
v 0.6 4.6 -0.6
v 0.6 5.2 -0.6
v 0.6 5.3 -0.6
v 0.7 5.2 -0.6
v 0.7 5.3 -0.6
v 0.7 5.4 -0.6
v 0.8 5.2 -0.6
v 0.8 5.4 -0.6
v 0.1 4.8 -0.7
v 0.1 5 -0.7
v 0.2 4.8 -0.7
v 0.2 5 -0.7
v 0.5 5.3 -0.7
v 0.5 5.4 -0.7
v 0.6 5.3 -0.7
v 0.6 5.4 -0.7
v 0.6 5.5 -0.7
v 0.7 5.3 -0.7
v 0.7 5.4 -0.7
v 0.7 5.5 -0.7
v 0.8 4.8 -0.7
v 0.8 4.9 -0.7
v 0.8 5 -0.7
v 0.9 4.8 -0.7
v 0.9 5 -0.7
v 0.2 4.8 -0.8
v 0.2 5 -0.8
v 0.3 4.8 -0.8
v 0.3 5 -0.8
v 0.4 4.9 -0.8
v 0.4 5 -0.8
v 0.6 4.9 -0.8
v 0.6 5 -0.8
v 0.7 4.8 -0.8
v 0.7 4.9 -0.8
v 0.7 5 -0.8
v 0.8 4.8 -0.8
v 0.8 5 -0.8
v 0.2 4.8 -0.2
v 0.2 5 -0.2
v 0.3 4.8 -0.2
v 0.3 5 -0.2
v 0.4 4.8 -0.2
v 0.4 5 -0.2
v 0.6 4.8 -0.2
v 0.6 5 -0.2
v 0.7 4.8 -0.2
v 0.7 5 -0.2
v 0.8 4.8 -0.2
v 0.8 5 -0.2
v 0.1 4.8 -0.3
v 0.1 5 -0.3
v 0.2 4.8 -0.3
v 0.2 5 -0.3
v 0.8 4.8 -0.3
v 0.8 5 -0.3
v 0.9 4.8 -0.3
v 0.9 5 -0.3
v 0.4 4.5 -0.4
v 0.4 4.6 -0.4
v 0.6 4.5 -0.4
v 0.6 4.6 -0.4
v 0.4 4.9 -0.5
v 0.4 5.1 -0.5
v 0.5 4.9 -0.5
v 0.5 5.1 -0.5
v 0.1 4.8 -0.6
v 0.1 5 -0.6
v 0.2 4.8 -0.6
v 0.2 5 -0.6
v 0.5 5 -0.6
v 0.5 5.1 -0.6
v 0.6 4.9 -0.6
v 0.6 5 -0.6
v 0.6 5.1 -0.6
v 0.7 4.9 -0.6
v 0.7 5 -0.6
v 0.8 4.8 -0.6
v 0.8 4.9 -0.6
v 0.8 5 -0.6
v 0.9 4.8 -0.6
v 0.9 5 -0.6
v 0.3 2.4 -0.7
v 0.3 4.5 -0.7
v 0.3 4.8 -0.7
v 0.3 4.9 -0.7
v 0.4 2.5 -0.7
v 0.4 3.5 -0.7
v 0.4 4 -0.7
v 0.4 4.4 -0.7
v 0.4 4.8 -0.7
v 0.4 4.9 -0.7
v 0.5 2.5 -0.7
v 0.5 3.5 -0.7
v 0.5 4 -0.7
v 0.5 4.4 -0.7
v 0.5 4.9 -0.7
v 0.5 5 -0.7
v 0.5 5.1 -0.7
v 0.5 5.3 -0.7
v 0.6 3.2 -0.7
v 0.6 3.9 -0.7
v 0.6 4.9 -0.7
v 0.6 5 -0.7
v 0.6 5.1 -0.7
v 0.6 5.2 -0.7
v 0.6 5.3 -0.7
v 0.7 2.4 -0.7
v 0.7 3.2 -0.7
v 0.7 3.9 -0.7
v 0.7 4.5 -0.7
v 0.7 4.8 -0.7
v 0.7 4.9 -0.7
v 0.7 5 -0.7
v 0.7 5.2 -0.7
v 0.7 5.4 -0.7
v 0.8 4.8 -0.7
v 0.8 4.9 -0.7
v 0.8 5.2 -0.7
v 0.8 5.4 -0.7
v 0.1 4.6 -0.8
v 0.1 5 -0.8
v 0.2 2.3 -0.8
v 0.2 2.4 -0.8
v 0.2 4.5 -0.8
v 0.2 4.6 -0.8
v 0.2 5 -0.8
v 0.5 5.3 -0.8
v 0.5 5.4 -0.8
v 0.6 4.8 -0.8
v 0.6 4.9 -0.8
v 0.6 5.2 -0.8
v 0.6 5.3 -0.8
v 0.6 5.4 -0.8
v 0.6 5.5 -0.8
v 0.7 4.8 -0.8
v 0.7 4.9 -0.8
v 0.7 5.2 -0.8
v 0.7 5.4 -0.8
v 0.7 5.5 -0.8
v 0.8 2.3 -0.8
v 0.8 2.4 -0.8
v 0.8 4.5 -0.8
v 0.8 4.6 -0.8
v 0.8 5 -0.8
v 0.9 4.6 -0.8
v 0.9 5 -0.8
v 0.1 2.1 -0.9
v 0.1 2.3 -0.9
v 0.2 4.6 -0.9
v 0.2 5 -0.9
v 0.3 4.8 -0.9
v 0.3 5 -0.9
v 0.4 4.8 -0.9
v 0.4 5 -0.9
v 0.6 4.8 -0.9
v 0.6 5 -0.9
v 0.7 4.8 -0.9
v 0.7 5 -0.9
v 0.8 4.6 -0.9
v 0.8 5 -0.9
v 0.9 2.1 -0.9
v 0.9 2.3 -0.9
v 0 2 -1
v 0 2.1 -1
v 1 2 -1
v 1 2.1 -1
v 0 2 0
v 1 2 0
v 0 2 -1
v 1 2 -1
v 0.2 4.5 -0.2
v 0.8 4.5 -0.2
v 0.3 4.5 -0.3
v 0.7 4.5 -0.3
v 0.3 4.5 -0.7
v 0.7 4.5 -0.7
v 0.2 4.5 -0.8
v 0.8 4.5 -0.8
v 0.2 4.6 -0.1
v 0.8 4.6 -0.1
v 0.1 4.6 -0.2
v 0.2 4.6 -0.2
v 0.8 4.6 -0.2
v 0.9 4.6 -0.2
v 0.4 4.6 -0.4
v 0.6 4.6 -0.4
v 0.4 4.6 -0.6
v 0.6 4.6 -0.6
v 0.1 4.6 -0.8
v 0.2 4.6 -0.8
v 0.8 4.6 -0.8
v 0.9 4.6 -0.8
v 0.2 4.6 -0.9
v 0.8 4.6 -0.9
v 0.6 5 -0.6
v 0.7 5 -0.6
v 0.6 5 -0.7
v 0.7 5 -0.7
v 0.5 5.1 -0.6
v 0.6 5.1 -0.6
v 0.5 5.1 -0.7
v 0.6 5.1 -0.7
v 0.7 5.2 -0.6
v 0.8 5.2 -0.6
v 0.6 5.2 -0.7
v 0.7 5.2 -0.7
v 0.8 5.2 -0.7
v 0.6 5.2 -0.8
v 0.7 5.2 -0.8
v 0.5 5.3 -0.7
v 0.6 5.3 -0.7
v 0.5 5.3 -0.8
v 0.6 5.3 -0.8
v 0 2.1 0
v 1 2.1 0
v 0.1 2.1 -0.1
v 0.9 2.1 -0.1
v 0.1 2.1 -0.9
v 0.9 2.1 -0.9
v 0 2.1 -1
v 1 2.1 -1
v 0.1 2.3 -0.1
v 0.9 2.3 -0.1
v 0.2 2.3 -0.2
v 0.8 2.3 -0.2
v 0.2 2.3 -0.8
v 0.8 2.3 -0.8
v 0.1 2.3 -0.9
v 0.9 2.3 -0.9
v 0.2 2.4 -0.2
v 0.8 2.4 -0.2
v 0.3 2.4 -0.3
v 0.5 2.4 -0.3
v 0.6 2.4 -0.3
v 0.7 2.4 -0.3
v 0.3 2.4 -0.7
v 0.7 2.4 -0.7
v 0.2 2.4 -0.8
v 0.8 2.4 -0.8
v 0.4 4.5 -0.4
v 0.6 4.5 -0.4
v 0.4 4.5 -0.6
v 0.6 4.5 -0.6
v 0.3 4.8 -0.1
v 0.4 4.8 -0.1
v 0.6 4.8 -0.1
v 0.7 4.8 -0.1
v 0.2 4.8 -0.2
v 0.3 4.8 -0.2
v 0.4 4.8 -0.2
v 0.6 4.8 -0.2
v 0.7 4.8 -0.2
v 0.8 4.8 -0.2
v 0.1 4.8 -0.3
v 0.2 4.8 -0.3
v 0.3 4.8 -0.3
v 0.7 4.8 -0.3
v 0.8 4.8 -0.3
v 0.9 4.8 -0.3
v 0.1 4.8 -0.4
v 0.2 4.8 -0.4
v 0.7 4.8 -0.4
v 0.8 4.8 -0.4
v 0.9 4.8 -0.4
v 0.1 4.8 -0.6
v 0.2 4.8 -0.6
v 0.8 4.8 -0.6
v 0.9 4.8 -0.6
v 0.1 4.8 -0.7
v 0.2 4.8 -0.7
v 0.3 4.8 -0.7
v 0.4 4.8 -0.7
v 0.7 4.8 -0.7
v 0.8 4.8 -0.7
v 0.9 4.8 -0.7
v 0.2 4.8 -0.8
v 0.3 4.8 -0.8
v 0.4 4.8 -0.8
v 0.6 4.8 -0.8
v 0.7 4.8 -0.8
v 0.8 4.8 -0.8
v 0.3 4.8 -0.9
v 0.4 4.8 -0.9
v 0.6 4.8 -0.9
v 0.7 4.8 -0.9
v 0.3 4.9 -0.3
v 0.4 4.9 -0.3
v 0.6 4.9 -0.3
v 0.7 4.9 -0.3
v 0.6 4.9 -0.4
v 0.7 4.9 -0.4
v 0.8 4.9 -0.4
v 0.4 4.9 -0.5
v 0.5 4.9 -0.5
v 0.6 4.9 -0.6
v 0.7 4.9 -0.6
v 0.8 4.9 -0.6
v 0.3 4.9 -0.7
v 0.4 4.9 -0.7
v 0.5 4.9 -0.7
v 0.6 4.9 -0.7
v 0.7 4.9 -0.7
v 0.8 4.9 -0.7
v 0.4 4.9 -0.8
v 0.6 4.9 -0.8
v 0.7 4.9 -0.8
v 0.2 5 -0.1
v 0.3 5 -0.1
v 0.4 5 -0.1
v 0.6 5 -0.1
v 0.7 5 -0.1
v 0.8 5 -0.1
v 0.1 5 -0.2
v 0.2 5 -0.2
v 0.3 5 -0.2
v 0.4 5 -0.2
v 0.6 5 -0.2
v 0.7 5 -0.2
v 0.8 5 -0.2
v 0.9 5 -0.2
v 0.1 5 -0.3
v 0.2 5 -0.3
v 0.4 5 -0.3
v 0.5 5 -0.3
v 0.8 5 -0.3
v 0.9 5 -0.3
v 0.1 5 -0.4
v 0.2 5 -0.4
v 0.4 5 -0.4
v 0.5 5 -0.4
v 0.8 5 -0.4
v 0.9 5 -0.4
v 0.1 5 -0.6
v 0.2 5 -0.6
v 0.5 5 -0.6
v 0.6 5 -0.6
v 0.8 5 -0.6
v 0.9 5 -0.6
v 0.1 5 -0.7
v 0.2 5 -0.7
v 0.5 5 -0.7
v 0.6 5 -0.7
v 0.8 5 -0.7
v 0.9 5 -0.7
v 0.1 5 -0.8
v 0.2 5 -0.8
v 0.3 5 -0.8
v 0.4 5 -0.8
v 0.6 5 -0.8
v 0.7 5 -0.8
v 0.8 5 -0.8
v 0.9 5 -0.8
v 0.2 5 -0.9
v 0.3 5 -0.9
v 0.4 5 -0.9
v 0.6 5 -0.9
v 0.7 5 -0.9
v 0.8 5 -0.9
v 0.5 5.1 -0.3
v 0.6 5.1 -0.3
v 0.4 5.1 -0.4
v 0.5 5.1 -0.4
v 0.6 5.1 -0.4
v 0.7 5.1 -0.4
v 0.4 5.1 -0.5
v 0.5 5.1 -0.5
v 0.6 5.1 -0.5
v 0.7 5.1 -0.5
v 0.5 5.2 -0.4
v 0.6 5.2 -0.4
v 0.6 5.2 -0.5
v 0.5 5.2 -0.6
v 0.6 5.2 -0.6
v 0.6 5.3 -0.5
v 0.7 5.3 -0.5
v 0.5 5.3 -0.6
v 0.6 5.3 -0.6
v 0.7 5.3 -0.6
v 0.5 5.3 -0.7
v 0.6 5.3 -0.7
v 0.7 5.3 -0.7
v 0.7 5.4 -0.6
v 0.8 5.4 -0.6
v 0.5 5.4 -0.7
v 0.6 5.4 -0.7
v 0.7 5.4 -0.7
v 0.8 5.4 -0.7
v 0.5 5.4 -0.8
v 0.6 5.4 -0.8
v 0.6 5.5 -0.7
v 0.7 5.5 -0.7
v 0.6 5.5 -0.8
v 0.7 5.5 -0.8

# faces
f 3/5/1 2/5/1 1/5/1
f 4/5/1 2/5/1 3/5/1
f 7/5/1 6/5/1 5/5/1
f 8/5/1 6/5/1 7/5/1
f 11/5/1 10/5/1 9/5/1
f 12/5/1 10/5/1 11/5/1
f 13/5/1 10/5/1 12/5/1
f 14/5/1 10/5/1 13/5/1
f 15/5/1 11/5/1 9/5/1
f 16/5/1 11/5/1 15/5/1
f 17/5/1 13/5/1 12/5/1
f 18/5/1 13/5/1 17/5/1
f 19/5/1 10/5/1 14/5/1
f 20/5/1 10/5/1 19/5/1
f 23/5/1 22/5/1 21/5/1
f 24/5/1 22/5/1 23/5/1
f 28/5/1 26/5/1 25/5/1
f 29/5/1 26/5/1 28/5/1
f 31/5/1 28/5/1 27/5/1
f 32/5/1 28/5/1 31/5/1
f 33/5/1 30/5/1 29/5/1
f 34/5/1 30/5/1 33/5/1
f 37/6/1 36/6/1 35/6/1
f 38/6/1 36/6/1 37/6/1
f 39/6/1 36/6/1 38/6/1
f 40/6/1 36/6/1 39/6/1
f 41/7/1 38/7/1 37/7/1
f 42/6/1 39/6/1 38/6/1
f 42/7/1 38/7/1 41/7/1
f 43/7/1 40/7/1 39/7/1
f 43/6/1 39/6/1 42/6/1
f 43/6/1 42/6/1 41/6/1
f 44/6/1 36/6/1 40/6/1
f 44/7/1 40/7/1 43/7/1
f 45/6/1 43/6/1 41/6/1
f 45/6/1 44/6/1 43/6/1
f 46/6/1 36/6/1 44/6/1
f 46/6/1 44/6/1 45/6/1
f 49/1/1 48/1/1 47/1/1
f 50/1/1 48/1/1 49/1/1
f 58/1/1 54/1/1 53/1/1
f 59/5/1 55/5/1 54/5/1
f 59/1/1 54/1/1 58/1/1
f 60/5/1 52/5/1 51/5/1
f 61/5/1 52/5/1 60/5/1
f 62/3/1 57/3/1 56/3/1
f 63/3/1 57/3/1 62/3/1
f 64/5/1 55/5/1 59/5/1
f 65/5/1 55/5/1 64/5/1
f 66/3/1 57/3/1 63/3/1
f 67/3/1 57/3/1 66/3/1
f 72/3/1 69/3/1 68/3/1
f 73/3/1 69/3/1 72/3/1
f 74/3/1 71/3/1 70/3/1
f 75/3/1 71/3/1 74/3/1
f 76/3/1 72/3/1 68/3/1
f 77/3/1 72/3/1 76/3/1
f 79/3/1 76/3/1 75/3/1
f 79/3/1 77/3/1 76/3/1
f 80/2/1 78/2/1 77/2/1
f 80/3/1 77/3/1 79/3/1
f 81/2/1 78/2/1 80/2/1
f 82/2/1 78/2/1 81/2/1
f 84/4/1 83/4/1 82/4/1
f 85/4/1 83/4/1 84/4/1
f 88/5/1 87/5/1 86/5/1
f 89/5/1 87/5/1 88/5/1
f 92/3/1 91/3/1 90/3/1
f 93/3/1 91/3/1 92/3/1
f 98/2/1 95/2/1 94/2/1
f 99/2/1 95/2/1 98/2/1
f 100/2/1 97/2/1 96/2/1
f 101/2/1 97/2/1 100/2/1
f 104/4/1 103/4/1 102/4/1
f 105/4/1 103/4/1 104/4/1
f 110/5/1 109/5/1 108/5/1
f 111/5/1 107/5/1 106/5/1
f 112/5/1 107/5/1 111/5/1
f 113/5/1 109/5/1 110/5/1
f 114/5/1 109/5/1 113/5/1
f 117/2/1 116/2/1 115/2/1
f 118/2/1 116/2/1 117/2/1
f 125/5/1 122/5/1 121/5/1
f 126/5/1 120/5/1 119/5/1
f 127/5/1 120/5/1 126/5/1
f 128/5/1 124/5/1 123/5/1
f 129/5/1 124/5/1 128/5/1
f 130/5/1 122/5/1 125/5/1
f 131/5/1 122/5/1 130/5/1
f 132/5/2 133/5/2 138/5/2
f 138/5/2 133/5/2 139/5/2
f 134/5/2 135/5/2 140/5/2
f 140/5/2 135/5/2 141/5/2
f 136/5/2 137/5/2 142/5/2
f 142/5/2 137/5/2 143/5/2
f 144/5/2 145/5/2 148/5/2
f 148/5/2 145/5/2 149/5/2
f 146/5/2 147/5/2 150/5/2
f 150/5/2 147/5/2 151/5/2
f 152/5/2 153/5/2 154/5/2
f 154/5/2 153/5/2 155/5/2
f 158/5/2 159/5/2 164/5/2
f 156/5/2 157/5/2 165/5/2
f 165/5/2 157/5/2 166/5/2
f 162/3/2 163/3/2 167/3/2
f 167/3/2 163/3/2 168/3/2
f 164/5/2 159/5/2 169/5/2
f 169/5/2 159/5/2 170/5/2
f 160/3/2 161/3/2 171/3/2
f 171/3/2 161/3/2 172/3/2
f 172/3/2 173/3/2 174/3/2
f 174/3/2 173/3/2 175/3/2
f 176/6/2 177/6/2 178/6/2
f 178/6/2 177/6/2 179/6/2
f 179/6/2 177/6/2 180/6/2
f 180/6/2 177/6/2 181/6/2
f 176/6/2 178/6/2 182/6/2
f 178/7/2 179/7/2 182/7/2
f 179/6/2 180/6/2 183/6/2
f 182/7/2 179/7/2 183/7/2
f 176/6/2 182/6/2 184/6/2
f 182/6/2 183/6/2 184/6/2
f 184/6/2 183/6/2 185/6/2
f 180/7/2 181/7/2 186/7/2
f 185/6/2 183/6/2 186/6/2
f 183/6/2 180/6/2 186/6/2
f 186/7/2 181/7/2 187/7/2
f 184/7/2 185/7/2 188/7/2
f 185/6/2 186/6/2 189/6/2
f 188/7/2 185/7/2 189/7/2
f 186/6/2 187/6/2 189/6/2
f 188/6/2 189/6/2 190/6/2
f 189/6/2 187/6/2 191/6/2
f 190/6/2 189/6/2 191/6/2
f 192/1/2 193/1/2 196/1/2
f 196/1/2 193/1/2 197/1/2
f 194/1/2 195/1/2 199/1/2
f 199/1/2 195/1/2 200/1/2
f 197/3/2 198/3/2 201/3/2
f 197/3/2 201/3/2 203/3/2
f 201/3/2 202/3/2 203/3/2
f 203/3/2 202/3/2 204/3/2
f 204/3/2 202/3/2 205/3/2
f 205/3/2 202/3/2 206/3/2
f 206/3/2 202/3/2 207/3/2
f 205/2/2 206/2/2 209/2/2
f 209/2/2 206/2/2 210/2/2
f 207/2/2 208/2/2 211/2/2
f 211/2/2 208/2/2 212/2/2
f 211/4/2 212/4/2 213/4/2
f 213/4/2 212/4/2 214/4/2
f 215/5/2 216/5/2 217/5/2
f 217/5/2 216/5/2 218/5/2
f 219/5/2 220/5/2 222/5/2
f 222/5/2 220/5/2 223/5/2
f 225/1/2 226/1/2 227/1/2
f 227/1/2 226/1/2 228/1/2
f 221/5/2 222/5/2 229/5/2
f 229/5/2 222/5/2 230/5/2
f 223/5/2 224/5/2 231/5/2
f 231/5/2 224/5/2 232/5/2
f 233/2/2 234/2/2 235/2/2
f 235/2/2 234/2/2 236/2/2
f 237/5/2 238/5/2 239/5/2
f 239/5/2 238/5/2 240/5/2
f 241/5/2 242/5/2 243/5/2
f 243/5/2 242/5/2 244/5/2
f 244/5/2 242/5/2 245/5/2
f 245/5/2 242/5/2 246/5/2
f 241/5/2 243/5/2 247/5/2
f 247/5/2 243/5/2 248/5/2
f 244/5/2 245/5/2 249/5/2
f 249/5/2 245/5/2 250/5/2
f 246/5/2 242/5/2 251/5/2
f 251/5/2 242/5/2 252/5/2
f 253/5/2 254/5/2 255/5/2
f 255/5/2 254/5/2 256/5/2
f 259/5/3 258/5/3 257/5/3
f 260/5/3 258/5/3 259/5/3
f 265/5/3 264/5/3 263/5/3
f 266/5/3 264/5/3 265/5/3
f 267/5/3 265/5/3 263/5/3
f 269/5/3 267/5/3 263/5/3
f 269/5/3 268/5/3 267/5/3
f 270/5/3 268/5/3 269/5/3
f 271/5/3 269/5/3 263/5/3
f 273/5/3 271/5/3 263/5/3
f 273/5/3 272/5/3 271/5/3
f 274/5/3 272/5/3 273/5/3
f 275/5/3 262/5/3 261/5/3
f 276/5/3 262/5/3 275/5/3
f 282/5/3 278/5/3 277/5/3
f 283/5/3 278/5/3 282/5/3
f 284/5/3 280/5/3 279/5/3
f 285/5/3 280/5/3 284/5/3
f 286/5/3 282/5/3 281/5/3
f 287/5/3 282/5/3 286/5/3
f 289/5/3 288/5/3 287/5/3
f 290/5/3 288/5/3 289/5/3
f 297/6/3 292/6/3 291/6/3
f 297/7/3 293/7/3 292/7/3
f 298/6/3 294/6/3 293/6/3
f 298/7/3 293/7/3 297/7/3
f 299/1/3 296/1/3 295/1/3
f 301/6/3 297/6/3 291/6/3
f 301/6/3 298/6/3 297/6/3
f 302/6/3 298/6/3 301/6/3
f 303/3/3 300/3/3 299/3/3
f 305/7/3 302/7/3 301/7/3
f 306/6/3 298/6/3 302/6/3
f 306/7/3 302/7/3 305/7/3
f 307/6/3 294/6/3 298/6/3
f 307/6/3 298/6/3 306/6/3
f 308/6/3 294/6/3 307/6/3
f 309/1/3 299/1/3 295/1/3
f 309/3/3 304/3/3 303/3/3
f 309/3/3 303/3/3 299/3/3
f 310/3/3 304/3/3 309/3/3
f 311/6/3 306/6/3 305/6/3
f 311/6/3 307/6/3 306/6/3
f 312/7/3 308/7/3 307/7/3
f 312/6/3 307/6/3 311/6/3
f 313/6/3 294/6/3 308/6/3
f 313/7/3 308/7/3 312/7/3
f 314/6/3 294/6/3 313/6/3
f 315/1/3 309/1/3 295/1/3
f 316/1/3 309/1/3 315/1/3
f 319/5/3 318/5/3 317/5/3
f 320/5/3 318/5/3 319/5/3
f 323/3/3 322/3/3 321/3/3
f 324/3/3 322/3/3 323/3/3
f 327/3/3 325/3/3 324/3/3
f 328/3/3 325/3/3 327/3/3
f 330/3/3 327/3/3 326/3/3
f 331/3/3 327/3/3 330/3/3
f 332/1/3 330/1/3 329/1/3
f 333/1/3 330/1/3 332/1/3
f 335/5/3 333/5/3 332/5/3
f 335/5/3 334/5/3 333/5/3
f 336/5/3 334/5/3 335/5/3
f 340/3/3 338/3/3 337/3/3
f 341/2/3 339/2/3 338/2/3
f 341/3/3 338/3/3 340/3/3
f 342/2/3 339/2/3 341/2/3
f 347/5/3 344/5/3 343/5/3
f 348/5/3 344/5/3 347/5/3
f 349/2/3 346/2/3 345/2/3
f 350/2/3 346/2/3 349/2/3
f 354/2/3 352/2/3 351/2/3
f 354/2/3 353/2/3 352/2/3
f 355/2/3 353/2/3 354/2/3
f 358/5/3 357/5/3 356/5/3
f 359/5/3 357/5/3 358/5/3
f 362/4/3 361/4/3 360/4/3
f 363/4/3 361/4/3 362/4/3
f 365/2/3 363/2/3 362/2/3
f 366/4/3 364/4/3 363/4/3
f 366/2/3 363/2/3 365/2/3
f 367/4/3 364/4/3 366/4/3
f 371/5/3 369/5/3 368/5/3
f 371/5/3 370/5/3 369/5/3
f 372/5/3 370/5/3 371/5/3
f 375/5/3 374/5/3 373/5/3
f 376/5/3 374/5/3 375/5/3
f 379/5/3 378/5/3 377/5/3
f 380/5/3 378/5/3 379/5/3
f 384/5/3 382/5/3 381/5/3
f 384/5/3 383/5/3 382/5/3
f 385/5/3 383/5/3 384/5/3
f 386/5/4 387/5/4 388/5/4
f 388/5/4 387/5/4 389/5/4
f 390/5/4 391/5/4 392/5/4
f 392/5/4 391/5/4 393/5/4
f 394/5/4 395/5/4 396/5/4
f 396/5/4 395/5/4 397/5/4
f 398/5/4 399/5/4 400/5/4
f 400/5/4 399/5/4 401/5/4
f 402/5/4 403/5/4 404/5/4
f 404/5/4 403/5/4 405/5/4
f 406/5/4 407/5/4 408/5/4
f 408/5/4 407/5/4 409/5/4
f 410/3/4 411/3/4 412/3/4
f 412/3/4 411/3/4 413/3/4
f 414/5/4 415/5/4 416/5/4
f 416/5/4 415/5/4 417/5/4
f 418/3/4 419/3/4 421/3/4
f 421/3/4 419/3/4 422/3/4
f 420/3/4 421/3/4 423/3/4
f 423/3/4 421/3/4 424/3/4
f 425/5/4 426/5/4 428/5/4
f 426/5/4 427/5/4 428/5/4
f 428/5/4 427/5/4 429/5/4
f 430/6/4 431/6/4 434/6/4
f 434/6/4 431/6/4 435/6/4
f 435/6/4 431/6/4 436/6/4
f 436/6/4 431/6/4 437/6/4
f 432/1/4 433/1/4 438/1/4
f 438/1/4 433/1/4 439/1/4
f 430/6/4 434/6/4 440/6/4
f 434/7/4 435/7/4 440/7/4
f 435/6/4 436/6/4 441/6/4
f 440/7/4 435/7/4 441/7/4
f 436/7/4 437/7/4 442/7/4
f 441/6/4 436/6/4 442/6/4
f 437/6/4 431/6/4 443/6/4
f 442/7/4 437/7/4 443/7/4
f 441/6/4 442/6/4 448/6/4
f 440/6/4 441/6/4 448/6/4
f 442/6/4 443/6/4 448/6/4
f 448/6/4 443/6/4 449/6/4
f 444/3/4 445/3/4 450/3/4
f 450/3/4 445/3/4 451/3/4
f 446/2/4 447/2/4 452/2/4
f 452/2/4 447/2/4 453/2/4
f 453/2/4 447/2/4 454/2/4
f 430/6/4 440/6/4 455/6/4
f 440/6/4 448/6/4 455/6/4
f 448/7/4 449/7/4 456/7/4
f 455/6/4 448/6/4 456/6/4
f 449/6/4 443/6/4 457/6/4
f 456/7/4 449/7/4 457/7/4
f 443/6/4 431/6/4 458/6/4
f 457/6/4 443/6/4 458/6/4
f 452/3/4 453/3/4 461/3/4
f 451/3/4 452/3/4 461/3/4
f 461/3/4 453/3/4 462/3/4
f 459/1/4 460/1/4 464/1/4
f 464/1/4 460/1/4 465/1/4
f 462/2/4 463/2/4 466/2/4
f 466/2/4 463/2/4 467/2/4
f 468/5/4 469/5/4 473/5/4
f 473/5/4 469/5/4 474/5/4
f 475/4/4 476/4/4 480/4/4
f 480/4/4 476/4/4 481/4/4
f 477/1/4 478/1/4 483/1/4
f 483/1/4 478/1/4 484/1/4
f 479/2/4 480/2/4 485/2/4
f 480/2/4 481/2/4 485/2/4
f 481/4/4 482/4/4 486/4/4
f 485/2/4 481/2/4 486/2/4
f 486/4/4 482/4/4 487/4/4
f 470/5/4 471/5/4 488/5/4
f 488/5/4 471/5/4 489/5/4
f 472/5/4 473/5/4 490/5/4
f 490/5/4 473/5/4 491/5/4
f 491/5/4 492/5/4 493/5/4
f 493/5/4 492/5/4 494/5/4
f 497/5/4 498/5/4 499/5/4
f 499/5/4 498/5/4 500/5/4
f 497/5/4 499/5/4 501/5/4
f 497/5/4 501/5/4 503/5/4
f 501/5/4 502/5/4 503/5/4
f 503/5/4 502/5/4 504/5/4
f 497/5/4 503/5/4 505/5/4
f 497/5/4 505/5/4 507/5/4
f 505/5/4 506/5/4 507/5/4
f 507/5/4 506/5/4 508/5/4
f 495/5/4 496/5/4 509/5/4
f 509/5/4 496/5/4 510/5/4
f 511/5/4 512/5/4 513/5/4
f 513/5/4 512/5/4 514/5/4
f 517/5/5 516/5/5 515/5/5
f 518/5/5 516/5/5 517/5/5
f 521/5/5 520/5/5 519/5/5
f 522/5/5 520/5/5 521/5/5
f 523/5/5 521/5/5 519/5/5
f 524/5/5 520/5/5 522/5/5
f 525/5/5 523/5/5 519/5/5
f 525/5/5 524/5/5 523/5/5
f 526/5/5 520/5/5 524/5/5
f 526/5/5 524/5/5 525/5/5
f 530/5/5 528/5/5 527/5/5
f 531/5/5 528/5/5 530/5/5
f 535/2/5 534/2/5 533/2/5
f 536/2/5 534/2/5 535/2/5
f 537/5/5 530/5/5 529/5/5
f 538/5/5 530/5/5 537/5/5
f 539/5/5 532/5/5 531/5/5
f 540/5/5 532/5/5 539/5/5
f 541/5/5 539/5/5 538/5/5
f 542/5/5 539/5/5 541/5/5
f 545/3/5 544/3/5 543/3/5
f 546/3/5 544/3/5 545/3/5
f 549/2/5 548/2/5 547/2/5
f 550/2/5 548/2/5 549/2/5
f 554/2/5 552/2/5 551/2/5
f 555/2/5 552/2/5 554/2/5
f 556/2/5 554/2/5 553/2/5
f 557/2/5 554/2/5 556/2/5
f 560/4/5 559/4/5 558/4/5
f 561/4/5 559/4/5 560/4/5
f 562/5/6 563/5/6 564/5/6
f 564/5/6 563/5/6 565/5/6
f 562/5/6 564/5/6 566/5/6
f 565/5/6 563/5/6 567/5/6
f 562/5/6 566/5/6 568/5/6
f 566/5/6 567/5/6 568/5/6
f 567/5/6 563/5/6 569/5/6
f 568/5/6 567/5/6 569/5/6
f 570/5/6 571/5/6 572/5/6
f 572/5/6 571/5/6 573/5/6
f 570/5/6 572/5/6 574/5/6
f 573/5/6 571/5/6 575/5/6
f 570/5/6 574/5/6 576/5/6
f 574/5/6 575/5/6 576/5/6
f 575/5/6 571/5/6 577/5/6
f 576/5/6 575/5/6 577/5/6
f 578/5/6 579/5/6 580/5/6
f 580/5/6 579/5/6 581/5/6
f 581/5/6 579/5/6 582/5/6
f 582/5/6 579/5/6 583/5/6
f 578/5/6 580/5/6 584/5/6
f 583/5/6 579/5/6 585/5/6
f 578/5/6 584/5/6 586/5/6
f 584/5/6 585/5/6 586/5/6
f 585/5/6 579/5/6 587/5/6
f 586/5/6 585/5/6 587/5/6
f 588/8/6 589/8/6 590/8/6
f 590/8/6 589/8/6 591/8/6
f 592/5/6 593/5/6 597/5/6
f 597/5/6 593/5/6 598/5/6
f 594/5/6 595/5/6 599/5/6
f 599/5/6 595/5/6 600/5/6
f 597/1/6 598/1/6 603/1/6
f 600/1/6 601/1/6 603/1/6
f 599/1/6 600/1/6 603/1/6
f 598/1/6 599/1/6 603/1/6
f 596/1/6 597/1/6 603/1/6
f 603/1/6 601/1/6 604/1/6
f 604/1/6 601/1/6 605/1/6
f 605/1/6 601/1/6 606/1/6
f 602/5/6 603/5/6 608/5/6
f 603/1/6 604/1/6 609/1/6
f 608/5/6 603/5/6 609/5/6
f 605/1/6 606/1/6 610/1/6
f 606/5/6 607/5/6 611/5/6
f 610/1/6 606/1/6 611/1/6
f 611/5/6 607/5/6 612/5/6
f 609/1/6 604/1/6 614/1/6
f 613/5/6 614/5/6 617/5/6
f 614/1/6 604/1/6 618/1/6
f 617/5/6 614/5/6 618/5/6
f 618/1/6 604/1/6 619/1/6
f 615/5/6 616/5/6 622/5/6
f 622/5/6 616/5/6 623/5/6
f 619/1/6 620/1/6 624/1/6
f 618/1/6 619/1/6 624/1/6
f 624/1/6 620/1/6 625/1/6
f 625/1/6 620/1/6 626/1/6
f 621/1/6 622/1/6 628/1/6
f 628/1/6 622/1/6 629/1/6
f 625/5/6 626/5/6 630/5/6
f 630/5/6 626/5/6 631/5/6
f 627/5/6 628/5/6 632/5/6
f 632/5/6 628/5/6 633/5/6
f 636/1/6 637/1/6 638/1/6
f 638/1/6 637/1/6 639/1/6
f 634/1/6 635/1/6 641/1/6
f 639/1/6 640/1/6 644/1/6
f 644/1/6 640/1/6 645/1/6
f 641/1/6 642/1/6 646/1/6
f 634/1/6 641/1/6 646/1/6
f 646/1/6 642/1/6 647/1/6
f 647/1/6 642/1/6 648/1/6
f 644/1/6 645/1/6 649/1/6
f 643/1/6 644/1/6 649/1/6
f 649/1/6 645/1/6 650/1/6
f 650/1/6 645/1/6 651/1/6
f 647/1/6 648/1/6 652/1/6
f 649/1/6 650/1/6 652/1/6
f 648/1/6 649/1/6 652/1/6
f 652/1/6 650/1/6 653/1/6
f 653/1/6 650/1/6 654/1/6
f 655/5/6 656/5/6 662/5/6
f 662/5/6 656/5/6 663/5/6
f 657/5/6 658/5/6 664/5/6
f 664/5/6 658/5/6 665/5/6
f 659/5/6 660/5/6 666/5/6
f 666/5/6 660/5/6 667/5/6
f 661/5/6 662/5/6 669/5/6
f 669/5/6 662/5/6 670/5/6
f 667/5/6 668/5/6 673/5/6
f 673/5/6 668/5/6 674/5/6
f 671/3/6 672/3/6 677/3/6
f 677/3/6 672/3/6 678/3/6
f 675/5/6 676/5/6 681/5/6
f 681/5/6 676/5/6 682/5/6
f 679/5/6 680/5/6 685/5/6
f 685/5/6 680/5/6 686/5/6
f 683/3/6 684/3/6 689/3/6
f 689/3/6 684/3/6 690/3/6
f 687/5/6 688/5/6 693/5/6
f 693/5/6 688/5/6 694/5/6
f 691/5/6 692/5/6 699/5/6
f 699/5/6 692/5/6 700/5/6
f 694/5/6 695/5/6 701/5/6
f 701/5/6 695/5/6 702/5/6
f 696/5/6 697/5/6 703/5/6
f 703/5/6 697/5/6 704/5/6
f 698/5/6 699/5/6 705/5/6
f 705/5/6 699/5/6 706/5/6
f 707/3/6 708/3/6 710/3/6
f 710/3/6 708/3/6 711/3/6
f 709/3/6 710/3/6 713/3/6
f 713/3/6 710/3/6 714/3/6
f 711/3/6 712/3/6 715/3/6
f 715/3/6 712/3/6 716/3/6
f 717/3/6 718/3/6 719/3/6
f 717/3/6 719/3/6 720/3/6
f 720/3/6 719/3/6 721/3/6
f 722/2/6 723/2/6 725/2/6
f 725/2/6 723/2/6 726/2/6
f 724/2/6 725/2/6 727/2/6
f 725/2/6 726/2/6 727/2/6
f 727/2/6 726/2/6 728/2/6
f 728/2/6 726/2/6 729/2/6
f 730/2/6 731/2/6 734/2/6
f 734/2/6 731/2/6 735/2/6
f 732/4/6 733/4/6 736/4/6
f 736/4/6 733/4/6 737/4/6
f 738/4/6 739/4/6 740/4/6
f 740/4/6 739/4/6 741/4/6
