# MagicaVoxel @ Ephtracy

# group
o 

# material
mtllib Iron1.mtl
usemtl palette

# normals
vn -1 0 0
vn 1 0 0
vn 0 0 1
vn 0 0 -1
vn 0 -1 0
vn 0 1 0

# texcoords
vt 0.365234 0.5
vt 0.970703 0.5
vt 0.974609 0.5
vt 0.982422 0.5
vt 0.986328 0.5

# verts
v 0.3 3.7 -0.7
v 0.3 3.7 -1.9
v 0.3 3.8 -0.7
v 0.3 3.8 -1.9
v 0.3 3.9 -0.7
v 0.3 3.9 -0.8
v 0.3 3.9 -1.6
v 0.3 3.9 -1.9
v 0.3 4.1 -0.8
v 0.3 4.1 -1.6
v 0.8 3.6 -0.6
v 0.8 3.6 -0.7
v 0.8 3.7 -0.7
v 0.8 3.8 -0.7
v 0.8 3.9 -0.7
v 0.8 3.9 -0.8
v 0.8 3.9 -1.6
v 0.8 3.9 -1.7
v 0.8 3.9 -1.9
v 0.8 4.1 -0.6
v 0.8 4.1 -0.7
v 0.8 4.1 -0.8
v 0.8 4.1 -1.6
v 0.8 4.1 -1.9
v 0.8 4.2 -0.7
v 0.8 4.2 -0.8
v 1.1 3.3 -0.6
v 1.1 3.3 -0.7
v 1.1 3.6 -0.6
v 1.1 3.6 -0.7
v 1.3 3.8 -0.8
v 1.3 3.8 -1.6
v 1.3 3.9 -0.8
v 1.3 3.9 -1.6
v 1.4 3.4 -0.6
v 1.4 3.4 -0.7
v 1.4 3.7 -0.6
v 1.4 3.7 -0.7
v 1.4 3.7 -1.6
v 1.4 3.7 -1.7
v 1.4 3.8 -1.6
v 1.4 3.8 -1.7
v 1.6 3.8 -0.6
v 1.6 3.8 -0.7
v 1.6 3.9 -0.7
v 1.6 3.9 -0.8
v 1.6 3.9 -1.6
v 1.6 3.9 -1.7
v 1.6 3.9 -1.9
v 1.6 4.1 -0.6
v 1.6 4.1 -0.7
v 1.6 4.1 -0.8
v 1.6 4.1 -1.6
v 1.6 4.1 -1.9
v 1.6 4.2 -0.7
v 1.6 4.2 -0.8
v 2.2 3.7 -0.8
v 2.2 3.7 -1.6
v 2.2 3.8 -0.8
v 2.2 3.8 -1.6
v 2.2 3.9 -0.8
v 2.2 3.9 -1.6
v 0.5 3.7 -0.8
v 0.5 3.7 -1.6
v 0.5 3.8 -0.8
v 0.5 3.8 -1.6
v 0.5 3.9 -0.8
v 0.5 3.9 -1.6
v 1.1 3.8 -0.6
v 1.1 3.8 -0.7
v 1.1 3.9 -0.7
v 1.1 3.9 -0.8
v 1.1 3.9 -1.6
v 1.1 3.9 -1.7
v 1.1 3.9 -1.9
v 1.1 4.1 -0.6
v 1.1 4.1 -0.7
v 1.1 4.1 -0.8
v 1.1 4.1 -1.6
v 1.1 4.1 -1.9
v 1.1 4.2 -0.7
v 1.1 4.2 -0.8
v 1.3 3.4 -0.6
v 1.3 3.4 -0.7
v 1.3 3.7 -0.6
v 1.3 3.7 -0.7
v 1.3 3.7 -1.6
v 1.3 3.7 -1.7
v 1.3 3.8 -1.6
v 1.3 3.8 -1.7
v 1.4 3.8 -0.8
v 1.4 3.8 -1.6
v 1.4 3.9 -0.8
v 1.4 3.9 -1.6
v 1.6 3.3 -0.6
v 1.6 3.3 -0.7
v 1.6 3.6 -0.6
v 1.6 3.6 -0.7
v 1.9 3.6 -0.6
v 1.9 3.6 -0.7
v 1.9 3.7 -0.7
v 1.9 3.8 -0.7
v 1.9 3.9 -0.7
v 1.9 3.9 -0.8
v 1.9 3.9 -1.6
v 1.9 3.9 -1.7
v 1.9 3.9 -1.9
v 1.9 4.1 -0.6
v 1.9 4.1 -0.7
v 1.9 4.1 -0.8
v 1.9 4.1 -1.6
v 1.9 4.1 -1.9
v 1.9 4.2 -0.7
v 1.9 4.2 -0.8
v 2.4 3.7 -0.7
v 2.4 3.7 -1.9
v 2.4 3.8 -0.7
v 2.4 3.8 -1.9
v 2.4 3.9 -0.7
v 2.4 3.9 -0.8
v 2.4 3.9 -1.6
v 2.4 3.9 -1.9
v 2.4 4.1 -0.8
v 2.4 4.1 -1.6
v 0.8 3.6 -0.6
v 0.8 4.1 -0.6
v 1.1 3.3 -0.6
v 1.1 3.6 -0.6
v 1.1 3.8 -0.6
v 1.1 4.1 -0.6
v 1.3 3.4 -0.6
v 1.3 3.7 -0.6
v 1.4 3.4 -0.6
v 1.4 3.7 -0.6
v 1.6 3.3 -0.6
v 1.6 3.6 -0.6
v 1.6 3.8 -0.6
v 1.6 4.1 -0.6
v 1.9 3.6 -0.6
v 1.9 4.1 -0.6
v 0.3 3.7 -0.7
v 0.3 3.8 -0.7
v 0.3 3.9 -0.7
v 0.5 3.8 -0.7
v 0.5 3.9 -0.7
v 0.6 3.8 -0.7
v 0.6 3.9 -0.7
v 0.8 3.7 -0.7
v 0.8 3.8 -0.7
v 0.8 3.9 -0.7
v 0.8 4.1 -0.7
v 0.8 4.2 -0.7
v 1.1 3.8 -0.7
v 1.1 3.9 -0.7
v 1.1 4.1 -0.7
v 1.1 4.2 -0.7
v 1.6 3.8 -0.7
v 1.6 3.9 -0.7
v 1.6 4.1 -0.7
v 1.6 4.2 -0.7
v 1.9 3.7 -0.7
v 1.9 3.8 -0.7
v 1.9 3.9 -0.7
v 1.9 4.1 -0.7
v 1.9 4.2 -0.7
v 2.1 3.8 -0.7
v 2.1 3.9 -0.7
v 2.2 3.8 -0.7
v 2.2 3.9 -0.7
v 2.4 3.7 -0.7
v 2.4 3.8 -0.7
v 2.4 3.9 -0.7
v 0.3 3.9 -0.8
v 0.3 4.1 -0.8
v 0.5 3.9 -0.8
v 0.5 4.1 -0.8
v 0.6 3.9 -0.8
v 0.6 4.1 -0.8
v 0.8 3.9 -0.8
v 0.8 4.1 -0.8
v 1.1 3.9 -0.8
v 1.1 4.1 -0.8
v 1.6 3.9 -0.8
v 1.6 4.1 -0.8
v 1.9 3.9 -0.8
v 1.9 4.1 -0.8
v 2.1 3.9 -0.8
v 2.1 4.1 -0.8
v 2.2 3.9 -0.8
v 2.2 4.1 -0.8
v 2.4 3.9 -0.8
v 2.4 4.1 -0.8
v 0.5 3.7 -1.6
v 0.5 3.8 -1.6
v 0.5 3.9 -1.6
v 0.6 3.7 -1.6
v 0.6 3.8 -1.6
v 0.6 3.9 -1.6
v 0.8 3.7 -1.6
v 0.8 3.9 -1.6
v 1.3 3.7 -1.6
v 1.3 3.8 -1.6
v 1.3 3.9 -1.6
v 1.4 3.7 -1.6
v 1.4 3.8 -1.6
v 1.4 3.9 -1.6
v 1.9 3.7 -1.6
v 1.9 3.9 -1.6
v 2.1 3.7 -1.6
v 2.1 3.8 -1.6
v 2.1 3.9 -1.6
v 2.2 3.7 -1.6
v 2.2 3.8 -1.6
v 2.2 3.9 -1.6
v 1.3 3.7 -1.7
v 1.3 3.8 -1.7
v 1.4 3.7 -1.7
v 1.4 3.8 -1.7
v 0.8 3.6 -0.7
v 0.8 3.7 -0.7
v 1.1 3.3 -0.7
v 1.1 3.6 -0.7
v 1.1 3.7 -0.7
v 1.3 3.4 -0.7
v 1.3 3.7 -0.7
v 1.4 3.4 -0.7
v 1.4 3.7 -0.7
v 1.6 3.3 -0.7
v 1.6 3.6 -0.7
v 1.6 3.7 -0.7
v 1.9 3.6 -0.7
v 1.9 3.7 -0.7
v 0.5 3.7 -0.8
v 0.5 3.8 -0.8
v 0.5 3.9 -0.8
v 0.6 3.8 -0.8
v 0.6 3.9 -0.8
v 0.8 3.8 -0.8
v 0.8 3.9 -0.8
v 0.8 4.1 -0.8
v 0.8 4.2 -0.8
v 1.1 4.1 -0.8
v 1.1 4.2 -0.8
v 1.3 3.8 -0.8
v 1.3 3.9 -0.8
v 1.4 3.8 -0.8
v 1.4 3.9 -0.8
v 1.6 4.1 -0.8
v 1.6 4.2 -0.8
v 1.9 3.8 -0.8
v 1.9 3.9 -0.8
v 1.9 4.1 -0.8
v 1.9 4.2 -0.8
v 2.1 3.8 -0.8
v 2.1 3.9 -0.8
v 2.2 3.7 -0.8
v 2.2 3.8 -0.8
v 2.2 3.9 -0.8
v 0.3 3.9 -1.6
v 0.3 4.1 -1.6
v 0.5 3.9 -1.6
v 0.5 4.1 -1.6
v 0.6 3.9 -1.6
v 0.6 4.1 -1.6
v 0.8 3.9 -1.6
v 0.8 4.1 -1.6
v 1.1 3.9 -1.6
v 1.1 4.1 -1.6
v 1.6 3.9 -1.6
v 1.6 4.1 -1.6
v 1.9 3.9 -1.6
v 1.9 4.1 -1.6
v 2.1 3.9 -1.6
v 2.1 4.1 -1.6
v 2.2 3.9 -1.6
v 2.2 4.1 -1.6
v 2.4 3.9 -1.6
v 2.4 4.1 -1.6
v 0.3 3.7 -1.9
v 0.3 3.8 -1.9
v 0.3 3.9 -1.9
v 0.4 3.7 -1.9
v 0.4 3.8 -1.9
v 0.8 3.9 -1.9
v 0.8 4.1 -1.9
v 1.1 3.9 -1.9
v 1.1 4.1 -1.9
v 1.6 3.9 -1.9
v 1.6 4.1 -1.9
v 1.9 3.9 -1.9
v 1.9 4.1 -1.9
v 2.3 3.7 -1.9
v 2.3 3.8 -1.9
v 2.4 3.7 -1.9
v 2.4 3.8 -1.9
v 2.4 3.9 -1.9
v 1.1 3.3 -0.6
v 1.6 3.3 -0.6
v 1.1 3.3 -0.7
v 1.6 3.3 -0.7
v 0.8 3.6 -0.6
v 1.1 3.6 -0.6
v 1.6 3.6 -0.6
v 1.9 3.6 -0.6
v 0.8 3.6 -0.7
v 1.1 3.6 -0.7
v 1.6 3.6 -0.7
v 1.9 3.6 -0.7
v 1.3 3.7 -0.6
v 1.4 3.7 -0.6
v 0.3 3.7 -0.7
v 0.8 3.7 -0.7
v 1.1 3.7 -0.7
v 1.3 3.7 -0.7
v 1.4 3.7 -0.7
v 1.6 3.7 -0.7
v 1.9 3.7 -0.7
v 2.4 3.7 -0.7
v 0.4 3.7 -0.8
v 0.5 3.7 -0.8
v 2.2 3.7 -0.8
v 2.3 3.7 -0.8
v 0.5 3.7 -1.6
v 0.6 3.7 -1.6
v 0.8 3.7 -1.6
v 1.3 3.7 -1.6
v 1.4 3.7 -1.6
v 1.9 3.7 -1.6
v 2.1 3.7 -1.6
v 2.2 3.7 -1.6
v 0.5 3.7 -1.7
v 0.6 3.7 -1.7
v 0.8 3.7 -1.7
v 1.3 3.7 -1.7
v 1.4 3.7 -1.7
v 1.9 3.7 -1.7
v 2.1 3.7 -1.7
v 2.2 3.7 -1.7
v 0.3 3.7 -1.9
v 0.4 3.7 -1.9
v 2.3 3.7 -1.9
v 2.4 3.7 -1.9
v 1.3 3.8 -0.8
v 1.4 3.8 -0.8
v 1.3 3.8 -1.6
v 1.4 3.8 -1.6
v 1.3 3.8 -1.7
v 1.4 3.8 -1.7
v 0.5 3.9 -0.8
v 0.6 3.9 -0.8
v 0.8 3.9 -0.8
v 1.3 3.9 -0.8
v 1.4 3.9 -0.8
v 1.9 3.9 -0.8
v 2.1 3.9 -0.8
v 2.2 3.9 -0.8
v 0.5 3.9 -1.6
v 0.6 3.9 -1.6
v 0.8 3.9 -1.6
v 1.3 3.9 -1.6
v 1.4 3.9 -1.6
v 1.9 3.9 -1.6
v 2.1 3.9 -1.6
v 2.2 3.9 -1.6
v 1.3 3.4 -0.6
v 1.4 3.4 -0.6
v 1.3 3.4 -0.7
v 1.4 3.4 -0.7
v 1.1 3.8 -0.6
v 1.6 3.8 -0.6
v 1.1 3.8 -0.7
v 1.6 3.8 -0.7
v 0.3 3.9 -0.7
v 0.5 3.9 -0.7
v 0.6 3.9 -0.7
v 0.8 3.9 -0.7
v 1.1 3.9 -0.7
v 1.6 3.9 -0.7
v 1.9 3.9 -0.7
v 2.1 3.9 -0.7
v 2.2 3.9 -0.7
v 2.4 3.9 -0.7
v 0.3 3.9 -0.8
v 0.5 3.9 -0.8
v 0.6 3.9 -0.8
v 0.8 3.9 -0.8
v 1.1 3.9 -0.8
v 1.6 3.9 -0.8
v 1.9 3.9 -0.8
v 2.1 3.9 -0.8
v 2.2 3.9 -0.8
v 2.4 3.9 -0.8
v 0.3 3.9 -1.6
v 0.5 3.9 -1.6
v 0.6 3.9 -1.6
v 0.8 3.9 -1.6
v 1.1 3.9 -1.6
v 1.6 3.9 -1.6
v 1.9 3.9 -1.6
v 2.1 3.9 -1.6
v 2.2 3.9 -1.6
v 2.4 3.9 -1.6
v 0.5 3.9 -1.7
v 0.6 3.9 -1.7
v 0.8 3.9 -1.7
v 1.1 3.9 -1.7
v 1.6 3.9 -1.7
v 1.9 3.9 -1.7
v 2.1 3.9 -1.7
v 2.2 3.9 -1.7
v 0.3 3.9 -1.9
v 0.8 3.9 -1.9
v 1.1 3.9 -1.9
v 1.6 3.9 -1.9
v 1.9 3.9 -1.9
v 2.4 3.9 -1.9
v 0.8 4.1 -0.6
v 1.1 4.1 -0.6
v 1.6 4.1 -0.6
v 1.9 4.1 -0.6
v 0.8 4.1 -0.7
v 1.1 4.1 -0.7
v 1.6 4.1 -0.7
v 1.9 4.1 -0.7
v 0.3 4.1 -0.8
v 0.5 4.1 -0.8
v 0.6 4.1 -0.8
v 0.8 4.1 -0.8
v 1.1 4.1 -0.8
v 1.6 4.1 -0.8
v 1.9 4.1 -0.8
v 2.1 4.1 -0.8
v 2.2 4.1 -0.8
v 2.4 4.1 -0.8
v 0.3 4.1 -1.6
v 0.5 4.1 -1.6
v 0.6 4.1 -1.6
v 0.8 4.1 -1.6
v 1.1 4.1 -1.6
v 1.6 4.1 -1.6
v 1.9 4.1 -1.6
v 2.1 4.1 -1.6
v 2.2 4.1 -1.6
v 2.4 4.1 -1.6
v 0.8 4.1 -1.9
v 1.1 4.1 -1.9
v 1.6 4.1 -1.9
v 1.9 4.1 -1.9
v 0.8 4.2 -0.7
v 1.1 4.2 -0.7
v 1.6 4.2 -0.7
v 1.9 4.2 -0.7
v 0.8 4.2 -0.8
v 1.1 4.2 -0.8
v 1.6 4.2 -0.8
v 1.9 4.2 -0.8

# faces
f 3/1/1 2/1/1 1/1/1
f 4/1/1 2/1/1 3/1/1
f 5/3/1 4/3/1 3/3/1
f 6/3/1 4/3/1 5/3/1
f 7/3/1 4/3/1 6/3/1
f 8/3/1 4/3/1 7/3/1
f 9/3/1 7/3/1 6/3/1
f 10/3/1 7/3/1 9/3/1
f 13/3/1 12/3/1 11/3/1
f 14/3/1 13/3/1 11/3/1
f 15/3/1 14/3/1 11/3/1
f 20/3/1 15/3/1 11/3/1
f 20/3/1 16/3/1 15/3/1
f 21/3/1 16/3/1 20/3/1
f 22/3/1 16/3/1 21/3/1
f 23/3/1 19/3/1 18/3/1
f 23/3/1 18/3/1 17/3/1
f 24/3/1 19/3/1 23/3/1
f 25/3/1 22/3/1 21/3/1
f 26/3/1 22/3/1 25/3/1
f 29/2/1 28/2/1 27/2/1
f 30/2/1 28/2/1 29/2/1
f 33/4/1 32/4/1 31/4/1
f 34/4/1 32/4/1 33/4/1
f 37/2/1 36/2/1 35/2/1
f 38/2/1 36/2/1 37/2/1
f 41/4/1 40/4/1 39/4/1
f 42/4/1 40/4/1 41/4/1
f 45/3/1 44/3/1 43/3/1
f 50/3/1 45/3/1 43/3/1
f 50/3/1 46/3/1 45/3/1
f 51/3/1 46/3/1 50/3/1
f 52/3/1 46/3/1 51/3/1
f 53/3/1 49/3/1 48/3/1
f 53/3/1 48/3/1 47/3/1
f 54/3/1 49/3/1 53/3/1
f 55/3/1 52/3/1 51/3/1
f 56/3/1 52/3/1 55/3/1
f 59/3/1 58/3/1 57/3/1
f 60/3/1 58/3/1 59/3/1
f 61/3/1 60/3/1 59/3/1
f 62/3/1 60/3/1 61/3/1
f 63/3/2 64/3/2 65/3/2
f 65/3/2 64/3/2 66/3/2
f 65/3/2 66/3/2 67/3/2
f 67/3/2 66/3/2 68/3/2
f 69/3/2 70/3/2 71/3/2
f 69/3/2 71/3/2 76/3/2
f 71/3/2 72/3/2 76/3/2
f 76/3/2 72/3/2 77/3/2
f 77/3/2 72/3/2 78/3/2
f 74/3/2 75/3/2 79/3/2
f 73/3/2 74/3/2 79/3/2
f 79/3/2 75/3/2 80/3/2
f 77/3/2 78/3/2 81/3/2
f 81/3/2 78/3/2 82/3/2
f 83/2/2 84/2/2 85/2/2
f 85/2/2 84/2/2 86/2/2
f 87/4/2 88/4/2 89/4/2
f 89/4/2 88/4/2 90/4/2
f 91/4/2 92/4/2 93/4/2
f 93/4/2 92/4/2 94/4/2
f 95/2/2 96/2/2 97/2/2
f 97/2/2 96/2/2 98/2/2
f 99/3/2 100/3/2 101/3/2
f 99/3/2 101/3/2 102/3/2
f 99/3/2 102/3/2 103/3/2
f 99/3/2 103/3/2 108/3/2
f 103/3/2 104/3/2 108/3/2
f 108/3/2 104/3/2 109/3/2
f 109/3/2 104/3/2 110/3/2
f 106/3/2 107/3/2 111/3/2
f 105/3/2 106/3/2 111/3/2
f 111/3/2 107/3/2 112/3/2
f 109/3/2 110/3/2 113/3/2
f 113/3/2 110/3/2 114/3/2
f 115/1/2 116/1/2 117/1/2
f 117/1/2 116/1/2 118/1/2
f 117/3/2 118/3/2 119/3/2
f 119/3/2 118/3/2 120/3/2
f 120/3/2 118/3/2 121/3/2
f 121/3/2 118/3/2 122/3/2
f 120/3/2 121/3/2 123/3/2
f 123/3/2 121/3/2 124/3/2
f 128/3/3 126/3/3 125/3/3
f 129/3/3 126/3/3 128/3/3
f 130/3/3 126/3/3 129/3/3
f 131/2/3 128/2/3 127/2/3
f 131/2/3 129/2/3 128/2/3
f 132/2/3 129/2/3 131/2/3
f 133/2/3 131/2/3 127/2/3
f 134/2/3 129/2/3 132/2/3
f 135/2/3 133/2/3 127/2/3
f 135/2/3 134/2/3 133/2/3
f 136/2/3 134/2/3 135/2/3
f 137/2/3 129/2/3 134/2/3
f 137/2/3 134/2/3 136/2/3
f 139/3/3 138/3/3 137/3/3
f 139/3/3 137/3/3 136/3/3
f 140/3/3 138/3/3 139/3/3
f 144/1/3 142/1/3 141/1/3
f 144/3/3 143/3/3 142/3/3
f 145/3/3 143/3/3 144/3/3
f 146/1/3 144/1/3 141/1/3
f 146/2/3 145/2/3 144/2/3
f 147/2/3 145/2/3 146/2/3
f 148/1/3 146/1/3 141/1/3
f 149/5/3 147/5/3 146/5/3
f 149/1/3 146/1/3 148/1/3
f 150/5/3 147/5/3 149/5/3
f 155/3/3 152/3/3 151/3/3
f 156/3/3 152/3/3 155/3/3
f 157/4/3 154/4/3 153/4/3
f 158/4/3 154/4/3 157/4/3
f 164/3/3 160/3/3 159/3/3
f 165/3/3 160/3/3 164/3/3
f 166/5/3 163/5/3 162/5/3
f 166/1/3 162/1/3 161/1/3
f 167/5/3 163/5/3 166/5/3
f 168/1/3 166/1/3 161/1/3
f 168/2/3 167/2/3 166/2/3
f 169/2/3 167/2/3 168/2/3
f 170/1/3 168/1/3 161/1/3
f 171/3/3 169/3/3 168/3/3
f 171/1/3 168/1/3 170/1/3
f 172/3/3 169/3/3 171/3/3
f 175/3/3 174/3/3 173/3/3
f 176/3/3 174/3/3 175/3/3
f 177/2/3 176/2/3 175/2/3
f 178/2/3 176/2/3 177/2/3
f 179/5/3 178/5/3 177/5/3
f 180/5/3 178/5/3 179/5/3
f 183/4/3 182/4/3 181/4/3
f 184/4/3 182/4/3 183/4/3
f 187/5/3 186/5/3 185/5/3
f 188/5/3 186/5/3 187/5/3
f 189/2/3 188/2/3 187/2/3
f 190/2/3 188/2/3 189/2/3
f 191/3/3 190/3/3 189/3/3
f 192/3/3 190/3/3 191/3/3
f 196/4/3 194/4/3 193/4/3
f 197/2/3 195/2/3 194/2/3
f 197/4/3 194/4/3 196/4/3
f 198/2/3 195/2/3 197/2/3
f 199/5/3 197/5/3 196/5/3
f 199/5/3 198/5/3 197/5/3
f 200/5/3 198/5/3 199/5/3
f 201/4/3 200/4/3 199/4/3
f 202/4/3 200/4/3 201/4/3
f 203/4/3 200/4/3 202/4/3
f 207/4/3 205/4/3 204/4/3
f 207/4/3 206/4/3 205/4/3
f 208/4/3 206/4/3 207/4/3
f 209/5/3 208/5/3 207/5/3
f 210/5/3 208/5/3 209/5/3
f 211/5/3 208/5/3 210/5/3
f 212/4/3 210/4/3 209/4/3
f 213/2/3 211/2/3 210/2/3
f 213/4/3 210/4/3 212/4/3
f 214/2/3 211/2/3 213/2/3
f 217/3/3 216/3/3 215/3/3
f 218/3/3 216/3/3 217/3/3
f 219/3/4 220/3/4 222/3/4
f 222/3/4 220/3/4 223/3/4
f 221/2/4 222/2/4 224/2/4
f 222/2/4 223/2/4 224/2/4
f 224/2/4 223/2/4 225/2/4
f 221/2/4 224/2/4 226/2/4
f 221/2/4 226/2/4 228/2/4
f 226/2/4 227/2/4 228/2/4
f 228/2/4 227/2/4 229/2/4
f 229/2/4 227/2/4 230/2/4
f 229/3/4 230/3/4 231/3/4
f 231/3/4 230/3/4 232/3/4
f 233/1/4 234/1/4 236/1/4
f 234/2/4 235/2/4 236/2/4
f 236/2/4 235/2/4 237/2/4
f 233/1/4 236/1/4 238/1/4
f 236/5/4 237/5/4 238/5/4
f 238/5/4 237/5/4 239/5/4
f 240/3/4 241/3/4 242/3/4
f 242/3/4 241/3/4 243/3/4
f 238/4/4 239/4/4 244/4/4
f 233/1/4 238/1/4 244/1/4
f 244/4/4 239/4/4 245/4/4
f 233/1/4 244/1/4 246/1/4
f 246/4/4 247/4/4 250/4/4
f 233/1/4 246/1/4 250/1/4
f 250/4/4 247/4/4 251/4/4
f 248/3/4 249/3/4 252/3/4
f 252/3/4 249/3/4 253/3/4
f 250/5/4 251/5/4 254/5/4
f 233/1/4 250/1/4 254/1/4
f 254/5/4 251/5/4 255/5/4
f 233/1/4 254/1/4 256/1/4
f 254/2/4 255/2/4 257/2/4
f 256/1/4 254/1/4 257/1/4
f 257/2/4 255/2/4 258/2/4
f 259/3/4 260/3/4 261/3/4
f 261/3/4 260/3/4 262/3/4
f 261/2/4 262/2/4 263/2/4
f 263/2/4 262/2/4 264/2/4
f 263/5/4 264/5/4 265/5/4
f 265/5/4 264/5/4 266/5/4
f 267/4/4 268/4/4 269/4/4
f 269/4/4 268/4/4 270/4/4
f 271/5/4 272/5/4 273/5/4
f 273/5/4 272/5/4 274/5/4
f 273/2/4 274/2/4 275/2/4
f 275/2/4 274/2/4 276/2/4
f 275/3/4 276/3/4 277/3/4
f 277/3/4 276/3/4 278/3/4
f 279/1/4 280/1/4 282/1/4
f 280/3/4 281/3/4 283/3/4
f 282/1/4 280/1/4 283/1/4
f 282/3/4 283/3/4 284/3/4
f 283/3/4 281/3/4 284/3/4
f 282/3/4 284/3/4 286/3/4
f 284/3/4 285/3/4 286/3/4
f 286/3/4 285/3/4 287/3/4
f 282/3/4 286/3/4 288/3/4
f 282/3/4 288/3/4 290/3/4
f 288/3/4 289/3/4 290/3/4
f 290/3/4 289/3/4 291/3/4
f 282/3/4 290/3/4 292/3/4
f 292/3/4 290/3/4 293/3/4
f 292/1/4 293/1/4 294/1/4
f 293/3/4 290/3/4 295/3/4
f 294/1/4 293/1/4 295/1/4
f 295/3/4 290/3/4 296/3/4
f 299/2/5 298/2/5 297/2/5
f 300/2/5 298/2/5 299/2/5
f 305/3/5 302/3/5 301/3/5
f 306/3/5 302/3/5 305/3/5
f 307/3/5 304/3/5 303/3/5
f 308/3/5 304/3/5 307/3/5
f 314/2/5 310/2/5 309/2/5
f 315/2/5 310/2/5 314/2/5
f 319/1/5 313/1/5 312/1/5
f 319/1/5 318/1/5 317/1/5
f 319/1/5 317/1/5 316/1/5
f 319/1/5 316/1/5 315/1/5
f 319/1/5 315/1/5 314/1/5
f 319/1/5 314/1/5 313/1/5
f 319/1/5 312/1/5 311/1/5
f 320/1/5 318/1/5 319/1/5
f 321/1/5 318/1/5 320/1/5
f 322/1/5 318/1/5 321/1/5
f 323/3/5 320/3/5 319/3/5
f 330/3/5 322/3/5 321/3/5
f 331/3/5 323/3/5 319/3/5
f 331/4/5 324/4/5 323/4/5
f 332/5/5 325/5/5 324/5/5
f 332/4/5 324/4/5 331/4/5
f 333/4/5 326/4/5 325/4/5
f 333/5/5 325/5/5 332/5/5
f 334/4/5 326/4/5 333/4/5
f 335/4/5 328/4/5 327/4/5
f 336/5/5 329/5/5 328/5/5
f 336/4/5 328/4/5 335/4/5
f 337/4/5 330/4/5 329/4/5
f 337/5/5 329/5/5 336/5/5
f 338/3/5 322/3/5 330/3/5
f 338/4/5 330/4/5 337/4/5
f 339/1/5 319/1/5 311/1/5
f 340/3/5 335/3/5 334/3/5
f 340/1/5 319/1/5 339/1/5
f 340/3/5 336/3/5 335/3/5
f 340/3/5 338/3/5 337/3/5
f 340/3/5 337/3/5 336/3/5
f 340/3/5 333/3/5 332/3/5
f 340/3/5 331/3/5 319/3/5
f 340/3/5 334/3/5 333/3/5
f 340/3/5 332/3/5 331/3/5
f 341/3/5 322/3/5 338/3/5
f 341/3/5 338/3/5 340/3/5
f 341/1/5 318/1/5 322/1/5
f 342/1/5 318/1/5 341/1/5
f 345/4/5 344/4/5 343/4/5
f 346/4/5 344/4/5 345/4/5
f 347/4/5 346/4/5 345/4/5
f 348/4/5 346/4/5 347/4/5
f 357/2/5 350/2/5 349/2/5
f 358/5/5 351/5/5 350/5/5
f 358/2/5 350/2/5 357/2/5
f 359/4/5 352/4/5 351/4/5
f 359/5/5 351/5/5 358/5/5
f 360/4/5 352/4/5 359/4/5
f 361/4/5 354/4/5 353/4/5
f 362/5/5 355/5/5 354/5/5
f 362/4/5 354/4/5 361/4/5
f 363/2/5 356/2/5 355/2/5
f 363/5/5 355/5/5 362/5/5
f 364/2/5 356/2/5 363/2/5
f 365/2/6 366/2/6 367/2/6
f 367/2/6 366/2/6 368/2/6
f 369/2/6 370/2/6 371/2/6
f 371/2/6 370/2/6 372/2/6
f 373/3/6 374/3/6 383/3/6
f 374/2/6 375/2/6 384/2/6
f 383/3/6 374/3/6 384/3/6
f 375/5/6 376/5/6 385/5/6
f 384/2/6 375/2/6 385/2/6
f 385/5/6 376/5/6 386/5/6
f 377/4/6 378/4/6 387/4/6
f 387/4/6 378/4/6 388/4/6
f 379/5/6 380/5/6 389/5/6
f 380/2/6 381/2/6 390/2/6
f 389/5/6 380/5/6 390/5/6
f 381/3/6 382/3/6 391/3/6
f 390/2/6 381/2/6 391/2/6
f 391/3/6 382/3/6 392/3/6
f 393/3/6 394/3/6 403/3/6
f 394/2/6 395/2/6 403/2/6
f 395/5/6 396/5/6 404/5/6
f 403/2/6 395/2/6 404/2/6
f 404/5/6 396/5/6 405/5/6
f 397/4/6 398/4/6 406/4/6
f 406/4/6 398/4/6 407/4/6
f 399/5/6 400/5/6 408/5/6
f 400/2/6 401/2/6 409/2/6
f 408/5/6 400/5/6 409/5/6
f 401/3/6 402/3/6 410/3/6
f 409/2/6 401/2/6 410/2/6
f 393/3/6 403/3/6 411/3/6
f 404/3/6 405/3/6 411/3/6
f 403/3/6 404/3/6 411/3/6
f 411/3/6 405/3/6 412/3/6
f 406/3/6 407/3/6 413/3/6
f 413/3/6 407/3/6 414/3/6
f 408/3/6 409/3/6 415/3/6
f 409/3/6 410/3/6 415/3/6
f 410/3/6 402/3/6 416/3/6
f 415/3/6 410/3/6 416/3/6
f 417/3/6 418/3/6 421/3/6
f 421/3/6 418/3/6 422/3/6
f 419/3/6 420/3/6 423/3/6
f 423/3/6 420/3/6 424/3/6
f 425/3/6 426/3/6 435/3/6
f 426/2/6 427/2/6 436/2/6
f 435/3/6 426/3/6 436/3/6
f 427/5/6 428/5/6 437/5/6
f 436/2/6 427/2/6 437/2/6
f 430/4/6 431/4/6 438/4/6
f 437/5/6 428/5/6 438/5/6
f 428/4/6 429/4/6 438/4/6
f 429/4/6 430/4/6 438/4/6
f 438/4/6 431/4/6 439/4/6
f 439/4/6 431/4/6 440/4/6
f 431/5/6 432/5/6 441/5/6
f 440/4/6 431/4/6 441/4/6
f 432/2/6 433/2/6 442/2/6
f 441/5/6 432/5/6 442/5/6
f 433/3/6 434/3/6 443/3/6
f 442/2/6 433/2/6 443/2/6
f 443/3/6 434/3/6 444/3/6
f 438/3/6 439/3/6 445/3/6
f 445/3/6 439/3/6 446/3/6
f 440/3/6 441/3/6 447/3/6
f 447/3/6 441/3/6 448/3/6
f 449/3/6 450/3/6 453/3/6
f 453/3/6 450/3/6 454/3/6
f 451/3/6 452/3/6 455/3/6
f 455/3/6 452/3/6 456/3/6
