# MagicaVoxel @ Ephtracy

# group
o 

# material
mtllib Wood1.mtl
usemtl palette

# normals
vn -1 0 0
vn 1 0 0
vn 0 0 1
vn 0 0 -1
vn 0 -1 0
vn 0 1 0

# texcoords
vt 0.978516 0.5
vt 0.982422 0.5
vt 0.986328 0.5

# verts
v 0.6 2 -0.8
v 0.6 2 -1.8
v 0.6 2.8 -0.8
v 0.6 2.8 -1.8
v 1.4 2 -0.7
v 1.4 2 -0.8
v 1.4 2.2 -0.8
v 1.4 2.5 -0.7
v 1.4 2.5 -0.8
v 2.1 2 -0.9
v 2.1 2 -1.7
v 2.1 2.6 -0.9
v 2.1 2.6 -1.7
v 2.1 2.8 -0.9
v 2.1 2.8 -1.7
v 0.8 2 -0.9
v 0.8 2 -1.7
v 0.8 2.8 -0.9
v 0.8 2.8 -1.7
v 1.5 2 -0.7
v 1.5 2 -0.8
v 1.5 2.2 -0.8
v 1.5 2.5 -0.7
v 1.5 2.5 -0.8
v 2.3 2 -0.8
v 2.3 2 -1.8
v 2.3 2.6 -0.9
v 2.3 2.6 -1.7
v 2.3 2.8 -0.8
v 2.3 2.8 -0.9
v 2.3 2.8 -1.7
v 2.3 2.8 -1.8
v 1.4 2 -0.7
v 1.4 2.5 -0.7
v 1.5 2 -0.7
v 1.5 2.5 -0.7
v 0.6 2 -0.8
v 0.6 2.8 -0.8
v 0.8 2 -0.8
v 0.8 2.8 -0.8
v 0.9 2 -0.8
v 0.9 2.2 -0.8
v 0.9 2.8 -0.8
v 1.4 2 -0.8
v 1.4 2.2 -0.8
v 1.4 2.5 -0.8
v 1.5 2 -0.8
v 1.5 2.2 -0.8
v 1.5 2.5 -0.8
v 2 2 -0.8
v 2 2.2 -0.8
v 2 2.8 -0.8
v 2.1 2 -0.8
v 2.1 2.8 -0.8
v 2.3 2 -0.8
v 2.3 2.8 -0.8
v 0.8 2 -1.7
v 0.8 2.8 -1.7
v 0.9 2 -1.7
v 0.9 2.2 -1.7
v 0.9 2.8 -1.7
v 2 2 -1.7
v 2 2.2 -1.7
v 2 2.8 -1.7
v 2.1 2 -1.7
v 2.1 2.6 -1.7
v 2.1 2.8 -1.7
v 0.8 2 -0.9
v 0.8 2.8 -0.9
v 0.9 2 -0.9
v 0.9 2.2 -0.9
v 0.9 2.8 -0.9
v 2 2 -0.9
v 2 2.2 -0.9
v 2 2.8 -0.9
v 2.1 2 -0.9
v 2.1 2.6 -0.9
v 2.1 2.8 -0.9
v 0.6 2 -1.8
v 0.6 2.8 -1.8
v 0.8 2 -1.8
v 0.8 2.8 -1.8
v 0.9 2 -1.8
v 0.9 2.2 -1.8
v 0.9 2.8 -1.8
v 2 2 -1.8
v 2 2.2 -1.8
v 2 2.8 -1.8
v 2.1 2 -1.8
v 2.1 2.8 -1.8
v 2.3 2 -1.8
v 2.3 2.8 -1.8
v 1.4 2 -0.7
v 1.5 2 -0.7
v 0.6 2 -0.8
v 0.8 2 -0.8
v 0.9 2 -0.8
v 1.4 2 -0.8
v 1.5 2 -0.8
v 2 2 -0.8
v 2.1 2 -0.8
v 2.3 2 -0.8
v 0.8 2 -0.9
v 0.9 2 -0.9
v 2 2 -0.9
v 2.1 2 -0.9
v 0.8 2 -1.7
v 0.9 2 -1.7
v 2 2 -1.7
v 2.1 2 -1.7
v 0.6 2 -1.8
v 0.8 2 -1.8
v 0.9 2 -1.8
v 2 2 -1.8
v 2.1 2 -1.8
v 2.3 2 -1.8
v 1.4 2.5 -0.7
v 1.5 2.5 -0.7
v 1.4 2.5 -0.8
v 1.5 2.5 -0.8
v 0.6 2.8 -0.8
v 0.8 2.8 -0.8
v 0.9 2.8 -0.8
v 2 2.8 -0.8
v 2.1 2.8 -0.8
v 2.3 2.8 -0.8
v 0.8 2.8 -0.9
v 0.9 2.8 -0.9
v 2 2.8 -0.9
v 2.1 2.8 -0.9
v 2.3 2.8 -0.9
v 0.8 2.8 -1.7
v 0.9 2.8 -1.7
v 2 2.8 -1.7
v 2.1 2.8 -1.7
v 2.3 2.8 -1.7
v 0.6 2.8 -1.8
v 0.8 2.8 -1.8
v 0.9 2.8 -1.8
v 2 2.8 -1.8
v 2.1 2.8 -1.8
v 2.3 2.8 -1.8

# faces
f 3/2/1 2/2/1 1/2/1
f 4/2/1 2/2/1 3/2/1
f 7/3/1 6/3/1 5/3/1
f 8/3/1 7/3/1 5/3/1
f 9/3/1 7/3/1 8/3/1
f 12/2/1 11/2/1 10/2/1
f 13/2/1 11/2/1 12/2/1
f 14/3/1 13/3/1 12/3/1
f 15/3/1 13/3/1 14/3/1
f 16/2/2 17/2/2 18/2/2
f 18/2/2 17/2/2 19/2/2
f 20/3/2 21/3/2 22/3/2
f 20/3/2 22/3/2 23/3/2
f 23/3/2 22/3/2 24/3/2
f 25/2/2 26/2/2 27/2/2
f 27/2/2 26/2/2 28/2/2
f 25/2/2 27/2/2 29/2/2
f 27/3/2 28/3/2 30/3/2
f 29/2/2 27/2/2 30/2/2
f 28/2/2 26/2/2 31/2/2
f 30/3/2 28/3/2 31/3/2
f 31/2/2 26/2/2 32/2/2
f 35/3/3 34/3/3 33/3/3
f 36/3/3 34/3/3 35/3/3
f 39/2/3 38/2/3 37/2/3
f 40/2/3 38/2/3 39/2/3
f 41/3/3 40/3/3 39/3/3
f 42/3/3 40/3/3 41/3/3
f 43/3/3 40/3/3 42/3/3
f 44/2/3 42/2/3 41/2/3
f 45/1/3 43/1/3 42/1/3
f 45/2/3 42/2/3 44/2/3
f 46/1/3 43/1/3 45/1/3
f 49/1/3 43/1/3 46/1/3
f 50/2/3 48/2/3 47/2/3
f 51/1/3 49/1/3 48/1/3
f 51/2/3 48/2/3 50/2/3
f 52/1/3 43/1/3 49/1/3
f 52/1/3 49/1/3 51/1/3
f 53/3/3 51/3/3 50/3/3
f 53/3/3 52/3/3 51/3/3
f 54/3/3 52/3/3 53/3/3
f 55/2/3 54/2/3 53/2/3
f 56/2/3 54/2/3 55/2/3
f 59/3/3 58/3/3 57/3/3
f 60/3/3 58/3/3 59/3/3
f 61/3/3 58/3/3 60/3/3
f 62/2/3 60/2/3 59/2/3
f 63/1/3 61/1/3 60/1/3
f 63/2/3 60/2/3 62/2/3
f 64/1/3 61/1/3 63/1/3
f 65/3/3 63/3/3 62/3/3
f 65/3/3 64/3/3 63/3/3
f 66/3/3 64/3/3 65/3/3
f 67/3/3 64/3/3 66/3/3
f 68/3/4 69/3/4 70/3/4
f 70/3/4 69/3/4 71/3/4
f 71/3/4 69/3/4 72/3/4
f 70/2/4 71/2/4 73/2/4
f 71/1/4 72/1/4 74/1/4
f 73/2/4 71/2/4 74/2/4
f 74/1/4 72/1/4 75/1/4
f 73/3/4 74/3/4 76/3/4
f 74/3/4 75/3/4 76/3/4
f 76/3/4 75/3/4 77/3/4
f 77/3/4 75/3/4 78/3/4
f 79/2/4 80/2/4 81/2/4
f 81/2/4 80/2/4 82/2/4
f 81/3/4 82/3/4 83/3/4
f 83/3/4 82/3/4 84/3/4
f 84/3/4 82/3/4 85/3/4
f 83/2/4 84/2/4 86/2/4
f 84/1/4 85/1/4 87/1/4
f 86/2/4 84/2/4 87/2/4
f 87/1/4 85/1/4 88/1/4
f 86/3/4 87/3/4 89/3/4
f 87/3/4 88/3/4 89/3/4
f 89/3/4 88/3/4 90/3/4
f 89/2/4 90/2/4 91/2/4
f 91/2/4 90/2/4 92/2/4
f 98/3/5 94/3/5 93/3/5
f 99/3/5 94/3/5 98/3/5
f 103/3/5 97/3/5 96/3/5
f 103/2/5 96/2/5 95/2/5
f 104/2/5 98/2/5 97/2/5
f 104/3/5 97/3/5 103/3/5
f 104/2/5 99/2/5 98/2/5
f 104/2/5 100/2/5 99/2/5
f 105/3/5 101/3/5 100/3/5
f 105/2/5 100/2/5 104/2/5
f 106/2/5 102/2/5 101/2/5
f 106/3/5 101/3/5 105/3/5
f 107/2/5 103/2/5 95/2/5
f 110/2/5 102/2/5 106/2/5
f 111/2/5 107/2/5 95/2/5
f 112/3/5 108/3/5 107/3/5
f 112/2/5 107/2/5 111/2/5
f 113/2/5 109/2/5 108/2/5
f 113/3/5 108/3/5 112/3/5
f 114/3/5 110/3/5 109/3/5
f 114/2/5 109/2/5 113/2/5
f 115/2/5 102/2/5 110/2/5
f 115/3/5 110/3/5 114/3/5
f 116/2/5 102/2/5 115/2/5
f 117/3/6 118/3/6 119/3/6
f 119/3/6 118/3/6 120/3/6
f 121/2/6 122/2/6 127/2/6
f 122/3/6 123/3/6 127/3/6
f 123/1/6 124/1/6 128/1/6
f 127/3/6 123/3/6 128/3/6
f 124/3/6 125/3/6 129/3/6
f 128/1/6 124/1/6 129/1/6
f 125/2/6 126/2/6 130/2/6
f 129/3/6 125/3/6 130/3/6
f 130/2/6 126/2/6 131/2/6
f 121/2/6 127/2/6 132/2/6
f 130/3/6 131/3/6 135/3/6
f 135/3/6 131/3/6 136/3/6
f 121/2/6 132/2/6 137/2/6
f 132/3/6 133/3/6 138/3/6
f 137/2/6 132/2/6 138/2/6
f 133/1/6 134/1/6 139/1/6
f 138/3/6 133/3/6 139/3/6
f 134/3/6 135/3/6 140/3/6
f 139/1/6 134/1/6 140/1/6
f 135/2/6 136/2/6 141/2/6
f 140/3/6 135/3/6 141/3/6
f 141/2/6 136/2/6 142/2/6
