# MagicaVoxel @ Ephtracy

# group
o 

# material
mtllib Wood0.mtl
usemtl palette

# normals
vn -1 0 0
vn 1 0 0
vn 0 0 1
vn 0 0 -1
vn 0 -1 0
vn 0 1 0

# texcoords
vt 0.970703 0.5
vt 0.982422 0.5
vt 0.986328 0.5

# verts
v 0.6 3.4 -0.8
v 0.6 3.4 -1.8
v 0.6 3.7 -0.8
v 0.6 3.7 -0.9
v 0.6 3.7 -1.7
v 0.6 3.7 -1.8
v 0.6 3.8 -0.9
v 0.6 3.8 -1.7
v 1.2 3.1 -0.7
v 1.2 3.1 -0.8
v 1.2 3.4 -0.8
v 1.2 3.5 -0.7
v 1.2 3.5 -0.8
v 1.5 3.2 -0.7
v 1.5 3.2 -0.8
v 1.5 3.4 -0.7
v 1.5 3.4 -0.8
v 2 3.5 -0.9
v 2 3.5 -1.1
v 2 3.7 -0.9
v 2 3.7 -1.1
v 2.1 3.4 -0.9
v 2.1 3.4 -1.7
v 2.1 3.5 -0.9
v 2.1 3.5 -1.1
v 2.1 3.7 -1.1
v 2.1 3.7 -1.7
v 0.8 3.4 -0.9
v 0.8 3.4 -1.7
v 0.8 3.5 -0.9
v 0.8 3.5 -1.1
v 0.8 3.5 -1.5
v 0.8 3.5 -1.7
v 0.8 3.7 -1.1
v 0.8 3.7 -1.5
v 0.9 3.5 -0.9
v 0.9 3.5 -1.1
v 0.9 3.5 -1.5
v 0.9 3.5 -1.7
v 0.9 3.7 -0.9
v 0.9 3.7 -1.1
v 0.9 3.7 -1.5
v 0.9 3.7 -1.7
v 1.4 3.2 -0.7
v 1.4 3.2 -0.8
v 1.4 3.4 -0.7
v 1.4 3.4 -0.8
v 1.7 3.1 -0.7
v 1.7 3.1 -0.8
v 1.7 3.4 -0.8
v 1.7 3.5 -0.7
v 1.7 3.5 -0.8
v 2.3 3.4 -0.8
v 2.3 3.4 -1.8
v 2.3 3.7 -0.8
v 2.3 3.7 -0.9
v 2.3 3.7 -1.7
v 2.3 3.7 -1.8
v 2.3 3.8 -0.9
v 2.3 3.8 -1.7
v 1.2 3.1 -0.7
v 1.2 3.5 -0.7
v 1.4 3.2 -0.7
v 1.4 3.4 -0.7
v 1.5 3.2 -0.7
v 1.5 3.4 -0.7
v 1.7 3.1 -0.7
v 1.7 3.5 -0.7
v 0.6 3.4 -0.8
v 0.6 3.7 -0.8
v 0.8 3.4 -0.8
v 0.8 3.7 -0.8
v 0.9 3.4 -0.8
v 0.9 3.7 -0.8
v 1.2 3.4 -0.8
v 1.2 3.5 -0.8
v 1.7 3.4 -0.8
v 1.7 3.5 -0.8
v 2 3.4 -0.8
v 2 3.7 -0.8
v 2.1 3.4 -0.8
v 2.1 3.7 -0.8
v 2.3 3.4 -0.8
v 2.3 3.7 -0.8
v 0.6 3.7 -0.9
v 0.6 3.8 -0.9
v 0.8 3.7 -0.9
v 0.8 3.8 -0.9
v 0.9 3.7 -0.9
v 0.9 3.8 -0.9
v 2 3.7 -0.9
v 2 3.8 -0.9
v 2.1 3.7 -0.9
v 2.1 3.8 -0.9
v 2.3 3.7 -0.9
v 2.3 3.8 -0.9
v 0.8 3.5 -1.5
v 0.8 3.7 -1.5
v 0.9 3.5 -1.5
v 0.9 3.7 -1.5
v 0.8 3.4 -1.7
v 0.8 3.5 -1.7
v 0.9 3.4 -1.7
v 0.9 3.5 -1.7
v 0.9 3.7 -1.7
v 2 3.4 -1.7
v 2 3.7 -1.7
v 2.1 3.4 -1.7
v 2.1 3.7 -1.7
v 1.2 3.1 -0.8
v 1.2 3.4 -0.8
v 1.4 3.2 -0.8
v 1.4 3.4 -0.8
v 1.5 3.2 -0.8
v 1.5 3.4 -0.8
v 1.7 3.1 -0.8
v 1.7 3.4 -0.8
v 0.8 3.4 -0.9
v 0.8 3.5 -0.9
v 0.9 3.4 -0.9
v 0.9 3.5 -0.9
v 0.9 3.7 -0.9
v 2 3.4 -0.9
v 2 3.5 -0.9
v 2 3.7 -0.9
v 2.1 3.4 -0.9
v 2.1 3.5 -0.9
v 0.8 3.5 -1.1
v 0.8 3.7 -1.1
v 0.9 3.5 -1.1
v 0.9 3.7 -1.1
v 2 3.5 -1.1
v 2 3.7 -1.1
v 2.1 3.5 -1.1
v 2.1 3.7 -1.1
v 0.6 3.7 -1.7
v 0.6 3.8 -1.7
v 0.8 3.7 -1.7
v 0.8 3.8 -1.7
v 0.9 3.7 -1.7
v 0.9 3.8 -1.7
v 2 3.7 -1.7
v 2 3.8 -1.7
v 2.1 3.7 -1.7
v 2.1 3.8 -1.7
v 2.3 3.7 -1.7
v 2.3 3.8 -1.7
v 0.6 3.4 -1.8
v 0.6 3.7 -1.8
v 0.8 3.4 -1.8
v 0.8 3.7 -1.8
v 0.9 3.4 -1.8
v 0.9 3.7 -1.8
v 2 3.4 -1.8
v 2 3.7 -1.8
v 2.1 3.4 -1.8
v 2.1 3.7 -1.8
v 2.3 3.4 -1.8
v 2.3 3.7 -1.8
v 1.2 3.1 -0.7
v 1.7 3.1 -0.7
v 1.2 3.1 -0.8
v 1.7 3.1 -0.8
v 1.4 3.4 -0.7
v 1.5 3.4 -0.7
v 0.6 3.4 -0.8
v 0.8 3.4 -0.8
v 0.9 3.4 -0.8
v 1.2 3.4 -0.8
v 1.4 3.4 -0.8
v 1.5 3.4 -0.8
v 1.7 3.4 -0.8
v 2 3.4 -0.8
v 2.1 3.4 -0.8
v 2.3 3.4 -0.8
v 0.8 3.4 -0.9
v 0.9 3.4 -0.9
v 2 3.4 -0.9
v 2.1 3.4 -0.9
v 0.8 3.4 -1.7
v 0.9 3.4 -1.7
v 2 3.4 -1.7
v 2.1 3.4 -1.7
v 0.6 3.4 -1.8
v 0.8 3.4 -1.8
v 0.9 3.4 -1.8
v 2 3.4 -1.8
v 2.1 3.4 -1.8
v 2.3 3.4 -1.8
v 0.8 3.5 -0.9
v 0.9 3.5 -0.9
v 2 3.5 -0.9
v 2.1 3.5 -0.9
v 0.8 3.5 -1.1
v 0.9 3.5 -1.1
v 2 3.5 -1.1
v 2.1 3.5 -1.1
v 0.8 3.5 -1.5
v 0.9 3.5 -1.5
v 0.8 3.5 -1.7
v 0.9 3.5 -1.7
v 0.9 3.7 -0.9
v 2 3.7 -0.9
v 0.8 3.7 -1.1
v 0.9 3.7 -1.1
v 2 3.7 -1.1
v 2.1 3.7 -1.1
v 0.8 3.7 -1.5
v 0.9 3.7 -1.5
v 0.9 3.7 -1.7
v 2 3.7 -1.7
v 2.1 3.7 -1.7
v 1.4 3.2 -0.7
v 1.5 3.2 -0.7
v 1.4 3.2 -0.8
v 1.5 3.2 -0.8
v 1.2 3.5 -0.7
v 1.7 3.5 -0.7
v 1.2 3.5 -0.8
v 1.7 3.5 -0.8
v 0.6 3.7 -0.8
v 0.8 3.7 -0.8
v 0.9 3.7 -0.8
v 2 3.7 -0.8
v 2.1 3.7 -0.8
v 2.3 3.7 -0.8
v 0.6 3.7 -0.9
v 0.8 3.7 -0.9
v 0.9 3.7 -0.9
v 2 3.7 -0.9
v 2.1 3.7 -0.9
v 2.3 3.7 -0.9
v 0.6 3.7 -1.7
v 0.8 3.7 -1.7
v 0.9 3.7 -1.7
v 2 3.7 -1.7
v 2.1 3.7 -1.7
v 2.3 3.7 -1.7
v 0.6 3.7 -1.8
v 0.8 3.7 -1.8
v 0.9 3.7 -1.8
v 2 3.7 -1.8
v 2.1 3.7 -1.8
v 2.3 3.7 -1.8
v 0.6 3.8 -0.9
v 0.8 3.8 -0.9
v 0.9 3.8 -0.9
v 2 3.8 -0.9
v 2.1 3.8 -0.9
v 2.3 3.8 -0.9
v 0.6 3.8 -1.7
v 0.8 3.8 -1.7
v 0.9 3.8 -1.7
v 2 3.8 -1.7
v 2.1 3.8 -1.7
v 2.3 3.8 -1.7

# faces
f 3/2/1 2/2/1 1/2/1
f 4/2/1 2/2/1 3/2/1
f 5/2/1 2/2/1 4/2/1
f 6/2/1 2/2/1 5/2/1
f 7/2/1 5/2/1 4/2/1
f 8/2/1 5/2/1 7/2/1
f 11/1/1 10/1/1 9/1/1
f 12/1/1 11/1/1 9/1/1
f 13/1/1 11/1/1 12/1/1
f 16/1/1 15/1/1 14/1/1
f 17/1/1 15/1/1 16/1/1
f 20/2/1 19/2/1 18/2/1
f 21/2/1 19/2/1 20/2/1
f 24/2/1 23/2/1 22/2/1
f 25/2/1 23/2/1 24/2/1
f 26/2/1 23/2/1 25/2/1
f 27/2/1 23/2/1 26/2/1
f 28/2/2 29/2/2 30/2/2
f 30/2/2 29/2/2 31/2/2
f 31/2/2 29/2/2 32/2/2
f 32/2/2 29/2/2 33/2/2
f 31/2/2 32/2/2 34/2/2
f 34/2/2 32/2/2 35/2/2
f 36/3/2 37/3/2 40/3/2
f 40/3/2 37/3/2 41/3/2
f 38/3/2 39/3/2 42/3/2
f 42/3/2 39/3/2 43/3/2
f 44/1/2 45/1/2 46/1/2
f 46/1/2 45/1/2 47/1/2
f 48/1/2 49/1/2 50/1/2
f 48/1/2 50/1/2 51/1/2
f 51/1/2 50/1/2 52/1/2
f 53/2/2 54/2/2 55/2/2
f 55/2/2 54/2/2 56/2/2
f 56/2/2 54/2/2 57/2/2
f 57/2/2 54/2/2 58/2/2
f 56/2/2 57/2/2 59/2/2
f 59/2/2 57/2/2 60/2/2
f 63/1/3 62/1/3 61/1/3
f 64/1/3 62/1/3 63/1/3
f 65/1/3 63/1/3 61/1/3
f 66/1/3 62/1/3 64/1/3
f 67/1/3 65/1/3 61/1/3
f 67/1/3 66/1/3 65/1/3
f 68/1/3 62/1/3 66/1/3
f 68/1/3 66/1/3 67/1/3
f 71/2/3 70/2/3 69/2/3
f 72/2/3 70/2/3 71/2/3
f 73/3/3 72/3/3 71/3/3
f 74/3/3 72/3/3 73/3/3
f 75/2/3 74/2/3 73/2/3
f 76/2/3 74/2/3 75/2/3
f 78/2/3 74/2/3 76/2/3
f 79/2/3 78/2/3 77/2/3
f 80/2/3 74/2/3 78/2/3
f 80/2/3 78/2/3 79/2/3
f 81/3/3 80/3/3 79/3/3
f 82/3/3 80/3/3 81/3/3
f 83/2/3 82/2/3 81/2/3
f 84/2/3 82/2/3 83/2/3
f 87/2/3 86/2/3 85/2/3
f 88/2/3 86/2/3 87/2/3
f 89/3/3 88/3/3 87/3/3
f 90/3/3 88/3/3 89/3/3
f 91/2/3 90/2/3 89/2/3
f 92/2/3 90/2/3 91/2/3
f 93/3/3 92/3/3 91/3/3
f 94/3/3 92/3/3 93/3/3
f 95/2/3 94/2/3 93/2/3
f 96/2/3 94/2/3 95/2/3
f 99/3/3 98/3/3 97/3/3
f 100/3/3 98/3/3 99/3/3
f 103/3/3 102/3/3 101/3/3
f 104/3/3 102/3/3 103/3/3
f 106/2/3 104/2/3 103/2/3
f 106/2/3 105/2/3 104/2/3
f 107/2/3 105/2/3 106/2/3
f 108/3/3 107/3/3 106/3/3
f 109/3/3 107/3/3 108/3/3
f 110/1/4 111/1/4 112/1/4
f 112/1/4 111/1/4 113/1/4
f 110/1/4 112/1/4 114/1/4
f 110/1/4 114/1/4 116/1/4
f 114/1/4 115/1/4 116/1/4
f 116/1/4 115/1/4 117/1/4
f 118/3/4 119/3/4 120/3/4
f 120/3/4 119/3/4 121/3/4
f 120/2/4 121/2/4 123/2/4
f 121/2/4 122/2/4 123/2/4
f 123/2/4 122/2/4 124/2/4
f 124/2/4 122/2/4 125/2/4
f 123/3/4 124/3/4 126/3/4
f 126/3/4 124/3/4 127/3/4
f 128/3/4 129/3/4 130/3/4
f 130/3/4 129/3/4 131/3/4
f 132/2/4 133/2/4 134/2/4
f 134/2/4 133/2/4 135/2/4
f 136/2/4 137/2/4 138/2/4
f 138/2/4 137/2/4 139/2/4
f 138/3/4 139/3/4 140/3/4
f 140/3/4 139/3/4 141/3/4
f 140/2/4 141/2/4 142/2/4
f 142/2/4 141/2/4 143/2/4
f 142/3/4 143/3/4 144/3/4
f 144/3/4 143/3/4 145/3/4
f 144/2/4 145/2/4 146/2/4
f 146/2/4 145/2/4 147/2/4
f 148/2/4 149/2/4 150/2/4
f 150/2/4 149/2/4 151/2/4
f 150/3/4 151/3/4 152/3/4
f 152/3/4 151/3/4 153/3/4
f 152/2/4 153/2/4 154/2/4
f 154/2/4 153/2/4 155/2/4
f 154/3/4 155/3/4 156/3/4
f 156/3/4 155/3/4 157/3/4
f 156/2/4 157/2/4 158/2/4
f 158/2/4 157/2/4 159/2/4
f 162/1/5 161/1/5 160/1/5
f 163/1/5 161/1/5 162/1/5
f 170/1/5 165/1/5 164/1/5
f 171/1/5 165/1/5 170/1/5
f 176/2/5 167/2/5 166/2/5
f 176/3/5 168/3/5 167/3/5
f 177/2/5 169/2/5 168/2/5
f 177/3/5 168/3/5 176/3/5
f 177/2/5 170/2/5 169/2/5
f 177/2/5 173/2/5 172/2/5
f 177/2/5 172/2/5 171/2/5
f 177/2/5 171/2/5 170/2/5
f 178/3/5 174/3/5 173/3/5
f 178/2/5 173/2/5 177/2/5
f 179/2/5 175/2/5 174/2/5
f 179/3/5 174/3/5 178/3/5
f 180/2/5 176/2/5 166/2/5
f 183/2/5 175/2/5 179/2/5
f 184/2/5 180/2/5 166/2/5
f 185/3/5 181/3/5 180/3/5
f 185/2/5 180/2/5 184/2/5
f 186/2/5 182/2/5 181/2/5
f 186/3/5 181/3/5 185/3/5
f 187/3/5 183/3/5 182/3/5
f 187/2/5 182/2/5 186/2/5
f 188/2/5 175/2/5 183/2/5
f 188/3/5 183/3/5 187/3/5
f 189/2/5 175/2/5 188/2/5
f 194/3/5 191/3/5 190/3/5
f 195/3/5 191/3/5 194/3/5
f 196/2/5 193/2/5 192/2/5
f 197/2/5 193/2/5 196/2/5
f 200/3/5 199/3/5 198/3/5
f 201/3/5 199/3/5 200/3/5
f 205/2/5 203/2/5 202/2/5
f 206/2/5 203/2/5 205/2/5
f 208/3/5 205/3/5 204/3/5
f 209/2/5 206/2/5 205/2/5
f 209/3/5 205/3/5 208/3/5
f 210/2/5 206/2/5 209/2/5
f 211/3/5 207/3/5 206/3/5
f 211/2/5 206/2/5 210/2/5
f 212/3/5 207/3/5 211/3/5
f 213/1/6 214/1/6 215/1/6
f 215/1/6 214/1/6 216/1/6
f 217/1/6 218/1/6 219/1/6
f 219/1/6 218/1/6 220/1/6
f 221/2/6 222/2/6 227/2/6
f 222/3/6 223/3/6 228/3/6
f 227/2/6 222/2/6 228/2/6
f 223/2/6 224/2/6 229/2/6
f 228/3/6 223/3/6 229/3/6
f 224/3/6 225/3/6 230/3/6
f 229/2/6 224/2/6 230/2/6
f 225/2/6 226/2/6 231/2/6
f 230/3/6 225/3/6 231/3/6
f 231/2/6 226/2/6 232/2/6
f 233/2/6 234/2/6 239/2/6
f 234/3/6 235/3/6 240/3/6
f 239/2/6 234/2/6 240/2/6
f 235/2/6 236/2/6 241/2/6
f 240/3/6 235/3/6 241/3/6
f 236/3/6 237/3/6 242/3/6
f 241/2/6 236/2/6 242/2/6
f 237/2/6 238/2/6 243/2/6
f 242/3/6 237/3/6 243/3/6
f 243/2/6 238/2/6 244/2/6
f 245/2/6 246/2/6 251/2/6
f 246/3/6 247/3/6 252/3/6
f 251/2/6 246/2/6 252/2/6
f 247/2/6 248/2/6 253/2/6
f 252/3/6 247/3/6 253/3/6
f 248/3/6 249/3/6 254/3/6
f 253/2/6 248/2/6 254/2/6
f 249/2/6 250/2/6 255/2/6
f 254/3/6 249/3/6 255/3/6
f 255/2/6 250/2/6 256/2/6
