# MagicaVoxel @ Ephtracy

# group
o 

# material
mtllib Base26.mtl
usemtl palette

# normals
vn -1 0 0
vn 1 0 0
vn 0 0 1
vn 0 0 -1
vn 0 -1 0
vn 0 1 0

# texcoords
vt 0.814453 0.5
vt 0.818359 0.5
vt 0.822266 0.5
vt 0.826172 0.5

# verts
v 1.6 2 -1.6
v 1.6 2 -4.8
v 1.6 2.2 -2.4
v 1.6 2.2 -3.2
v 1.6 2.2 -4
v 1.6 2.2 -4.8
v 1.6 2.3 -2.4
v 1.6 2.3 -3.2
v 1.6 2.3 -4
v 1.6 2.3 -4.8
v 1.6 2.5 -2.4
v 1.6 2.5 -3.2
v 1.6 2.5 -4
v 1.6 2.5 -4.8
v 1.6 2.6 -2.4
v 1.6 2.6 -3.2
v 1.6 2.6 -4
v 1.6 2.6 -4.8
v 1.6 2.8 -2.4
v 1.6 2.8 -3.2
v 1.6 2.8 -4
v 1.6 2.8 -4.8
v 1.6 2.9 -1.6
v 1.6 2.9 -2.4
v 1.6 2.9 -3.2
v 1.6 2.9 -4
v 1.6 2.9 -4.8
v 9.7 2 -1.6
v 9.7 2 -4.8
v 9.7 2.2 -2.4
v 9.7 2.2 -3.2
v 9.7 2.2 -4
v 9.7 2.2 -4.8
v 9.7 2.3 -2.4
v 9.7 2.3 -3.2
v 9.7 2.3 -4
v 9.7 2.3 -4.8
v 9.7 2.5 -2.4
v 9.7 2.5 -3.2
v 9.7 2.5 -4
v 9.7 2.5 -4.8
v 9.7 2.6 -2.4
v 9.7 2.6 -3.2
v 9.7 2.6 -4
v 9.7 2.6 -4.8
v 9.7 2.8 -2.4
v 9.7 2.8 -3.2
v 9.7 2.8 -4
v 9.7 2.8 -4.8
v 9.7 2.9 -1.6
v 9.7 2.9 -2.4
v 9.7 2.9 -3.2
v 9.7 2.9 -4
v 9.7 2.9 -4.8
v 1.6 2 -1.6
v 1.6 2.9 -1.6
v 2.4 2.2 -1.6
v 2.4 2.3 -1.6
v 2.4 2.5 -1.6
v 2.4 2.6 -1.6
v 2.4 2.8 -1.6
v 2.4 2.9 -1.6
v 3.2 2.2 -1.6
v 3.2 2.3 -1.6
v 3.2 2.5 -1.6
v 3.2 2.6 -1.6
v 3.2 2.8 -1.6
v 3.2 2.9 -1.6
v 4 2.2 -1.6
v 4 2.3 -1.6
v 4 2.5 -1.6
v 4 2.6 -1.6
v 4 2.8 -1.6
v 4 2.9 -1.6
v 4.8 2.2 -1.6
v 4.8 2.3 -1.6
v 4.8 2.5 -1.6
v 4.8 2.6 -1.6
v 4.8 2.8 -1.6
v 4.8 2.9 -1.6
v 5.6 2.2 -1.6
v 5.6 2.3 -1.6
v 5.6 2.5 -1.6
v 5.6 2.6 -1.6
v 5.6 2.8 -1.6
v 5.6 2.9 -1.6
v 6.4 2.2 -1.6
v 6.4 2.3 -1.6
v 6.4 2.5 -1.6
v 6.4 2.6 -1.6
v 6.4 2.8 -1.6
v 6.4 2.9 -1.6
v 7.2 2.2 -1.6
v 7.2 2.3 -1.6
v 7.2 2.5 -1.6
v 7.2 2.6 -1.6
v 7.2 2.8 -1.6
v 7.2 2.9 -1.6
v 8 2.2 -1.6
v 8 2.3 -1.6
v 8 2.5 -1.6
v 8 2.6 -1.6
v 8 2.8 -1.6
v 8 2.9 -1.6
v 8.8 2.2 -1.6
v 8.8 2.3 -1.6
v 8.8 2.5 -1.6
v 8.8 2.6 -1.6
v 8.8 2.8 -1.6
v 8.8 2.9 -1.6
v 9.6 2.2 -1.6
v 9.6 2.3 -1.6
v 9.6 2.5 -1.6
v 9.6 2.6 -1.6
v 9.6 2.8 -1.6
v 9.6 2.9 -1.6
v 9.7 2 -1.6
v 9.7 2.9 -1.6
v 1.6 2 -4.8
v 1.6 2.2 -4.8
v 1.6 2.3 -4.8
v 1.6 2.5 -4.8
v 1.6 2.6 -4.8
v 1.6 2.8 -4.8
v 1.6 2.9 -4.8
v 1.7 2.2 -4.8
v 1.7 2.3 -4.8
v 1.7 2.5 -4.8
v 1.7 2.6 -4.8
v 1.7 2.8 -4.8
v 1.7 2.9 -4.8
v 2.4 2.2 -4.8
v 2.4 2.3 -4.8
v 2.4 2.5 -4.8
v 2.4 2.6 -4.8
v 2.4 2.8 -4.8
v 2.4 2.9 -4.8
v 3.2 2.2 -4.8
v 3.2 2.3 -4.8
v 3.2 2.5 -4.8
v 3.2 2.6 -4.8
v 3.2 2.8 -4.8
v 3.2 2.9 -4.8
v 3.3 2.2 -4.8
v 3.3 2.3 -4.8
v 3.3 2.5 -4.8
v 3.3 2.6 -4.8
v 3.3 2.8 -4.8
v 3.3 2.9 -4.8
v 4 2.2 -4.8
v 4 2.3 -4.8
v 4 2.5 -4.8
v 4 2.6 -4.8
v 4 2.8 -4.8
v 4 2.9 -4.8
v 4.8 2.2 -4.8
v 4.8 2.3 -4.8
v 4.8 2.5 -4.8
v 4.8 2.6 -4.8
v 4.8 2.8 -4.8
v 4.8 2.9 -4.8
v 4.9 2.2 -4.8
v 4.9 2.3 -4.8
v 4.9 2.5 -4.8
v 4.9 2.6 -4.8
v 4.9 2.8 -4.8
v 4.9 2.9 -4.8
v 5.6 2.2 -4.8
v 5.6 2.3 -4.8
v 5.6 2.5 -4.8
v 5.6 2.6 -4.8
v 5.6 2.8 -4.8
v 5.6 2.9 -4.8
v 6.4 2.2 -4.8
v 6.4 2.3 -4.8
v 6.4 2.5 -4.8
v 6.4 2.6 -4.8
v 6.4 2.8 -4.8
v 6.4 2.9 -4.8
v 6.5 2.2 -4.8
v 6.5 2.3 -4.8
v 6.5 2.5 -4.8
v 6.5 2.6 -4.8
v 6.5 2.8 -4.8
v 6.5 2.9 -4.8
v 7.2 2.2 -4.8
v 7.2 2.3 -4.8
v 7.2 2.5 -4.8
v 7.2 2.6 -4.8
v 7.2 2.8 -4.8
v 7.2 2.9 -4.8
v 8 2.2 -4.8
v 8 2.3 -4.8
v 8 2.5 -4.8
v 8 2.6 -4.8
v 8 2.8 -4.8
v 8 2.9 -4.8
v 8.1 2.2 -4.8
v 8.1 2.3 -4.8
v 8.1 2.5 -4.8
v 8.1 2.6 -4.8
v 8.1 2.8 -4.8
v 8.1 2.9 -4.8
v 8.8 2.2 -4.8
v 8.8 2.3 -4.8
v 8.8 2.5 -4.8
v 8.8 2.6 -4.8
v 8.8 2.8 -4.8
v 8.8 2.9 -4.8
v 9.6 2.2 -4.8
v 9.6 2.3 -4.8
v 9.6 2.5 -4.8
v 9.6 2.6 -4.8
v 9.6 2.8 -4.8
v 9.6 2.9 -4.8
v 9.7 2 -4.8
v 9.7 2.2 -4.8
v 9.7 2.3 -4.8
v 9.7 2.5 -4.8
v 9.7 2.6 -4.8
v 9.7 2.8 -4.8
v 9.7 2.9 -4.8
v 1.6 2 -1.6
v 9.7 2 -1.6
v 1.6 2 -4.8
v 9.7 2 -4.8
v 1.6 2.9 -1.6
v 2.4 2.9 -1.6
v 3.2 2.9 -1.6
v 4 2.9 -1.6
v 4.8 2.9 -1.6
v 5.6 2.9 -1.6
v 6.4 2.9 -1.6
v 7.2 2.9 -1.6
v 8 2.9 -1.6
v 8.8 2.9 -1.6
v 9.6 2.9 -1.6
v 9.7 2.9 -1.6
v 2.5 2.9 -1.7
v 3.1 2.9 -1.7
v 3.2 2.9 -1.7
v 4.1 2.9 -1.7
v 4.7 2.9 -1.7
v 4.8 2.9 -1.7
v 5.7 2.9 -1.7
v 6.3 2.9 -1.7
v 6.4 2.9 -1.7
v 7.3 2.9 -1.7
v 7.9 2.9 -1.7
v 8 2.9 -1.7
v 8.9 2.9 -1.7
v 9.5 2.9 -1.7
v 9.6 2.9 -1.7
v 2.5 2.9 -2.3
v 3.1 2.9 -2.3
v 4.1 2.9 -2.3
v 4.7 2.9 -2.3
v 5.7 2.9 -2.3
v 6.3 2.9 -2.3
v 7.3 2.9 -2.3
v 7.9 2.9 -2.3
v 8.9 2.9 -2.3
v 9.5 2.9 -2.3
v 1.6 2.9 -2.4
v 2.4 2.9 -2.4
v 2.5 2.9 -2.4
v 3.2 2.9 -2.4
v 4 2.9 -2.4
v 4.1 2.9 -2.4
v 4.8 2.9 -2.4
v 5.6 2.9 -2.4
v 5.7 2.9 -2.4
v 6.4 2.9 -2.4
v 7.2 2.9 -2.4
v 7.3 2.9 -2.4
v 8 2.9 -2.4
v 8.8 2.9 -2.4
v 8.9 2.9 -2.4
v 9.6 2.9 -2.4
v 9.7 2.9 -2.4
v 1.7 2.9 -2.5
v 2.3 2.9 -2.5
v 2.4 2.9 -2.5
v 3.3 2.9 -2.5
v 3.9 2.9 -2.5
v 4 2.9 -2.5
v 4.9 2.9 -2.5
v 5.5 2.9 -2.5
v 5.6 2.9 -2.5
v 6.5 2.9 -2.5
v 7.1 2.9 -2.5
v 7.2 2.9 -2.5
v 8.1 2.9 -2.5
v 8.7 2.9 -2.5
v 8.8 2.9 -2.5
v 1.7 2.9 -3.1
v 2.3 2.9 -3.1
v 3.3 2.9 -3.1
v 3.9 2.9 -3.1
v 4.9 2.9 -3.1
v 5.5 2.9 -3.1
v 6.5 2.9 -3.1
v 7.1 2.9 -3.1
v 8.1 2.9 -3.1
v 8.7 2.9 -3.1
v 1.6 2.9 -3.2
v 1.7 2.9 -3.2
v 2.4 2.9 -3.2
v 3.2 2.9 -3.2
v 3.3 2.9 -3.2
v 4 2.9 -3.2
v 4.8 2.9 -3.2
v 4.9 2.9 -3.2
v 5.6 2.9 -3.2
v 6.4 2.9 -3.2
v 6.5 2.9 -3.2
v 7.2 2.9 -3.2
v 8 2.9 -3.2
v 8.1 2.9 -3.2
v 8.8 2.9 -3.2
v 9.6 2.9 -3.2
v 9.7 2.9 -3.2
v 2.5 2.9 -3.3
v 3.1 2.9 -3.3
v 3.2 2.9 -3.3
v 4.1 2.9 -3.3
v 4.7 2.9 -3.3
v 4.8 2.9 -3.3
v 5.7 2.9 -3.3
v 6.3 2.9 -3.3
v 6.4 2.9 -3.3
v 7.3 2.9 -3.3
v 7.9 2.9 -3.3
v 8 2.9 -3.3
v 8.9 2.9 -3.3
v 9.5 2.9 -3.3
v 9.6 2.9 -3.3
v 2.5 2.9 -3.9
v 3.1 2.9 -3.9
v 4.1 2.9 -3.9
v 4.7 2.9 -3.9
v 5.7 2.9 -3.9
v 6.3 2.9 -3.9
v 7.3 2.9 -3.9
v 7.9 2.9 -3.9
v 8.9 2.9 -3.9
v 9.5 2.9 -3.9
v 1.6 2.9 -4
v 2.4 2.9 -4
v 2.5 2.9 -4
v 3.2 2.9 -4
v 4 2.9 -4
v 4.1 2.9 -4
v 4.8 2.9 -4
v 5.6 2.9 -4
v 5.7 2.9 -4
v 6.4 2.9 -4
v 7.2 2.9 -4
v 7.3 2.9 -4
v 8 2.9 -4
v 8.8 2.9 -4
v 8.9 2.9 -4
v 9.6 2.9 -4
v 9.7 2.9 -4
v 1.7 2.9 -4.1
v 2.3 2.9 -4.1
v 2.4 2.9 -4.1
v 3.3 2.9 -4.1
v 3.9 2.9 -4.1
v 4 2.9 -4.1
v 4.9 2.9 -4.1
v 5.5 2.9 -4.1
v 5.6 2.9 -4.1
v 6.5 2.9 -4.1
v 7.1 2.9 -4.1
v 7.2 2.9 -4.1
v 8.1 2.9 -4.1
v 8.7 2.9 -4.1
v 8.8 2.9 -4.1
v 1.7 2.9 -4.7
v 2.3 2.9 -4.7
v 3.3 2.9 -4.7
v 3.9 2.9 -4.7
v 4.9 2.9 -4.7
v 5.5 2.9 -4.7
v 6.5 2.9 -4.7
v 7.1 2.9 -4.7
v 8.1 2.9 -4.7
v 8.7 2.9 -4.7
v 1.6 2.9 -4.8
v 1.7 2.9 -4.8
v 2.4 2.9 -4.8
v 3.2 2.9 -4.8
v 3.3 2.9 -4.8
v 4 2.9 -4.8
v 4.8 2.9 -4.8
v 4.9 2.9 -4.8
v 5.6 2.9 -4.8
v 6.4 2.9 -4.8
v 6.5 2.9 -4.8
v 7.2 2.9 -4.8
v 8 2.9 -4.8
v 8.1 2.9 -4.8
v 8.8 2.9 -4.8
v 9.6 2.9 -4.8
v 9.7 2.9 -4.8

# faces
f 3/1/1 2/1/1 1/1/1
f 4/1/1 2/1/1 3/1/1
f 5/1/1 2/1/1 4/1/1
f 6/1/1 2/1/1 5/1/1
f 7/1/1 3/1/1 1/1/1
f 7/4/1 4/4/1 3/4/1
f 8/1/1 5/1/1 4/1/1
f 8/4/1 4/4/1 7/4/1
f 9/4/1 6/4/1 5/4/1
f 9/1/1 5/1/1 8/1/1
f 10/4/1 6/4/1 9/4/1
f 11/1/1 8/1/1 7/1/1
f 11/1/1 7/1/1 1/1/1
f 11/1/1 10/1/1 9/1/1
f 11/1/1 9/1/1 8/1/1
f 12/1/1 10/1/1 11/1/1
f 13/1/1 10/1/1 12/1/1
f 14/1/1 10/1/1 13/1/1
f 15/1/1 11/1/1 1/1/1
f 15/4/1 12/4/1 11/4/1
f 16/1/1 13/1/1 12/1/1
f 16/4/1 12/4/1 15/4/1
f 17/4/1 14/4/1 13/4/1
f 17/1/1 13/1/1 16/1/1
f 18/4/1 14/4/1 17/4/1
f 19/1/1 16/1/1 15/1/1
f 19/1/1 15/1/1 1/1/1
f 19/1/1 18/1/1 17/1/1
f 19/1/1 17/1/1 16/1/1
f 20/1/1 18/1/1 19/1/1
f 21/1/1 18/1/1 20/1/1
f 22/1/1 18/1/1 21/1/1
f 23/1/1 19/1/1 1/1/1
f 24/4/1 20/4/1 19/4/1
f 24/1/1 19/1/1 23/1/1
f 25/1/1 21/1/1 20/1/1
f 25/4/1 20/4/1 24/4/1
f 26/4/1 22/4/1 21/4/1
f 26/1/1 21/1/1 25/1/1
f 27/4/1 22/4/1 26/4/1
f 28/1/2 29/1/2 30/1/2
f 30/1/2 29/1/2 31/1/2
f 31/1/2 29/1/2 32/1/2
f 32/1/2 29/1/2 33/1/2
f 28/1/2 30/1/2 34/1/2
f 30/4/2 31/4/2 34/4/2
f 31/1/2 32/1/2 35/1/2
f 34/4/2 31/4/2 35/4/2
f 32/4/2 33/4/2 36/4/2
f 35/1/2 32/1/2 36/1/2
f 36/4/2 33/4/2 37/4/2
f 34/1/2 35/1/2 38/1/2
f 28/1/2 34/1/2 38/1/2
f 36/1/2 37/1/2 38/1/2
f 35/1/2 36/1/2 38/1/2
f 38/1/2 37/1/2 39/1/2
f 39/1/2 37/1/2 40/1/2
f 40/1/2 37/1/2 41/1/2
f 28/1/2 38/1/2 42/1/2
f 38/4/2 39/4/2 42/4/2
f 39/1/2 40/1/2 43/1/2
f 42/4/2 39/4/2 43/4/2
f 40/4/2 41/4/2 44/4/2
f 43/1/2 40/1/2 44/1/2
f 44/4/2 41/4/2 45/4/2
f 42/1/2 43/1/2 46/1/2
f 28/1/2 42/1/2 46/1/2
f 44/1/2 45/1/2 46/1/2
f 43/1/2 44/1/2 46/1/2
f 46/1/2 45/1/2 47/1/2
f 47/1/2 45/1/2 48/1/2
f 48/1/2 45/1/2 49/1/2
f 28/1/2 46/1/2 50/1/2
f 46/4/2 47/4/2 51/4/2
f 50/1/2 46/1/2 51/1/2
f 47/1/2 48/1/2 52/1/2
f 51/4/2 47/4/2 52/4/2
f 48/4/2 49/4/2 53/4/2
f 52/1/2 48/1/2 53/1/2
f 53/4/2 49/4/2 54/4/2
f 57/1/3 56/1/3 55/1/3
f 58/1/3 56/1/3 57/1/3
f 59/1/3 56/1/3 58/1/3
f 60/1/3 56/1/3 59/1/3
f 61/1/3 56/1/3 60/1/3
f 62/1/3 56/1/3 61/1/3
f 63/1/3 57/1/3 55/1/3
f 63/4/3 58/4/3 57/4/3
f 64/1/3 59/1/3 58/1/3
f 64/4/3 58/4/3 63/4/3
f 65/4/3 60/4/3 59/4/3
f 65/1/3 59/1/3 64/1/3
f 66/1/3 61/1/3 60/1/3
f 66/4/3 60/4/3 65/4/3
f 67/4/3 62/4/3 61/4/3
f 67/1/3 61/1/3 66/1/3
f 68/4/3 62/4/3 67/4/3
f 69/1/3 66/1/3 65/1/3
f 69/1/3 63/1/3 55/1/3
f 69/1/3 68/1/3 67/1/3
f 69/1/3 67/1/3 66/1/3
f 69/1/3 65/1/3 64/1/3
f 69/1/3 64/1/3 63/1/3
f 70/1/3 68/1/3 69/1/3
f 71/1/3 68/1/3 70/1/3
f 72/1/3 68/1/3 71/1/3
f 73/1/3 68/1/3 72/1/3
f 74/1/3 68/1/3 73/1/3
f 75/1/3 69/1/3 55/1/3
f 75/4/3 70/4/3 69/4/3
f 76/1/3 71/1/3 70/1/3
f 76/4/3 70/4/3 75/4/3
f 77/4/3 72/4/3 71/4/3
f 77/1/3 71/1/3 76/1/3
f 78/1/3 73/1/3 72/1/3
f 78/4/3 72/4/3 77/4/3
f 79/4/3 74/4/3 73/4/3
f 79/1/3 73/1/3 78/1/3
f 80/4/3 74/4/3 79/4/3
f 81/1/3 78/1/3 77/1/3
f 81/1/3 75/1/3 55/1/3
f 81/1/3 80/1/3 79/1/3
f 81/1/3 79/1/3 78/1/3
f 81/1/3 77/1/3 76/1/3
f 81/1/3 76/1/3 75/1/3
f 82/1/3 80/1/3 81/1/3
f 83/1/3 80/1/3 82/1/3
f 84/1/3 80/1/3 83/1/3
f 85/1/3 80/1/3 84/1/3
f 86/1/3 80/1/3 85/1/3
f 87/1/3 81/1/3 55/1/3
f 87/4/3 82/4/3 81/4/3
f 88/1/3 83/1/3 82/1/3
f 88/4/3 82/4/3 87/4/3
f 89/4/3 84/4/3 83/4/3
f 89/1/3 83/1/3 88/1/3
f 90/1/3 85/1/3 84/1/3
f 90/4/3 84/4/3 89/4/3
f 91/4/3 86/4/3 85/4/3
f 91/1/3 85/1/3 90/1/3
f 92/4/3 86/4/3 91/4/3
f 93/1/3 90/1/3 89/1/3
f 93/1/3 87/1/3 55/1/3
f 93/1/3 92/1/3 91/1/3
f 93/1/3 91/1/3 90/1/3
f 93/1/3 89/1/3 88/1/3
f 93/1/3 88/1/3 87/1/3
f 94/1/3 92/1/3 93/1/3
f 95/1/3 92/1/3 94/1/3
f 96/1/3 92/1/3 95/1/3
f 97/1/3 92/1/3 96/1/3
f 98/1/3 92/1/3 97/1/3
f 99/1/3 93/1/3 55/1/3
f 99/4/3 94/4/3 93/4/3
f 100/1/3 95/1/3 94/1/3
f 100/4/3 94/4/3 99/4/3
f 101/4/3 96/4/3 95/4/3
f 101/1/3 95/1/3 100/1/3
f 102/1/3 97/1/3 96/1/3
f 102/4/3 96/4/3 101/4/3
f 103/4/3 98/4/3 97/4/3
f 103/1/3 97/1/3 102/1/3
f 104/4/3 98/4/3 103/4/3
f 105/1/3 102/1/3 101/1/3
f 105/1/3 99/1/3 55/1/3
f 105/1/3 104/1/3 103/1/3
f 105/1/3 103/1/3 102/1/3
f 105/1/3 101/1/3 100/1/3
f 105/1/3 100/1/3 99/1/3
f 106/1/3 104/1/3 105/1/3
f 107/1/3 104/1/3 106/1/3
f 108/1/3 104/1/3 107/1/3
f 109/1/3 104/1/3 108/1/3
f 110/1/3 104/1/3 109/1/3
f 111/1/3 105/1/3 55/1/3
f 111/4/3 106/4/3 105/4/3
f 112/1/3 107/1/3 106/1/3
f 112/4/3 106/4/3 111/4/3
f 113/4/3 108/4/3 107/4/3
f 113/1/3 107/1/3 112/1/3
f 114/1/3 109/1/3 108/1/3
f 114/4/3 108/4/3 113/4/3
f 115/4/3 110/4/3 109/4/3
f 115/1/3 109/1/3 114/1/3
f 116/4/3 110/4/3 115/4/3
f 117/1/3 114/1/3 113/1/3
f 117/1/3 111/1/3 55/1/3
f 117/1/3 116/1/3 115/1/3
f 117/1/3 115/1/3 114/1/3
f 117/1/3 113/1/3 112/1/3
f 117/1/3 112/1/3 111/1/3
f 118/1/3 116/1/3 117/1/3
f 119/1/4 120/1/4 126/1/4
f 120/4/4 121/4/4 126/4/4
f 121/1/4 122/1/4 127/1/4
f 126/4/4 121/4/4 127/4/4
f 122/4/4 123/4/4 128/4/4
f 127/1/4 122/1/4 128/1/4
f 123/1/4 124/1/4 129/1/4
f 128/4/4 123/4/4 129/4/4
f 124/4/4 125/4/4 130/4/4
f 129/1/4 124/1/4 130/1/4
f 130/4/4 125/4/4 131/4/4
f 119/1/4 126/1/4 132/1/4
f 126/3/4 127/3/4 132/3/4
f 127/1/4 128/1/4 133/1/4
f 132/3/4 127/3/4 133/3/4
f 128/3/4 129/3/4 134/3/4
f 133/1/4 128/1/4 134/1/4
f 129/1/4 130/1/4 135/1/4
f 134/3/4 129/3/4 135/3/4
f 130/3/4 131/3/4 136/3/4
f 135/1/4 130/1/4 136/1/4
f 136/3/4 131/3/4 137/3/4
f 132/1/4 133/1/4 138/1/4
f 119/1/4 132/1/4 138/1/4
f 136/1/4 137/1/4 138/1/4
f 135/1/4 136/1/4 138/1/4
f 133/1/4 134/1/4 138/1/4
f 134/1/4 135/1/4 138/1/4
f 138/1/4 137/1/4 139/1/4
f 139/1/4 137/1/4 140/1/4
f 140/1/4 137/1/4 141/1/4
f 141/1/4 137/1/4 142/1/4
f 142/1/4 137/1/4 143/1/4
f 119/1/4 138/1/4 144/1/4
f 138/4/4 139/4/4 144/4/4
f 139/1/4 140/1/4 145/1/4
f 144/4/4 139/4/4 145/4/4
f 140/4/4 141/4/4 146/4/4
f 145/1/4 140/1/4 146/1/4
f 141/1/4 142/1/4 147/1/4
f 146/4/4 141/4/4 147/4/4
f 142/4/4 143/4/4 148/4/4
f 147/1/4 142/1/4 148/1/4
f 148/4/4 143/4/4 149/4/4
f 119/1/4 144/1/4 150/1/4
f 144/3/4 145/3/4 150/3/4
f 145/1/4 146/1/4 151/1/4
f 150/3/4 145/3/4 151/3/4
f 146/3/4 147/3/4 152/3/4
f 151/1/4 146/1/4 152/1/4
f 147/1/4 148/1/4 153/1/4
f 152/3/4 147/3/4 153/3/4
f 148/3/4 149/3/4 154/3/4
f 153/1/4 148/1/4 154/1/4
f 154/3/4 149/3/4 155/3/4
f 150/1/4 151/1/4 156/1/4
f 152/1/4 153/1/4 156/1/4
f 154/1/4 155/1/4 156/1/4
f 153/1/4 154/1/4 156/1/4
f 151/1/4 152/1/4 156/1/4
f 119/1/4 150/1/4 156/1/4
f 156/1/4 155/1/4 157/1/4
f 157/1/4 155/1/4 158/1/4
f 158/1/4 155/1/4 159/1/4
f 159/1/4 155/1/4 160/1/4
f 160/1/4 155/1/4 161/1/4
f 119/1/4 156/1/4 162/1/4
f 156/4/4 157/4/4 162/4/4
f 157/1/4 158/1/4 163/1/4
f 162/4/4 157/4/4 163/4/4
f 158/4/4 159/4/4 164/4/4
f 163/1/4 158/1/4 164/1/4
f 159/1/4 160/1/4 165/1/4
f 164/4/4 159/4/4 165/4/4
f 160/4/4 161/4/4 166/4/4
f 165/1/4 160/1/4 166/1/4
f 166/4/4 161/4/4 167/4/4
f 119/1/4 162/1/4 168/1/4
f 162/3/4 163/3/4 168/3/4
f 163/1/4 164/1/4 169/1/4
f 168/3/4 163/3/4 169/3/4
f 164/3/4 165/3/4 170/3/4
f 169/1/4 164/1/4 170/1/4
f 165/1/4 166/1/4 171/1/4
f 170/3/4 165/3/4 171/3/4
f 166/3/4 167/3/4 172/3/4
f 171/1/4 166/1/4 172/1/4
f 172/3/4 167/3/4 173/3/4
f 168/1/4 169/1/4 174/1/4
f 170/1/4 171/1/4 174/1/4
f 172/1/4 173/1/4 174/1/4
f 171/1/4 172/1/4 174/1/4
f 169/1/4 170/1/4 174/1/4
f 119/1/4 168/1/4 174/1/4
f 174/1/4 173/1/4 175/1/4
f 175/1/4 173/1/4 176/1/4
f 176/1/4 173/1/4 177/1/4
f 177/1/4 173/1/4 178/1/4
f 178/1/4 173/1/4 179/1/4
f 119/1/4 174/1/4 180/1/4
f 174/4/4 175/4/4 180/4/4
f 175/1/4 176/1/4 181/1/4
f 180/4/4 175/4/4 181/4/4
f 176/4/4 177/4/4 182/4/4
f 181/1/4 176/1/4 182/1/4
f 177/1/4 178/1/4 183/1/4
f 182/4/4 177/4/4 183/4/4
f 178/4/4 179/4/4 184/4/4
f 183/1/4 178/1/4 184/1/4
f 184/4/4 179/4/4 185/4/4
f 119/1/4 180/1/4 186/1/4
f 180/3/4 181/3/4 186/3/4
f 181/1/4 182/1/4 187/1/4
f 186/3/4 181/3/4 187/3/4
f 182/3/4 183/3/4 188/3/4
f 187/1/4 182/1/4 188/1/4
f 183/1/4 184/1/4 189/1/4
f 188/3/4 183/3/4 189/3/4
f 184/3/4 185/3/4 190/3/4
f 189/1/4 184/1/4 190/1/4
f 190/3/4 185/3/4 191/3/4
f 186/1/4 187/1/4 192/1/4
f 188/1/4 189/1/4 192/1/4
f 190/1/4 191/1/4 192/1/4
f 189/1/4 190/1/4 192/1/4
f 187/1/4 188/1/4 192/1/4
f 119/1/4 186/1/4 192/1/4
f 192/1/4 191/1/4 193/1/4
f 193/1/4 191/1/4 194/1/4
f 194/1/4 191/1/4 195/1/4
f 195/1/4 191/1/4 196/1/4
f 196/1/4 191/1/4 197/1/4
f 119/1/4 192/1/4 198/1/4
f 192/4/4 193/4/4 198/4/4
f 193/1/4 194/1/4 199/1/4
f 198/4/4 193/4/4 199/4/4
f 194/4/4 195/4/4 200/4/4
f 199/1/4 194/1/4 200/1/4
f 195/1/4 196/1/4 201/1/4
f 200/4/4 195/4/4 201/4/4
f 196/4/4 197/4/4 202/4/4
f 201/1/4 196/1/4 202/1/4
f 202/4/4 197/4/4 203/4/4
f 119/1/4 198/1/4 204/1/4
f 198/3/4 199/3/4 204/3/4
f 199/1/4 200/1/4 205/1/4
f 204/3/4 199/3/4 205/3/4
f 200/3/4 201/3/4 206/3/4
f 205/1/4 200/1/4 206/1/4
f 201/1/4 202/1/4 207/1/4
f 206/3/4 201/3/4 207/3/4
f 202/3/4 203/3/4 208/3/4
f 207/1/4 202/1/4 208/1/4
f 208/3/4 203/3/4 209/3/4
f 204/1/4 205/1/4 210/1/4
f 206/1/4 207/1/4 210/1/4
f 208/1/4 209/1/4 210/1/4
f 207/1/4 208/1/4 210/1/4
f 205/1/4 206/1/4 210/1/4
f 119/1/4 204/1/4 210/1/4
f 210/1/4 209/1/4 211/1/4
f 211/1/4 209/1/4 212/1/4
f 212/1/4 209/1/4 213/1/4
f 213/1/4 209/1/4 214/1/4
f 214/1/4 209/1/4 215/1/4
f 119/1/4 210/1/4 216/1/4
f 210/4/4 211/4/4 217/4/4
f 216/1/4 210/1/4 217/1/4
f 211/1/4 212/1/4 218/1/4
f 217/4/4 211/4/4 218/4/4
f 212/4/4 213/4/4 219/4/4
f 218/1/4 212/1/4 219/1/4
f 213/1/4 214/1/4 220/1/4
f 219/4/4 213/4/4 220/4/4
f 214/4/4 215/4/4 221/4/4
f 220/1/4 214/1/4 221/1/4
f 221/4/4 215/4/4 222/4/4
f 225/1/5 224/1/5 223/1/5
f 226/1/5 224/1/5 225/1/5
f 228/4/6 229/4/6 239/4/6
f 239/4/6 229/4/6 240/4/6
f 229/1/6 230/1/6 241/1/6
f 240/4/6 229/4/6 241/4/6
f 230/4/6 231/4/6 242/4/6
f 242/4/6 231/4/6 243/4/6
f 231/1/6 232/1/6 244/1/6
f 243/4/6 231/4/6 244/4/6
f 232/4/6 233/4/6 245/4/6
f 245/4/6 233/4/6 246/4/6
f 233/1/6 234/1/6 247/1/6
f 246/4/6 233/4/6 247/4/6
f 234/4/6 235/4/6 248/4/6
f 248/4/6 235/4/6 249/4/6
f 235/1/6 236/1/6 250/1/6
f 249/4/6 235/4/6 250/4/6
f 236/4/6 237/4/6 251/4/6
f 251/4/6 237/4/6 252/4/6
f 237/1/6 238/1/6 253/1/6
f 252/4/6 237/4/6 253/4/6
f 239/2/6 240/2/6 254/2/6
f 228/4/6 239/4/6 254/4/6
f 240/3/6 241/3/6 255/3/6
f 254/2/6 240/2/6 255/2/6
f 242/2/6 243/2/6 256/2/6
f 230/4/6 242/4/6 256/4/6
f 243/3/6 244/3/6 257/3/6
f 256/2/6 243/2/6 257/2/6
f 245/2/6 246/2/6 258/2/6
f 232/4/6 245/4/6 258/4/6
f 246/3/6 247/3/6 259/3/6
f 258/2/6 246/2/6 259/2/6
f 248/2/6 249/2/6 260/2/6
f 234/4/6 248/4/6 260/4/6
f 249/3/6 250/3/6 261/3/6
f 260/2/6 249/2/6 261/2/6
f 251/2/6 252/2/6 262/2/6
f 236/4/6 251/4/6 262/4/6
f 252/3/6 253/3/6 263/3/6
f 262/2/6 252/2/6 263/2/6
f 227/1/6 228/1/6 264/1/6
f 228/4/6 254/4/6 265/4/6
f 264/1/6 228/1/6 265/1/6
f 254/3/6 255/3/6 266/3/6
f 265/4/6 254/4/6 266/4/6
f 241/1/6 230/1/6 267/1/6
f 266/3/6 255/3/6 267/3/6
f 255/3/6 241/3/6 267/3/6
f 230/4/6 256/4/6 268/4/6
f 267/1/6 230/1/6 268/1/6
f 256/3/6 257/3/6 269/3/6
f 268/4/6 256/4/6 269/4/6
f 244/1/6 232/1/6 270/1/6
f 269/3/6 257/3/6 270/3/6
f 257/3/6 244/3/6 270/3/6
f 232/4/6 258/4/6 271/4/6
f 270/1/6 232/1/6 271/1/6
f 258/3/6 259/3/6 272/3/6
f 271/4/6 258/4/6 272/4/6
f 247/1/6 234/1/6 273/1/6
f 272/3/6 259/3/6 273/3/6
f 259/3/6 247/3/6 273/3/6
f 234/4/6 260/4/6 274/4/6
f 273/1/6 234/1/6 274/1/6
f 260/3/6 261/3/6 275/3/6
f 274/4/6 260/4/6 275/4/6
f 261/3/6 250/3/6 276/3/6
f 275/3/6 261/3/6 276/3/6
f 250/1/6 236/1/6 276/1/6
f 236/4/6 262/4/6 277/4/6
f 276/1/6 236/1/6 277/1/6
f 262/3/6 263/3/6 278/3/6
f 277/4/6 262/4/6 278/4/6
f 263/3/6 253/3/6 279/3/6
f 278/3/6 263/3/6 279/3/6
f 253/1/6 238/1/6 279/1/6
f 279/1/6 238/1/6 280/1/6
f 264/4/6 265/4/6 281/4/6
f 281/4/6 265/4/6 282/4/6
f 265/1/6 266/1/6 283/1/6
f 282/4/6 265/4/6 283/4/6
f 266/1/6 267/1/6 283/1/6
f 267/4/6 268/4/6 284/4/6
f 284/4/6 268/4/6 285/4/6
f 269/1/6 270/1/6 286/1/6
f 285/4/6 268/4/6 286/4/6
f 268/1/6 269/1/6 286/1/6
f 270/4/6 271/4/6 287/4/6
f 287/4/6 271/4/6 288/4/6
f 271/1/6 272/1/6 289/1/6
f 288/4/6 271/4/6 289/4/6
f 272/1/6 273/1/6 289/1/6
f 273/4/6 274/4/6 290/4/6
f 290/4/6 274/4/6 291/4/6
f 274/1/6 275/1/6 292/1/6
f 291/4/6 274/4/6 292/4/6
f 275/1/6 276/1/6 292/1/6
f 276/4/6 277/4/6 293/4/6
f 293/4/6 277/4/6 294/4/6
f 277/1/6 278/1/6 295/1/6
f 294/4/6 277/4/6 295/4/6
f 278/1/6 279/1/6 295/1/6
f 281/2/6 282/2/6 296/2/6
f 264/4/6 281/4/6 296/4/6
f 282/3/6 283/3/6 297/3/6
f 296/2/6 282/2/6 297/2/6
f 284/2/6 285/2/6 298/2/6
f 267/4/6 284/4/6 298/4/6
f 285/3/6 286/3/6 299/3/6
f 298/2/6 285/2/6 299/2/6
f 287/2/6 288/2/6 300/2/6
f 270/4/6 287/4/6 300/4/6
f 288/3/6 289/3/6 301/3/6
f 300/2/6 288/2/6 301/2/6
f 290/2/6 291/2/6 302/2/6
f 273/4/6 290/4/6 302/4/6
f 291/3/6 292/3/6 303/3/6
f 302/2/6 291/2/6 303/2/6
f 293/2/6 294/2/6 304/2/6
f 276/4/6 293/4/6 304/4/6
f 294/3/6 295/3/6 305/3/6
f 304/2/6 294/2/6 305/2/6
f 264/4/6 296/4/6 306/4/6
f 296/3/6 297/3/6 307/3/6
f 306/4/6 296/4/6 307/4/6
f 297/3/6 283/3/6 308/3/6
f 307/3/6 297/3/6 308/3/6
f 283/1/6 267/1/6 308/1/6
f 267/4/6 298/4/6 309/4/6
f 308/1/6 267/1/6 309/1/6
f 298/3/6 299/3/6 310/3/6
f 309/4/6 298/4/6 310/4/6
f 299/3/6 286/3/6 311/3/6
f 310/3/6 299/3/6 311/3/6
f 286/1/6 270/1/6 311/1/6
f 270/4/6 300/4/6 312/4/6
f 311/1/6 270/1/6 312/1/6
f 300/3/6 301/3/6 313/3/6
f 312/4/6 300/4/6 313/4/6
f 301/3/6 289/3/6 314/3/6
f 313/3/6 301/3/6 314/3/6
f 289/1/6 273/1/6 314/1/6
f 273/4/6 302/4/6 315/4/6
f 314/1/6 273/1/6 315/1/6
f 302/3/6 303/3/6 316/3/6
f 315/4/6 302/4/6 316/4/6
f 303/3/6 292/3/6 317/3/6
f 316/3/6 303/3/6 317/3/6
f 292/1/6 276/1/6 317/1/6
f 276/4/6 304/4/6 318/4/6
f 317/1/6 276/1/6 318/1/6
f 304/3/6 305/3/6 319/3/6
f 318/4/6 304/4/6 319/4/6
f 295/1/6 279/1/6 320/1/6
f 319/3/6 305/3/6 320/3/6
f 305/3/6 295/3/6 320/3/6
f 279/4/6 280/4/6 321/4/6
f 320/1/6 279/1/6 321/1/6
f 321/4/6 280/4/6 322/4/6
f 308/4/6 309/4/6 323/4/6
f 323/4/6 309/4/6 324/4/6
f 310/1/6 311/1/6 325/1/6
f 324/4/6 309/4/6 325/4/6
f 309/1/6 310/1/6 325/1/6
f 311/4/6 312/4/6 326/4/6
f 326/4/6 312/4/6 327/4/6
f 312/1/6 313/1/6 328/1/6
f 327/4/6 312/4/6 328/4/6
f 313/1/6 314/1/6 328/1/6
f 314/4/6 315/4/6 329/4/6
f 329/4/6 315/4/6 330/4/6
f 315/1/6 316/1/6 331/1/6
f 330/4/6 315/4/6 331/4/6
f 316/1/6 317/1/6 331/1/6
f 317/4/6 318/4/6 332/4/6
f 332/4/6 318/4/6 333/4/6
f 318/1/6 319/1/6 334/1/6
f 333/4/6 318/4/6 334/4/6
f 319/1/6 320/1/6 334/1/6
f 320/4/6 321/4/6 335/4/6
f 335/4/6 321/4/6 336/4/6
f 321/1/6 322/1/6 337/1/6
f 336/4/6 321/4/6 337/4/6
f 323/2/6 324/2/6 338/2/6
f 308/4/6 323/4/6 338/4/6
f 324/3/6 325/3/6 339/3/6
f 338/2/6 324/2/6 339/2/6
f 326/2/6 327/2/6 340/2/6
f 311/4/6 326/4/6 340/4/6
f 327/3/6 328/3/6 341/3/6
f 340/2/6 327/2/6 341/2/6
f 329/2/6 330/2/6 342/2/6
f 314/4/6 329/4/6 342/4/6
f 330/3/6 331/3/6 343/3/6
f 342/2/6 330/2/6 343/2/6
f 332/2/6 333/2/6 344/2/6
f 317/4/6 332/4/6 344/4/6
f 333/3/6 334/3/6 345/3/6
f 344/2/6 333/2/6 345/2/6
f 335/2/6 336/2/6 346/2/6
f 320/4/6 335/4/6 346/4/6
f 336/3/6 337/3/6 347/3/6
f 346/2/6 336/2/6 347/2/6
f 306/1/6 307/1/6 348/1/6
f 307/1/6 308/1/6 348/1/6
f 308/4/6 338/4/6 349/4/6
f 348/1/6 308/1/6 349/1/6
f 338/3/6 339/3/6 350/3/6
f 349/4/6 338/4/6 350/4/6
f 339/3/6 325/3/6 351/3/6
f 350/3/6 339/3/6 351/3/6
f 325/1/6 311/1/6 351/1/6
f 311/4/6 340/4/6 352/4/6
f 351/1/6 311/1/6 352/1/6
f 340/3/6 341/3/6 353/3/6
f 352/4/6 340/4/6 353/4/6
f 341/3/6 328/3/6 354/3/6
f 353/3/6 341/3/6 354/3/6
f 328/1/6 314/1/6 354/1/6
f 314/4/6 342/4/6 355/4/6
f 354/1/6 314/1/6 355/1/6
f 342/3/6 343/3/6 356/3/6
f 355/4/6 342/4/6 356/4/6
f 343/3/6 331/3/6 357/3/6
f 356/3/6 343/3/6 357/3/6
f 331/1/6 317/1/6 357/1/6
f 317/4/6 344/4/6 358/4/6
f 357/1/6 317/1/6 358/1/6
f 344/3/6 345/3/6 359/3/6
f 358/4/6 344/4/6 359/4/6
f 334/1/6 320/1/6 360/1/6
f 359/3/6 345/3/6 360/3/6
f 345/3/6 334/3/6 360/3/6
f 320/4/6 346/4/6 361/4/6
f 360/1/6 320/1/6 361/1/6
f 346/3/6 347/3/6 362/3/6
f 361/4/6 346/4/6 362/4/6
f 347/3/6 337/3/6 363/3/6
f 362/3/6 347/3/6 363/3/6
f 337/1/6 322/1/6 363/1/6
f 363/1/6 322/1/6 364/1/6
f 348/4/6 349/4/6 365/4/6
f 365/4/6 349/4/6 366/4/6
f 349/1/6 350/1/6 367/1/6
f 366/4/6 349/4/6 367/4/6
f 350/1/6 351/1/6 367/1/6
f 351/4/6 352/4/6 368/4/6
f 368/4/6 352/4/6 369/4/6
f 352/1/6 353/1/6 370/1/6
f 369/4/6 352/4/6 370/4/6
f 353/1/6 354/1/6 370/1/6
f 354/4/6 355/4/6 371/4/6
f 371/4/6 355/4/6 372/4/6
f 355/1/6 356/1/6 373/1/6
f 372/4/6 355/4/6 373/4/6
f 356/1/6 357/1/6 373/1/6
f 357/4/6 358/4/6 374/4/6
f 374/4/6 358/4/6 375/4/6
f 359/1/6 360/1/6 376/1/6
f 375/4/6 358/4/6 376/4/6
f 358/1/6 359/1/6 376/1/6
f 360/4/6 361/4/6 377/4/6
f 377/4/6 361/4/6 378/4/6
f 361/1/6 362/1/6 379/1/6
f 378/4/6 361/4/6 379/4/6
f 362/1/6 363/1/6 379/1/6
f 365/2/6 366/2/6 380/2/6
f 348/4/6 365/4/6 380/4/6
f 366/3/6 367/3/6 381/3/6
f 380/2/6 366/2/6 381/2/6
f 368/2/6 369/2/6 382/2/6
f 351/4/6 368/4/6 382/4/6
f 369/3/6 370/3/6 383/3/6
f 382/2/6 369/2/6 383/2/6
f 371/2/6 372/2/6 384/2/6
f 354/4/6 371/4/6 384/4/6
f 372/3/6 373/3/6 385/3/6
f 384/2/6 372/2/6 385/2/6
f 374/2/6 375/2/6 386/2/6
f 357/4/6 374/4/6 386/4/6
f 375/3/6 376/3/6 387/3/6
f 386/2/6 375/2/6 387/2/6
f 377/2/6 378/2/6 388/2/6
f 360/4/6 377/4/6 388/4/6
f 378/3/6 379/3/6 389/3/6
f 388/2/6 378/2/6 389/2/6
f 348/4/6 380/4/6 390/4/6
f 380/3/6 381/3/6 391/3/6
f 390/4/6 380/4/6 391/4/6
f 381/3/6 367/3/6 392/3/6
f 391/3/6 381/3/6 392/3/6
f 367/1/6 351/1/6 392/1/6
f 351/4/6 382/4/6 393/4/6
f 392/1/6 351/1/6 393/1/6
f 382/3/6 383/3/6 394/3/6
f 393/4/6 382/4/6 394/4/6
f 383/3/6 370/3/6 395/3/6
f 394/3/6 383/3/6 395/3/6
f 370/1/6 354/1/6 395/1/6
f 354/4/6 384/4/6 396/4/6
f 395/1/6 354/1/6 396/1/6
f 384/3/6 385/3/6 397/3/6
f 396/4/6 384/4/6 397/4/6
f 385/3/6 373/3/6 398/3/6
f 397/3/6 385/3/6 398/3/6
f 373/1/6 357/1/6 398/1/6
f 357/4/6 386/4/6 399/4/6
f 398/1/6 357/1/6 399/1/6
f 386/3/6 387/3/6 400/3/6
f 399/4/6 386/4/6 400/4/6
f 387/3/6 376/3/6 401/3/6
f 400/3/6 387/3/6 401/3/6
f 376/1/6 360/1/6 401/1/6
f 360/4/6 388/4/6 402/4/6
f 401/1/6 360/1/6 402/1/6
f 388/3/6 389/3/6 403/3/6
f 402/4/6 388/4/6 403/4/6
f 379/1/6 363/1/6 404/1/6
f 403/3/6 389/3/6 404/3/6
f 389/3/6 379/3/6 404/3/6
f 363/4/6 364/4/6 405/4/6
f 404/1/6 363/1/6 405/1/6
f 405/4/6 364/4/6 406/4/6
