# MagicaVoxel @ Ephtracy

# group
o 

# material
mtllib BlockL221.mtl
usemtl palette

# normals
vn -1 0 0
vn 1 0 0
vn 0 0 1
vn 0 0 -1
vn 0 -1 0
vn 0 1 0

# texcoords
vt 0.814453 0.5
vt 0.818359 0.5
vt 0.822266 0.5
vt 0.826172 0.5

# verts
v 0 2 0
v 0 2 -0.8
v 0 2.2 0
v 0 2.2 -0.8
v 0 2.3 0
v 0 2.3 -0.8
v 11.2 2 0
v 11.2 2 -0.8
v 11.2 2.3 0
v 11.2 2.3 -0.8
v 0 2 0
v 0 2.2 0
v 0 2.3 0
v 0.8 2.2 0
v 0.8 2.3 0
v 1.6 2.2 0
v 1.6 2.3 0
v 2.4 2.2 0
v 2.4 2.3 0
v 3.2 2.2 0
v 3.2 2.3 0
v 4 2.2 0
v 4 2.3 0
v 4.8 2.2 0
v 4.8 2.3 0
v 5.6 2.2 0
v 5.6 2.3 0
v 6.4 2.2 0
v 6.4 2.3 0
v 7.2 2.2 0
v 7.2 2.3 0
v 8 2.2 0
v 8 2.3 0
v 8.8 2.2 0
v 8.8 2.3 0
v 9.6 2.2 0
v 9.6 2.3 0
v 10.4 2.2 0
v 10.4 2.3 0
v 11.2 2 0
v 11.2 2.3 0
v 0 2 -0.8
v 0 2.2 -0.8
v 0 2.3 -0.8
v 0.1 2.2 -0.8
v 0.1 2.3 -0.8
v 0.8 2.2 -0.8
v 0.8 2.3 -0.8
v 1.6 2.2 -0.8
v 1.6 2.3 -0.8
v 1.7 2.2 -0.8
v 1.7 2.3 -0.8
v 2.4 2.2 -0.8
v 2.4 2.3 -0.8
v 3.2 2.2 -0.8
v 3.2 2.3 -0.8
v 3.3 2.2 -0.8
v 3.3 2.3 -0.8
v 4 2.2 -0.8
v 4 2.3 -0.8
v 4.8 2.2 -0.8
v 4.8 2.3 -0.8
v 4.9 2.2 -0.8
v 4.9 2.3 -0.8
v 5.6 2.2 -0.8
v 5.6 2.3 -0.8
v 6.4 2.2 -0.8
v 6.4 2.3 -0.8
v 6.5 2.2 -0.8
v 6.5 2.3 -0.8
v 7.2 2.2 -0.8
v 7.2 2.3 -0.8
v 8 2.2 -0.8
v 8 2.3 -0.8
v 8.1 2.2 -0.8
v 8.1 2.3 -0.8
v 8.8 2.2 -0.8
v 8.8 2.3 -0.8
v 9.6 2.2 -0.8
v 9.6 2.3 -0.8
v 9.7 2.2 -0.8
v 9.7 2.3 -0.8
v 10.4 2.2 -0.8
v 10.4 2.3 -0.8
v 11.2 2 -0.8
v 11.2 2.3 -0.8
v 0 2 0
v 11.2 2 0
v 0 2 -0.8
v 11.2 2 -0.8
v 0 2.3 0
v 0.8 2.3 0
v 1.6 2.3 0
v 2.4 2.3 0
v 3.2 2.3 0
v 4 2.3 0
v 4.8 2.3 0
v 5.6 2.3 0
v 6.4 2.3 0
v 7.2 2.3 0
v 8 2.3 0
v 8.8 2.3 0
v 9.6 2.3 0
v 10.4 2.3 0
v 11.2 2.3 0
v 0.1 2.3 -0.1
v 0.7 2.3 -0.1
v 0.8 2.3 -0.1
v 1.7 2.3 -0.1
v 2.3 2.3 -0.1
v 2.4 2.3 -0.1
v 3.3 2.3 -0.1
v 3.9 2.3 -0.1
v 4 2.3 -0.1
v 4.9 2.3 -0.1
v 5.5 2.3 -0.1
v 5.6 2.3 -0.1
v 6.5 2.3 -0.1
v 7.1 2.3 -0.1
v 7.2 2.3 -0.1
v 8.1 2.3 -0.1
v 8.7 2.3 -0.1
v 8.8 2.3 -0.1
v 9.7 2.3 -0.1
v 10.3 2.3 -0.1
v 10.4 2.3 -0.1
v 0.1 2.3 -0.7
v 0.7 2.3 -0.7
v 1.7 2.3 -0.7
v 2.3 2.3 -0.7
v 3.3 2.3 -0.7
v 3.9 2.3 -0.7
v 4.9 2.3 -0.7
v 5.5 2.3 -0.7
v 6.5 2.3 -0.7
v 7.1 2.3 -0.7
v 8.1 2.3 -0.7
v 8.7 2.3 -0.7
v 9.7 2.3 -0.7
v 10.3 2.3 -0.7
v 0 2.3 -0.8
v 0.1 2.3 -0.8
v 0.8 2.3 -0.8
v 1.6 2.3 -0.8
v 1.7 2.3 -0.8
v 2.4 2.3 -0.8
v 3.2 2.3 -0.8
v 3.3 2.3 -0.8
v 4 2.3 -0.8
v 4.8 2.3 -0.8
v 4.9 2.3 -0.8
v 5.6 2.3 -0.8
v 6.4 2.3 -0.8
v 6.5 2.3 -0.8
v 7.2 2.3 -0.8
v 8 2.3 -0.8
v 8.1 2.3 -0.8
v 8.8 2.3 -0.8
v 9.6 2.3 -0.8
v 9.7 2.3 -0.8
v 10.4 2.3 -0.8
v 11.2 2.3 -0.8

# faces
f 3/1/1 2/1/1 1/1/1
f 4/1/1 2/1/1 3/1/1
f 5/4/1 4/4/1 3/4/1
f 6/4/1 4/4/1 5/4/1
f 7/1/2 8/1/2 9/1/2
f 9/1/2 8/1/2 10/1/2
f 14/1/3 12/1/3 11/1/3
f 14/4/3 13/4/3 12/4/3
f 15/4/3 13/4/3 14/4/3
f 16/1/3 14/1/3 11/1/3
f 16/1/3 15/1/3 14/1/3
f 17/1/3 15/1/3 16/1/3
f 18/1/3 16/1/3 11/1/3
f 18/4/3 17/4/3 16/4/3
f 19/4/3 17/4/3 18/4/3
f 20/1/3 18/1/3 11/1/3
f 20/1/3 19/1/3 18/1/3
f 21/1/3 19/1/3 20/1/3
f 22/1/3 20/1/3 11/1/3
f 22/4/3 21/4/3 20/4/3
f 23/4/3 21/4/3 22/4/3
f 24/1/3 22/1/3 11/1/3
f 24/1/3 23/1/3 22/1/3
f 25/1/3 23/1/3 24/1/3
f 26/1/3 24/1/3 11/1/3
f 26/4/3 25/4/3 24/4/3
f 27/4/3 25/4/3 26/4/3
f 28/1/3 26/1/3 11/1/3
f 28/1/3 27/1/3 26/1/3
f 29/1/3 27/1/3 28/1/3
f 30/1/3 28/1/3 11/1/3
f 30/4/3 29/4/3 28/4/3
f 31/4/3 29/4/3 30/4/3
f 32/1/3 30/1/3 11/1/3
f 32/1/3 31/1/3 30/1/3
f 33/1/3 31/1/3 32/1/3
f 34/1/3 32/1/3 11/1/3
f 34/4/3 33/4/3 32/4/3
f 35/4/3 33/4/3 34/4/3
f 36/1/3 34/1/3 11/1/3
f 36/1/3 35/1/3 34/1/3
f 37/1/3 35/1/3 36/1/3
f 38/1/3 36/1/3 11/1/3
f 38/4/3 37/4/3 36/4/3
f 39/4/3 37/4/3 38/4/3
f 40/1/3 38/1/3 11/1/3
f 40/1/3 39/1/3 38/1/3
f 41/1/3 39/1/3 40/1/3
f 42/1/4 43/1/4 45/1/4
f 43/4/4 44/4/4 45/4/4
f 45/4/4 44/4/4 46/4/4
f 42/1/4 45/1/4 47/1/4
f 45/3/4 46/3/4 47/3/4
f 47/3/4 46/3/4 48/3/4
f 42/1/4 47/1/4 49/1/4
f 47/1/4 48/1/4 49/1/4
f 49/1/4 48/1/4 50/1/4
f 42/1/4 49/1/4 51/1/4
f 49/4/4 50/4/4 51/4/4
f 51/4/4 50/4/4 52/4/4
f 42/1/4 51/1/4 53/1/4
f 51/3/4 52/3/4 53/3/4
f 53/3/4 52/3/4 54/3/4
f 42/1/4 53/1/4 55/1/4
f 53/1/4 54/1/4 55/1/4
f 55/1/4 54/1/4 56/1/4
f 42/1/4 55/1/4 57/1/4
f 55/4/4 56/4/4 57/4/4
f 57/4/4 56/4/4 58/4/4
f 42/1/4 57/1/4 59/1/4
f 57/3/4 58/3/4 59/3/4
f 59/3/4 58/3/4 60/3/4
f 42/1/4 59/1/4 61/1/4
f 59/1/4 60/1/4 61/1/4
f 61/1/4 60/1/4 62/1/4
f 42/1/4 61/1/4 63/1/4
f 61/4/4 62/4/4 63/4/4
f 63/4/4 62/4/4 64/4/4
f 42/1/4 63/1/4 65/1/4
f 63/3/4 64/3/4 65/3/4
f 65/3/4 64/3/4 66/3/4
f 42/1/4 65/1/4 67/1/4
f 65/1/4 66/1/4 67/1/4
f 67/1/4 66/1/4 68/1/4
f 42/1/4 67/1/4 69/1/4
f 67/4/4 68/4/4 69/4/4
f 69/4/4 68/4/4 70/4/4
f 42/1/4 69/1/4 71/1/4
f 69/3/4 70/3/4 71/3/4
f 71/3/4 70/3/4 72/3/4
f 42/1/4 71/1/4 73/1/4
f 71/1/4 72/1/4 73/1/4
f 73/1/4 72/1/4 74/1/4
f 42/1/4 73/1/4 75/1/4
f 73/4/4 74/4/4 75/4/4
f 75/4/4 74/4/4 76/4/4
f 42/1/4 75/1/4 77/1/4
f 75/3/4 76/3/4 77/3/4
f 77/3/4 76/3/4 78/3/4
f 42/1/4 77/1/4 79/1/4
f 77/1/4 78/1/4 79/1/4
f 79/1/4 78/1/4 80/1/4
f 42/1/4 79/1/4 81/1/4
f 79/4/4 80/4/4 81/4/4
f 81/4/4 80/4/4 82/4/4
f 42/1/4 81/1/4 83/1/4
f 81/3/4 82/3/4 83/3/4
f 83/3/4 82/3/4 84/3/4
f 42/1/4 83/1/4 85/1/4
f 83/1/4 84/1/4 85/1/4
f 85/1/4 84/1/4 86/1/4
f 89/1/5 88/1/5 87/1/5
f 90/1/5 88/1/5 89/1/5
f 91/4/6 92/4/6 106/4/6
f 106/4/6 92/4/6 107/4/6
f 92/1/6 93/1/6 108/1/6
f 107/4/6 92/4/6 108/4/6
f 93/4/6 94/4/6 109/4/6
f 109/4/6 94/4/6 110/4/6
f 94/1/6 95/1/6 111/1/6
f 110/4/6 94/4/6 111/4/6
f 95/4/6 96/4/6 112/4/6
f 112/4/6 96/4/6 113/4/6
f 96/1/6 97/1/6 114/1/6
f 113/4/6 96/4/6 114/4/6
f 97/4/6 98/4/6 115/4/6
f 115/4/6 98/4/6 116/4/6
f 98/1/6 99/1/6 117/1/6
f 116/4/6 98/4/6 117/4/6
f 99/4/6 100/4/6 118/4/6
f 118/4/6 100/4/6 119/4/6
f 100/1/6 101/1/6 120/1/6
f 119/4/6 100/4/6 120/4/6
f 101/4/6 102/4/6 121/4/6
f 121/4/6 102/4/6 122/4/6
f 102/1/6 103/1/6 123/1/6
f 122/4/6 102/4/6 123/4/6
f 103/4/6 104/4/6 124/4/6
f 124/4/6 104/4/6 125/4/6
f 104/1/6 105/1/6 126/1/6
f 125/4/6 104/4/6 126/4/6
f 106/2/6 107/2/6 127/2/6
f 91/4/6 106/4/6 127/4/6
f 107/3/6 108/3/6 128/3/6
f 127/2/6 107/2/6 128/2/6
f 109/2/6 110/2/6 129/2/6
f 93/4/6 109/4/6 129/4/6
f 110/3/6 111/3/6 130/3/6
f 129/2/6 110/2/6 130/2/6
f 112/2/6 113/2/6 131/2/6
f 95/4/6 112/4/6 131/4/6
f 113/3/6 114/3/6 132/3/6
f 131/2/6 113/2/6 132/2/6
f 115/2/6 116/2/6 133/2/6
f 97/4/6 115/4/6 133/4/6
f 116/3/6 117/3/6 134/3/6
f 133/2/6 116/2/6 134/2/6
f 118/2/6 119/2/6 135/2/6
f 99/4/6 118/4/6 135/4/6
f 119/3/6 120/3/6 136/3/6
f 135/2/6 119/2/6 136/2/6
f 121/2/6 122/2/6 137/2/6
f 101/4/6 121/4/6 137/4/6
f 122/3/6 123/3/6 138/3/6
f 137/2/6 122/2/6 138/2/6
f 124/2/6 125/2/6 139/2/6
f 103/4/6 124/4/6 139/4/6
f 125/3/6 126/3/6 140/3/6
f 139/2/6 125/2/6 140/2/6
f 91/4/6 127/4/6 141/4/6
f 127/3/6 128/3/6 142/3/6
f 141/4/6 127/4/6 142/4/6
f 108/1/6 93/1/6 143/1/6
f 142/3/6 128/3/6 143/3/6
f 128/3/6 108/3/6 143/3/6
f 93/4/6 129/4/6 144/4/6
f 143/1/6 93/1/6 144/1/6
f 129/3/6 130/3/6 145/3/6
f 144/4/6 129/4/6 145/4/6
f 111/1/6 95/1/6 146/1/6
f 145/3/6 130/3/6 146/3/6
f 130/3/6 111/3/6 146/3/6
f 95/4/6 131/4/6 147/4/6
f 146/1/6 95/1/6 147/1/6
f 131/3/6 132/3/6 148/3/6
f 147/4/6 131/4/6 148/4/6
f 114/1/6 97/1/6 149/1/6
f 148/3/6 132/3/6 149/3/6
f 132/3/6 114/3/6 149/3/6
f 97/4/6 133/4/6 150/4/6
f 149/1/6 97/1/6 150/1/6
f 133/3/6 134/3/6 151/3/6
f 150/4/6 133/4/6 151/4/6
f 117/1/6 99/1/6 152/1/6
f 151/3/6 134/3/6 152/3/6
f 134/3/6 117/3/6 152/3/6
f 99/4/6 135/4/6 153/4/6
f 152/1/6 99/1/6 153/1/6
f 135/3/6 136/3/6 154/3/6
f 153/4/6 135/4/6 154/4/6
f 120/1/6 101/1/6 155/1/6
f 154/3/6 136/3/6 155/3/6
f 136/3/6 120/3/6 155/3/6
f 101/4/6 137/4/6 156/4/6
f 155/1/6 101/1/6 156/1/6
f 137/3/6 138/3/6 157/3/6
f 156/4/6 137/4/6 157/4/6
f 138/3/6 123/3/6 158/3/6
f 157/3/6 138/3/6 158/3/6
f 123/1/6 103/1/6 158/1/6
f 103/4/6 139/4/6 159/4/6
f 158/1/6 103/1/6 159/1/6
f 139/3/6 140/3/6 160/3/6
f 159/4/6 139/4/6 160/4/6
f 126/1/6 105/1/6 161/1/6
f 160/3/6 140/3/6 161/3/6
f 140/3/6 126/3/6 161/3/6
f 161/1/6 105/1/6 162/1/6
